{"glyphs":{"0":{"ha":883,"x_min":60,"x_max":825,"o":"m 442 -19 q 278 17 349 -19 q 158 122 207 54 q 85 283 110 189 q 60 490 60 376 q 85 692 60 600 q 158 853 110 785 q 278 960 207 922 q 443 997 350 997 q 622 953 549 997 q 740 836 694 910 q 805 672 785 763 q 825 489 825 582 q 800 286 825 379 q 727 125 775 193 q 608 19 679 57 q 442 -19 536 -19 m 444 108 q 572 158 519 108 q 652 293 625 207 q 679 489 679 379 q 651 688 679 603 q 569 822 622 774 q 442 869 517 869 q 326 833 372 869 q 254 738 281 796 q 217 615 228 679 q 206 494 206 550 q 233 291 206 378 q 315 156 261 204 q 444 108 368 108 z "},"1":{"ha":458,"x_min":13,"x_max":315,"o":"m 174 0 l 174 850 l 13 850 l 13 983 l 315 983 l 315 0 l 174 0 z "},"2":{"ha":814,"x_min":40,"x_max":721,"o":"m 40 0 l 400 435 q 519 605 483 535 q 556 729 556 675 q 540 797 556 765 q 488 849 524 829 q 393 869 451 869 q 264 823 313 869 q 204 699 215 776 l 56 699 q 115 867 71 801 q 229 964 158 932 q 393 996 300 996 q 508 978 453 996 q 608 926 564 961 q 677 841 651 892 q 703 725 703 790 q 683 622 703 674 q 620 508 663 569 q 510 364 578 446 l 311 125 l 721 125 l 721 0 l 40 0 z "},"3":{"ha":854,"x_min":71,"x_max":761,"o":"m 418 -18 q 203 44 290 -18 q 71 206 115 106 l 182 289 q 274 155 218 201 q 417 108 329 108 q 560 162 503 108 q 618 308 618 215 q 588 422 618 379 q 505 485 557 465 q 385 506 453 506 q 353 505 371 506 q 317 503 335 504 q 283 497 299 501 l 264 572 l 546 869 l 131 869 l 131 993 l 724 993 l 724 875 l 460 608 q 614 569 546 606 q 722 469 682 533 q 761 311 761 404 q 717 145 761 219 q 595 26 672 71 q 418 -18 518 -18 z "},"4":{"ha":878,"x_min":21,"x_max":831,"o":"m 557 0 l 557 208 l 46 208 l 21 329 l 504 988 l 696 988 l 696 326 l 831 326 l 831 208 l 696 208 l 696 0 l 557 0 m 179 326 l 557 326 l 557 846 l 179 326 z "},"5":{"ha":797,"x_min":32,"x_max":714,"o":"m 356 -18 q 176 18 250 -18 q 32 118 101 54 l 115 214 q 226 135 168 164 q 354 107 285 107 q 515 163 457 107 q 572 307 572 218 q 542 408 572 365 q 459 476 511 451 q 342 500 407 500 q 270 492 304 500 q 203 471 236 485 l 100 521 l 142 978 l 681 978 l 672 854 l 257 854 l 229 592 q 304 613 269 604 q 379 621 339 621 q 547 584 471 621 q 669 478 624 547 q 714 313 714 408 q 669 138 714 213 q 544 23 625 64 q 356 -18 464 -18 z "},"6":{"ha":833,"x_min":65,"x_max":765,"o":"m 419 -19 q 240 21 319 -19 q 113 135 160 61 q 65 311 65 210 q 81 408 65 361 q 128 509 96 454 q 207 636 160 564 l 435 981 l 592 981 l 304 558 q 354 587 331 578 q 404 599 378 596 q 461 601 431 601 q 616 565 547 601 q 725 463 685 529 q 765 304 765 397 q 719 136 765 210 q 596 22 674 63 q 419 -19 518 -19 m 418 99 q 566 155 510 99 q 622 300 622 211 q 566 436 622 382 q 417 490 510 490 q 308 464 354 490 q 235 394 261 438 q 210 296 210 350 q 238 194 210 239 q 315 124 267 150 q 418 99 363 99 z "},"7":{"ha":724,"x_min":51,"x_max":731,"o":"m 108 0 l 578 854 l 51 854 l 51 978 l 731 978 l 731 857 l 265 0 l 108 0 z "},"8":{"ha":892,"x_min":93,"x_max":799,"o":"m 446 -17 q 266 20 346 -17 q 140 121 186 57 q 93 265 93 185 q 142 414 93 353 q 279 513 190 475 q 169 602 208 546 q 129 735 129 658 q 172 869 129 811 q 288 962 215 928 q 446 996 360 996 q 604 962 532 996 q 720 868 676 928 q 764 731 764 808 q 721 599 764 653 q 611 511 678 546 q 749 415 700 476 q 799 268 799 354 q 752 118 799 182 q 626 19 706 54 q 446 -17 546 -17 m 446 100 q 557 124 510 100 q 631 189 604 149 q 657 276 657 229 q 597 401 657 351 q 446 450 538 450 q 338 428 385 450 q 263 366 290 406 q 236 276 236 326 q 266 180 236 219 q 344 120 296 140 q 446 100 393 100 m 446 563 q 538 583 497 563 q 602 640 578 604 q 626 724 626 676 q 603 803 626 768 q 538 859 579 839 q 446 879 497 879 q 318 835 369 879 q 267 722 267 790 q 292 638 267 674 q 358 582 317 601 q 446 563 399 563 z "},"9":{"ha":829,"x_min":65,"x_max":764,"o":"m 239 -3 l 524 422 q 453 383 486 394 q 372 372 419 372 q 217 410 286 372 q 106 517 147 449 q 65 675 65 585 q 111 843 65 769 q 235 958 157 917 q 408 1000 313 1000 q 592 959 511 1000 q 718 843 672 918 q 764 667 764 768 q 724 505 764 579 q 632 351 685 431 l 394 -3 l 239 -3 m 413 489 q 520 515 474 489 q 593 586 567 542 q 619 683 619 631 q 590 785 619 740 q 514 855 561 829 q 411 881 467 881 q 306 854 351 881 q 234 783 260 828 q 208 683 208 739 q 234 584 208 628 q 306 515 260 540 q 413 489 351 489 z "},"A":{"ha":961,"x_min":-8,"x_max":969,"o":"m -8 0 l 418 979 l 542 979 l 969 0 l 813 0 l 704 257 l 256 257 l 144 0 l -8 0 m 306 379 l 654 379 l 479 811 l 306 379 z "},"Á":{"ha":961,"x_min":-8,"x_max":969,"o":"m -8 0 l 418 979 l 542 979 l 969 0 l 813 0 l 704 257 l 256 257 l 144 0 l -8 0 m 306 379 l 654 379 l 479 811 l 306 379 m 440 1071 l 569 1286 l 722 1250 l 540 1071 l 440 1071 z "},"Ă":{"ha":961,"x_min":-8,"x_max":969,"o":"m -8 0 l 418 979 l 542 979 l 969 0 l 813 0 l 704 257 l 256 257 l 144 0 l -8 0 m 306 379 l 654 379 l 479 811 l 306 379 m 478 1058 q 375 1084 419 1058 q 303 1156 331 1110 q 267 1263 275 1201 l 354 1263 q 400 1188 367 1214 q 482 1163 433 1163 q 561 1188 529 1163 q 606 1263 593 1214 l 692 1263 q 658 1156 686 1201 q 583 1084 629 1110 q 478 1058 536 1058 z "},"Ǎ":{"ha":961,"x_min":-8,"x_max":969,"o":"m -8 0 l 418 979 l 542 979 l 969 0 l 813 0 l 704 257 l 256 257 l 144 0 l -8 0 m 306 379 l 654 379 l 479 811 l 306 379 m 426 1085 l 264 1294 l 379 1294 l 482 1181 l 585 1294 l 699 1294 l 536 1085 l 426 1085 z "},"Â":{"ha":961,"x_min":-8,"x_max":969,"o":"m -8 0 l 418 979 l 542 979 l 969 0 l 813 0 l 704 257 l 256 257 l 144 0 l -8 0 m 306 379 l 654 379 l 479 811 l 306 379 m 272 1094 l 428 1301 l 536 1301 l 690 1094 l 585 1094 l 481 1204 l 379 1094 l 272 1094 z "},"Ä":{"ha":961,"x_min":-8,"x_max":969,"o":"m -8 0 l 418 979 l 542 979 l 969 0 l 813 0 l 704 257 l 256 257 l 144 0 l -8 0 m 306 379 l 654 379 l 479 811 l 306 379 m 346 1100 q 282 1124 307 1100 q 257 1188 257 1149 q 282 1251 257 1226 q 346 1275 307 1275 q 409 1250 382 1275 q 436 1188 436 1225 q 409 1124 436 1149 q 346 1100 382 1100 m 618 1100 q 557 1124 582 1100 q 532 1188 532 1149 q 556 1249 532 1224 q 618 1275 581 1275 q 683 1250 658 1275 q 707 1188 707 1225 q 683 1124 707 1149 q 618 1100 658 1100 z "},"À":{"ha":961,"x_min":-8,"x_max":969,"o":"m -8 0 l 418 979 l 542 979 l 969 0 l 813 0 l 704 257 l 256 257 l 144 0 l -8 0 m 306 379 l 654 379 l 479 811 l 306 379 m 415 1071 l 235 1250 l 385 1286 l 519 1071 l 415 1071 z "},"Ā":{"ha":961,"x_min":-8,"x_max":969,"o":"m -8 0 l 418 979 l 542 979 l 969 0 l 813 0 l 704 257 l 256 257 l 144 0 l -8 0 m 306 379 l 654 379 l 479 811 l 306 379 m 263 1071 l 263 1164 l 697 1164 l 697 1071 l 263 1071 z "},"Ą":{"ha":961,"x_min":-8,"x_max":1003,"o":"m -8 0 l 418 979 l 542 979 l 969 0 l 813 0 l 704 257 l 256 257 l 144 0 l -8 0 m 306 379 l 654 379 l 479 811 l 306 379 m 900 -283 q 787 -249 832 -283 q 742 -150 742 -214 q 765 -69 742 -107 q 813 0 788 -32 l 911 0 q 865 -73 881 -44 q 849 -132 849 -101 q 869 -182 849 -162 q 922 -201 889 -201 q 951 -199 936 -201 q 986 -189 965 -196 l 1003 -260 q 949 -278 975 -272 q 900 -283 924 -283 z "},"Å":{"ha":961,"x_min":-8,"x_max":969,"o":"m -8 0 l 418 979 l 542 979 l 969 0 l 813 0 l 704 257 l 256 257 l 144 0 l -8 0 m 306 379 l 654 379 l 479 811 l 306 379 m 478 947 q 407 966 440 947 q 353 1017 374 985 q 333 1089 333 1049 q 353 1163 333 1131 q 407 1215 374 1196 q 478 1233 440 1233 q 551 1214 518 1233 q 605 1162 585 1194 q 625 1088 625 1129 q 605 1015 625 1047 q 551 965 585 983 q 478 947 518 947 m 479 1019 q 532 1040 513 1019 q 551 1089 551 1060 q 531 1141 551 1121 q 479 1161 511 1161 q 428 1140 449 1161 q 407 1090 407 1119 q 428 1038 407 1057 q 479 1019 449 1019 z "},"Ǻ":{"ha":938,"x_min":-8,"x_max":946,"o":"m -8 0 l 394 871 q 344 921 363 890 q 325 990 325 951 q 345 1065 325 1032 q 399 1116 365 1097 q 469 1135 432 1135 q 544 1115 511 1135 q 598 1063 578 1096 q 618 989 618 1031 q 597 917 618 949 q 543 868 576 885 l 946 0 l 790 0 l 696 215 l 239 215 l 144 0 l -8 0 m 292 338 l 644 338 l 468 744 l 292 338 m 472 921 q 524 941 504 921 q 544 990 544 961 q 524 1041 544 1019 q 472 1063 504 1063 q 420 1042 440 1063 q 400 992 400 1021 q 421 941 400 961 q 472 921 442 921 m 433 1157 l 563 1372 l 715 1336 l 533 1157 l 433 1157 z "},"ǻ":{"ha":938,"x_min":-8,"x_max":946,"o":"m -8 0 l 394 871 q 344 921 363 890 q 325 990 325 951 q 345 1065 325 1032 q 399 1116 365 1097 q 469 1135 432 1135 q 544 1115 511 1135 q 598 1063 578 1096 q 618 989 618 1031 q 597 917 618 949 q 543 868 576 885 l 946 0 l 790 0 l 696 215 l 239 215 l 144 0 l -8 0 m 292 338 l 644 338 l 468 744 l 292 338 m 472 921 q 524 941 504 921 q 544 990 544 961 q 524 1041 544 1019 q 472 1063 504 1063 q 420 1042 440 1063 q 400 992 400 1021 q 421 941 400 961 q 472 921 442 921 m 433 1157 l 563 1372 l 715 1336 l 533 1157 l 433 1157 z "},"Ã":{"ha":961,"x_min":-8,"x_max":969,"o":"m -8 0 l 418 979 l 542 979 l 969 0 l 813 0 l 704 257 l 256 257 l 144 0 l -8 0 m 306 379 l 654 379 l 479 811 l 306 379 m 333 1069 l 247 1085 q 306 1198 268 1156 q 400 1240 343 1240 q 463 1228 433 1240 q 519 1202 492 1215 q 569 1189 546 1189 q 607 1204 593 1189 q 632 1251 621 1219 l 717 1235 q 663 1123 696 1164 q 579 1082 631 1082 q 520 1095 549 1082 q 465 1121 492 1108 q 410 1133 438 1133 q 365 1119 386 1133 q 333 1069 344 1104 z "},"Æ":{"ha":1306,"x_min":-8,"x_max":1307,"o":"m -8 0 l 565 978 l 1293 978 l 1293 851 l 774 851 l 774 558 l 1251 558 l 1251 436 l 774 436 l 774 126 l 1307 126 l 1307 0 l 629 0 l 629 257 l 297 257 l 144 0 l -8 0 m 364 379 l 629 379 l 629 832 l 364 379 z "},"Ǽ":{"ha":1306,"x_min":-8,"x_max":1307,"o":"m -8 0 l 565 978 l 1293 978 l 1293 851 l 774 851 l 774 558 l 1251 558 l 1251 436 l 774 436 l 774 126 l 1307 126 l 1307 0 l 629 0 l 629 257 l 297 257 l 144 0 l -8 0 m 364 379 l 629 379 l 629 832 l 364 379 m 747 1071 l 876 1286 l 1029 1250 l 847 1071 l 747 1071 z "},"B":{"ha":904,"x_min":106,"x_max":843,"o":"m 106 0 l 106 978 l 421 978 q 588 953 510 978 q 713 876 665 929 q 761 732 761 822 q 725 594 761 653 q 618 508 689 535 q 789 425 735 490 q 843 269 843 360 q 803 134 843 196 q 677 36 763 72 q 454 0 592 0 l 106 0 m 247 122 l 465 122 q 644 163 588 122 q 700 281 700 204 q 638 398 700 357 q 426 439 576 439 l 247 439 l 247 122 m 247 556 l 422 556 q 572 599 524 556 q 619 708 619 643 q 567 821 619 785 q 424 857 514 857 l 247 857 l 247 556 z "},"C":{"ha":971,"x_min":68,"x_max":893,"o":"m 569 -19 q 372 19 464 -19 q 213 126 281 57 q 106 287 144 194 q 68 488 68 379 q 106 687 68 594 q 212 849 143 779 q 373 958 281 919 q 575 997 465 997 q 744 969 672 997 q 875 896 817 940 l 875 739 q 752 832 824 796 q 572 868 681 868 q 386 817 467 868 q 260 679 306 765 q 215 489 215 593 q 260 299 215 385 q 386 162 306 213 q 572 111 467 111 q 697 131 642 111 q 799 185 751 151 q 893 260 847 219 l 893 103 q 749 14 826 47 q 569 -19 672 -19 z "},"Ć":{"ha":971,"x_min":68,"x_max":893,"o":"m 569 -19 q 372 19 464 -19 q 213 126 281 57 q 106 287 144 194 q 68 488 68 379 q 106 687 68 594 q 212 849 143 779 q 373 958 281 919 q 575 997 465 997 q 744 969 672 997 q 875 896 817 940 l 875 739 q 752 832 824 796 q 572 868 681 868 q 386 817 467 868 q 260 679 306 765 q 215 489 215 593 q 260 299 215 385 q 386 162 306 213 q 572 111 467 111 q 697 131 642 111 q 799 185 751 151 q 893 260 847 219 l 893 103 q 749 14 826 47 q 569 -19 672 -19 m 521 1071 l 650 1286 l 803 1250 l 621 1071 l 521 1071 z "},"Č":{"ha":971,"x_min":68,"x_max":893,"o":"m 569 -19 q 372 19 464 -19 q 213 126 281 57 q 106 287 144 194 q 68 488 68 379 q 106 687 68 594 q 212 849 143 779 q 373 958 281 919 q 575 997 465 997 q 744 969 672 997 q 875 896 817 940 l 875 739 q 752 832 824 796 q 572 868 681 868 q 386 817 467 868 q 260 679 306 765 q 215 489 215 593 q 260 299 215 385 q 386 162 306 213 q 572 111 467 111 q 697 131 642 111 q 799 185 751 151 q 893 260 847 219 l 893 103 q 749 14 826 47 q 569 -19 672 -19 m 528 1071 l 365 1281 l 481 1281 l 583 1167 l 686 1281 l 800 1281 l 638 1071 l 528 1071 z "},"Ç":{"ha":971,"x_min":68,"x_max":893,"o":"m 569 -19 q 372 19 464 -19 q 213 126 281 57 q 106 287 144 194 q 68 488 68 379 q 106 687 68 594 q 212 849 143 779 q 373 958 281 919 q 575 997 465 997 q 744 969 672 997 q 875 896 817 940 l 875 739 q 752 832 824 796 q 572 868 681 868 q 386 817 467 868 q 260 679 306 765 q 215 489 215 593 q 260 299 215 385 q 386 162 306 213 q 572 111 467 111 q 697 131 642 111 q 799 185 751 151 q 893 260 847 219 l 893 103 q 749 14 826 47 q 569 -19 672 -19 m 496 -312 q 433 -305 463 -312 q 375 -283 403 -297 l 394 -224 q 433 -235 415 -232 q 467 -239 451 -239 q 503 -233 483 -239 q 539 -215 524 -228 q 554 -179 554 -201 q 539 -148 554 -158 q 499 -137 524 -137 q 476 -140 486 -137 q 451 -149 465 -143 l 425 -128 l 511 0 l 603 0 l 544 -97 l 550 -97 q 601 -106 575 -97 q 646 -134 628 -114 q 664 -192 664 -154 q 637 -262 664 -236 q 571 -301 610 -289 q 496 -312 532 -312 z "},"Ĉ":{"ha":971,"x_min":68,"x_max":893,"o":"m 569 -19 q 372 19 464 -19 q 213 126 281 57 q 106 287 144 194 q 68 488 68 379 q 106 687 68 594 q 212 849 143 779 q 373 958 281 919 q 575 997 465 997 q 744 969 672 997 q 875 896 817 940 l 875 739 q 752 832 824 796 q 572 868 681 868 q 386 817 467 868 q 260 679 306 765 q 215 489 215 593 q 260 299 215 385 q 386 162 306 213 q 572 111 467 111 q 697 131 642 111 q 799 185 751 151 q 893 260 847 219 l 893 103 q 749 14 826 47 q 569 -19 672 -19 m 344 1094 l 500 1301 l 608 1301 l 763 1094 l 657 1094 l 553 1204 l 451 1094 l 344 1094 z "},"Ċ":{"ha":971,"x_min":68,"x_max":893,"o":"m 569 -19 q 372 19 464 -19 q 213 126 281 57 q 106 287 144 194 q 68 488 68 379 q 106 687 68 594 q 212 849 143 779 q 373 958 281 919 q 575 997 465 997 q 744 969 672 997 q 875 896 817 940 l 875 739 q 752 832 824 796 q 572 868 681 868 q 386 817 467 868 q 260 679 306 765 q 215 489 215 593 q 260 299 215 385 q 386 162 306 213 q 572 111 467 111 q 697 131 642 111 q 799 185 751 151 q 893 260 847 219 l 893 103 q 749 14 826 47 q 569 -19 672 -19 m 556 1081 q 489 1107 517 1081 q 461 1172 461 1133 q 488 1238 461 1213 q 556 1264 515 1264 q 623 1239 596 1264 q 650 1172 650 1214 q 623 1107 650 1133 q 556 1081 596 1081 z "},"D":{"ha":1019,"x_min":106,"x_max":951,"o":"m 106 0 l 106 978 l 425 978 q 697 917 578 978 q 883 747 815 857 q 951 490 951 638 q 886 237 951 347 q 702 63 821 126 q 422 0 583 0 l 106 0 m 250 128 l 419 128 q 627 174 542 128 q 757 301 713 219 q 801 488 801 382 q 780 619 801 554 q 717 735 758 683 q 615 817 675 786 q 475 849 554 849 l 250 849 l 250 128 z "},"Ď":{"ha":1019,"x_min":106,"x_max":951,"o":"m 106 0 l 106 978 l 425 978 q 697 917 578 978 q 883 747 815 857 q 951 490 951 638 q 886 237 951 347 q 702 63 821 126 q 422 0 583 0 l 106 0 m 250 128 l 419 128 q 627 174 542 128 q 757 301 713 219 q 801 488 801 382 q 780 619 801 554 q 717 735 758 683 q 615 817 675 786 q 475 849 554 849 l 250 849 l 250 128 m 410 1071 l 247 1281 l 363 1281 l 465 1167 l 568 1281 l 682 1281 l 519 1071 l 410 1071 z "},"Đ":{"ha":1063,"x_min":21,"x_max":993,"o":"m 149 0 l 149 978 l 467 978 q 738 917 619 978 q 925 747 857 857 q 993 490 993 638 q 928 237 993 347 q 744 63 863 126 q 465 0 626 0 l 149 0 m 21 426 l 21 554 l 410 554 l 410 426 l 21 426 m 292 128 l 461 128 q 669 174 583 128 q 799 301 754 219 q 843 488 843 382 q 822 619 843 554 q 758 735 800 683 q 656 817 717 786 q 517 849 596 849 l 292 849 l 292 128 z "},"Ð":{"ha":1063,"x_min":21,"x_max":993,"o":"m 149 0 l 149 978 l 467 978 q 738 917 619 978 q 925 747 857 857 q 993 490 993 638 q 928 237 993 347 q 744 63 863 126 q 465 0 626 0 l 149 0 m 21 426 l 21 554 l 410 554 l 410 426 l 21 426 m 292 128 l 461 128 q 669 174 583 128 q 799 301 754 219 q 843 488 843 382 q 822 619 843 554 q 758 735 800 683 q 656 817 717 786 q 517 849 596 849 l 292 849 l 292 128 z "},"E":{"ha":872,"x_min":106,"x_max":783,"o":"m 106 0 l 106 978 l 769 978 l 769 851 l 250 851 l 250 558 l 728 558 l 728 436 l 250 436 l 250 126 l 783 126 l 783 0 l 106 0 z "},"É":{"ha":872,"x_min":106,"x_max":783,"o":"m 106 0 l 106 978 l 769 978 l 769 851 l 250 851 l 250 558 l 728 558 l 728 436 l 250 436 l 250 126 l 783 126 l 783 0 l 106 0 m 368 1071 l 497 1286 l 650 1250 l 468 1071 l 368 1071 z "},"Ĕ":{"ha":872,"x_min":106,"x_max":783,"o":"m 106 0 l 106 978 l 769 978 l 769 851 l 250 851 l 250 558 l 728 558 l 728 436 l 250 436 l 250 126 l 783 126 l 783 0 l 106 0 m 460 1058 q 357 1084 401 1058 q 285 1156 313 1110 q 249 1263 257 1201 l 336 1263 q 382 1188 349 1214 q 464 1163 415 1163 q 543 1188 511 1163 q 588 1263 575 1214 l 674 1263 q 640 1156 668 1201 q 565 1084 611 1110 q 460 1058 518 1058 z "},"Ě":{"ha":872,"x_min":106,"x_max":783,"o":"m 106 0 l 106 978 l 769 978 l 769 851 l 250 851 l 250 558 l 728 558 l 728 436 l 250 436 l 250 126 l 783 126 l 783 0 l 106 0 m 400 1071 l 238 1281 l 353 1281 l 456 1167 l 558 1281 l 672 1281 l 510 1071 l 400 1071 z "},"Ê":{"ha":872,"x_min":106,"x_max":783,"o":"m 106 0 l 106 978 l 769 978 l 769 851 l 250 851 l 250 558 l 728 558 l 728 436 l 250 436 l 250 126 l 783 126 l 783 0 l 106 0 m 232 1094 l 388 1301 l 496 1301 l 650 1094 l 544 1094 l 440 1204 l 339 1094 l 232 1094 z "},"Ë":{"ha":872,"x_min":106,"x_max":783,"o":"m 106 0 l 106 978 l 769 978 l 769 851 l 250 851 l 250 558 l 728 558 l 728 436 l 250 436 l 250 126 l 783 126 l 783 0 l 106 0 m 306 1100 q 242 1124 267 1100 q 217 1188 217 1149 q 242 1251 217 1226 q 306 1275 267 1275 q 369 1250 342 1275 q 396 1188 396 1225 q 369 1124 396 1149 q 306 1100 342 1100 m 578 1100 q 517 1124 542 1100 q 492 1188 492 1149 q 516 1249 492 1224 q 578 1275 540 1275 q 642 1250 618 1275 q 667 1188 667 1225 q 642 1124 667 1149 q 578 1100 618 1100 z "},"Ė":{"ha":872,"x_min":106,"x_max":783,"o":"m 106 0 l 106 978 l 769 978 l 769 851 l 250 851 l 250 558 l 728 558 l 728 436 l 250 436 l 250 126 l 783 126 l 783 0 l 106 0 m 457 1081 q 390 1107 418 1081 q 363 1172 363 1133 q 390 1238 363 1213 q 457 1264 417 1264 q 524 1239 497 1264 q 551 1172 551 1214 q 524 1107 551 1133 q 457 1081 497 1081 z "},"È":{"ha":872,"x_min":106,"x_max":783,"o":"m 106 0 l 106 978 l 769 978 l 769 851 l 250 851 l 250 558 l 728 558 l 728 436 l 250 436 l 250 126 l 783 126 l 783 0 l 106 0 m 426 1071 l 246 1250 l 396 1286 l 531 1071 l 426 1071 z "},"Ē":{"ha":872,"x_min":106,"x_max":783,"o":"m 106 0 l 106 978 l 769 978 l 769 851 l 250 851 l 250 558 l 728 558 l 728 436 l 250 436 l 250 126 l 783 126 l 783 0 l 106 0 m 224 1071 l 224 1164 l 658 1164 l 658 1071 l 224 1071 z "},"Ę":{"ha":872,"x_min":106,"x_max":875,"o":"m 106 0 l 106 978 l 769 978 l 769 851 l 250 851 l 250 558 l 728 558 l 728 436 l 250 436 l 250 126 l 783 126 l 783 0 l 106 0 m 772 -283 q 659 -249 704 -283 q 614 -150 614 -214 q 637 -69 614 -107 q 685 0 660 -32 l 783 0 q 737 -73 753 -44 q 721 -132 721 -101 q 741 -182 721 -162 q 794 -201 761 -201 q 823 -199 808 -201 q 858 -189 838 -196 l 875 -260 q 822 -278 847 -272 q 772 -283 796 -283 z "},"F":{"ha":835,"x_min":106,"x_max":765,"o":"m 106 -3 l 106 978 l 765 978 l 765 851 l 250 851 l 250 546 l 721 546 l 721 421 l 250 421 l 250 -3 l 106 -3 z "},"G":{"ha":1138,"x_min":68,"x_max":1069,"o":"m 578 -22 q 374 17 468 -22 q 213 127 281 57 q 106 290 144 197 q 68 489 68 382 q 109 688 68 596 q 222 849 150 779 q 391 958 294 919 q 597 997 488 997 q 757 976 678 997 q 907 907 836 956 l 907 750 q 778 836 854 803 q 607 869 703 869 q 455 840 526 869 q 329 756 383 810 q 244 635 275 703 q 213 489 213 567 q 262 294 213 381 q 396 157 311 207 q 586 107 481 107 q 763 147 683 107 q 888 260 842 188 q 935 433 935 333 l 658 433 l 658 557 l 1069 557 l 1069 517 q 1038 301 1069 400 q 944 130 1007 203 q 790 17 882 57 q 578 -22 699 -22 z "},"Ğ":{"ha":1138,"x_min":68,"x_max":1069,"o":"m 578 -22 q 374 17 468 -22 q 213 127 281 57 q 106 290 144 197 q 68 489 68 382 q 109 688 68 596 q 222 849 150 779 q 391 958 294 919 q 597 997 488 997 q 757 976 678 997 q 907 907 836 956 l 907 750 q 778 836 854 803 q 607 869 703 869 q 455 840 526 869 q 329 756 383 810 q 244 635 275 703 q 213 489 213 567 q 262 294 213 381 q 396 157 311 207 q 586 107 481 107 q 763 147 683 107 q 888 260 842 188 q 935 433 935 333 l 658 433 l 658 557 l 1069 557 l 1069 517 q 1038 301 1069 400 q 944 130 1007 203 q 790 17 882 57 q 578 -22 699 -22 m 606 1058 q 503 1084 547 1058 q 431 1156 458 1110 q 394 1263 403 1201 l 482 1263 q 528 1188 494 1214 q 610 1163 561 1163 q 689 1188 657 1163 q 733 1263 721 1214 l 819 1263 q 785 1156 814 1201 q 710 1084 757 1110 q 606 1058 664 1058 z "},"Ĝ":{"ha":1138,"x_min":68,"x_max":1069,"o":"m 578 -22 q 374 17 468 -22 q 213 127 281 57 q 106 290 144 197 q 68 489 68 382 q 109 688 68 596 q 222 849 150 779 q 391 958 294 919 q 597 997 488 997 q 757 976 678 997 q 907 907 836 956 l 907 750 q 778 836 854 803 q 607 869 703 869 q 455 840 526 869 q 329 756 383 810 q 244 635 275 703 q 213 489 213 567 q 262 294 213 381 q 396 157 311 207 q 586 107 481 107 q 763 147 683 107 q 888 260 842 188 q 935 433 935 333 l 658 433 l 658 557 l 1069 557 l 1069 517 q 1038 301 1069 400 q 944 130 1007 203 q 790 17 882 57 q 578 -22 699 -22 m 383 1094 l 539 1301 l 647 1301 l 801 1094 l 696 1094 l 592 1204 l 490 1094 l 383 1094 z "},"Ģ":{"ha":1138,"x_min":68,"x_max":1069,"o":"m 578 -22 q 374 17 468 -22 q 213 127 281 57 q 106 290 144 197 q 68 489 68 382 q 109 688 68 596 q 222 849 150 779 q 391 958 294 919 q 597 997 488 997 q 757 976 678 997 q 907 907 836 956 l 907 750 q 778 836 854 803 q 607 869 703 869 q 455 840 526 869 q 329 756 383 810 q 244 635 275 703 q 213 489 213 567 q 262 294 213 381 q 396 157 311 207 q 586 107 481 107 q 763 147 683 107 q 888 260 842 188 q 935 433 935 333 l 658 433 l 658 557 l 1069 557 l 1069 517 q 1038 301 1069 400 q 944 130 1007 203 q 790 17 882 57 q 578 -22 699 -22 m 486 -322 l 529 -74 l 654 -74 l 583 -322 l 486 -322 z "},"Ġ":{"ha":1138,"x_min":68,"x_max":1069,"o":"m 578 -22 q 374 17 468 -22 q 213 127 281 57 q 106 290 144 197 q 68 489 68 382 q 109 688 68 596 q 222 849 150 779 q 391 958 294 919 q 597 997 488 997 q 757 976 678 997 q 907 907 836 956 l 907 750 q 778 836 854 803 q 607 869 703 869 q 455 840 526 869 q 329 756 383 810 q 244 635 275 703 q 213 489 213 567 q 262 294 213 381 q 396 157 311 207 q 586 107 481 107 q 763 147 683 107 q 888 260 842 188 q 935 433 935 333 l 658 433 l 658 557 l 1069 557 l 1069 517 q 1038 301 1069 400 q 944 130 1007 203 q 790 17 882 57 q 578 -22 699 -22 m 569 1094 q 503 1121 531 1094 q 475 1186 475 1147 q 502 1252 475 1226 q 569 1278 529 1278 q 637 1253 610 1278 q 664 1186 664 1228 q 637 1121 664 1147 q 569 1094 610 1094 z "},"H":{"ha":996,"x_min":106,"x_max":890,"o":"m 106 0 l 106 979 l 249 979 l 249 563 l 749 563 l 749 979 l 890 979 l 890 0 l 749 0 l 749 432 l 249 432 l 249 0 l 106 0 z "},"Ħ":{"ha":1033,"x_min":57,"x_max":979,"o":"m 125 0 l 125 979 l 268 979 l 268 563 l 768 563 l 768 979 l 910 979 l 910 0 l 768 0 l 768 432 l 268 432 l 268 0 l 125 0 m 979 739 l 57 739 l 57 832 l 979 832 l 979 739 z "},"Ĥ":{"ha":996,"x_min":106,"x_max":890,"o":"m 106 0 l 106 979 l 249 979 l 249 563 l 749 563 l 749 979 l 890 979 l 890 0 l 749 0 l 749 432 l 249 432 l 249 0 l 106 0 m 292 1094 l 447 1301 l 556 1301 l 710 1094 l 604 1094 l 500 1204 l 399 1094 l 292 1094 z "},"I":{"ha":353,"x_min":106,"x_max":249,"o":"m 106 0 l 106 978 l 249 978 l 249 0 l 106 0 z "},"Ĳ":{"ha":889,"x_min":106,"x_max":793,"o":"m 106 0 l 106 978 l 249 978 l 249 0 l 106 0 m 515 -15 q 431 -2 472 -15 q 353 35 389 11 l 353 172 q 429 131 390 149 q 515 113 468 113 q 614 154 579 113 q 649 299 649 196 l 649 978 l 793 978 l 793 301 q 760 128 793 199 q 665 21 728 57 q 515 -15 603 -15 z "},"Í":{"ha":353,"x_min":106,"x_max":406,"o":"m 106 0 l 106 978 l 249 978 l 249 0 l 106 0 m 124 1071 l 253 1286 l 406 1250 l 224 1071 l 124 1071 z "},"Ĭ":{"ha":353,"x_min":-36,"x_max":389,"o":"m 106 0 l 106 978 l 249 978 l 249 0 l 106 0 m 175 1063 q 72 1088 117 1063 q 0 1160 28 1114 q -36 1267 -28 1206 l 51 1267 q 97 1192 64 1218 q 179 1167 131 1167 q 258 1192 226 1167 q 303 1267 290 1218 l 389 1267 q 355 1160 383 1206 q 280 1088 326 1114 q 175 1063 233 1063 z "},"Î":{"ha":353,"x_min":-28,"x_max":390,"o":"m 106 0 l 106 978 l 249 978 l 249 0 l 106 0 m -28 1094 l 128 1301 l 236 1301 l 390 1094 l 285 1094 l 181 1204 l 79 1094 l -28 1094 z "},"Ï":{"ha":353,"x_min":-40,"x_max":410,"o":"m 106 0 l 106 978 l 249 978 l 249 0 l 106 0 m 49 1100 q -15 1124 10 1100 q -40 1188 -40 1149 q -15 1251 -40 1226 q 49 1275 10 1275 q 112 1250 85 1275 q 139 1188 139 1225 q 112 1124 139 1149 q 49 1100 85 1100 m 321 1100 q 260 1124 285 1100 q 235 1188 235 1149 q 259 1249 235 1224 q 321 1275 283 1275 q 385 1250 361 1275 q 410 1188 410 1225 q 385 1124 410 1149 q 321 1100 361 1100 z "},"İ":{"ha":353,"x_min":85,"x_max":274,"o":"m 106 0 l 106 978 l 249 978 l 249 0 l 106 0 m 179 1081 q 113 1107 140 1081 q 85 1172 85 1133 q 112 1238 85 1213 q 179 1264 139 1264 q 247 1239 219 1264 q 274 1172 274 1214 q 247 1107 274 1133 q 179 1081 219 1081 z "},"Ì":{"ha":353,"x_min":-62,"x_max":249,"o":"m 106 0 l 106 978 l 249 978 l 249 0 l 106 0 m 118 1072 l -62 1251 l 88 1288 l 222 1072 l 118 1072 z "},"Ī":{"ha":353,"x_min":-42,"x_max":393,"o":"m 106 0 l 106 978 l 249 978 l 249 0 l 106 0 m -42 1071 l -42 1164 l 393 1164 l 393 1071 l -42 1071 z "},"Į":{"ha":353,"x_min":79,"x_max":340,"o":"m 106 0 l 106 978 l 249 978 l 249 0 l 106 0 m 238 -283 q 124 -249 169 -283 q 79 -150 79 -214 q 102 -69 79 -107 q 150 0 125 -32 l 249 0 q 202 -73 218 -44 q 186 -132 186 -101 q 206 -182 186 -162 q 260 -201 226 -201 q 288 -199 274 -201 q 324 -189 303 -196 l 340 -260 q 287 -278 313 -272 q 238 -283 261 -283 z "},"Ĩ":{"ha":353,"x_min":-61,"x_max":408,"o":"m 106 0 l 106 978 l 249 978 l 249 0 l 106 0 m 25 1069 l -61 1085 q -3 1198 -40 1156 q 92 1240 35 1240 q 154 1228 125 1240 q 210 1202 183 1215 q 261 1189 238 1189 q 299 1204 285 1189 q 324 1251 313 1219 l 408 1235 q 355 1123 388 1164 q 271 1082 322 1082 q 212 1095 240 1082 q 156 1121 183 1108 q 101 1133 129 1133 q 57 1119 78 1133 q 25 1069 36 1104 z "},"J":{"ha":536,"x_min":0,"x_max":440,"o":"m 163 -15 q 78 -2 119 -15 q 0 35 36 11 l 0 172 q 76 131 38 149 q 163 113 115 113 q 261 154 226 113 q 296 299 296 196 l 296 978 l 440 978 l 440 301 q 408 128 440 199 q 313 21 375 57 q 163 -15 250 -15 z "},"Ĵ":{"ha":536,"x_min":0,"x_max":581,"o":"m 163 -15 q 78 -2 119 -15 q 0 35 36 11 l 0 172 q 76 131 38 149 q 163 113 115 113 q 261 154 226 113 q 296 299 296 196 l 296 978 l 440 978 l 440 301 q 408 128 440 199 q 313 21 375 57 q 163 -15 250 -15 m 163 1094 l 318 1301 l 426 1301 l 581 1094 l 475 1094 l 371 1204 l 269 1094 l 163 1094 z "},"K":{"ha":824,"x_min":106,"x_max":826,"o":"m 106 0 l 106 978 l 249 978 l 249 569 l 613 978 l 792 978 l 379 526 l 826 0 l 647 0 l 249 467 l 249 0 l 106 0 z "},"Ķ":{"ha":824,"x_min":106,"x_max":826,"o":"m 106 0 l 106 978 l 249 978 l 249 569 l 613 978 l 792 978 l 379 526 l 826 0 l 647 0 l 249 467 l 249 0 l 106 0 m 324 -329 l 367 -81 l 492 -81 l 421 -329 l 324 -329 z "},"L":{"ha":750,"x_min":106,"x_max":728,"o":"m 106 0 l 106 978 l 250 978 l 250 128 l 728 128 l 728 0 l 106 0 z "},"Ĺ":{"ha":747,"x_min":103,"x_max":725,"o":"m 103 0 l 103 978 l 247 978 l 247 128 l 725 128 l 725 0 l 103 0 m 132 1071 l 261 1286 l 414 1250 l 232 1071 l 132 1071 z "},"Ľ":{"ha":744,"x_min":106,"x_max":728,"o":"m 106 0 l 106 978 l 250 978 l 250 128 l 728 128 l 728 0 l 106 0 m 478 821 l 521 1069 l 646 1069 l 574 821 l 478 821 z "},"Ļ":{"ha":761,"x_min":107,"x_max":729,"o":"m 107 0 l 107 978 l 251 978 l 251 128 l 729 128 l 729 0 l 107 0 m 321 -329 l 364 -81 l 489 -81 l 418 -329 l 321 -329 z "},"Ŀ":{"ha":743,"x_min":106,"x_max":728,"o":"m 106 0 l 106 978 l 250 978 l 250 128 l 728 128 l 728 0 l 106 0 m 550 407 q 483 433 511 407 q 456 499 456 460 q 483 565 456 539 q 550 590 510 590 q 617 565 590 590 q 644 499 644 540 q 617 433 644 460 q 550 407 590 407 z "},"Ł":{"ha":751,"x_min":11,"x_max":731,"o":"m 11 258 l 11 383 l 414 661 l 414 536 l 11 258 m 108 0 l 108 978 l 253 978 l 253 128 l 731 128 l 731 0 l 108 0 z "},"M":{"ha":1074,"x_min":36,"x_max":1035,"o":"m 36 0 l 36 972 l 179 972 l 536 422 l 893 972 l 1035 972 l 1035 0 l 893 0 l 893 747 l 536 207 l 178 747 l 178 0 l 36 0 z "},"N":{"ha":1043,"x_min":106,"x_max":938,"o":"m 106 0 l 106 972 l 246 972 l 799 222 l 799 978 l 938 978 l 938 0 l 801 0 l 246 757 l 246 0 l 106 0 z "},"Ń":{"ha":1043,"x_min":106,"x_max":938,"o":"m 106 0 l 106 972 l 246 972 l 799 222 l 799 978 l 938 978 l 938 0 l 801 0 l 246 757 l 246 0 l 106 0 m 442 1071 l 571 1286 l 724 1250 l 542 1071 l 442 1071 z "},"Ň":{"ha":1043,"x_min":106,"x_max":938,"o":"m 106 0 l 106 972 l 246 972 l 799 222 l 799 978 l 938 978 l 938 0 l 801 0 l 246 757 l 246 0 l 106 0 m 469 1071 l 307 1281 l 422 1281 l 525 1167 l 628 1281 l 742 1281 l 579 1071 l 469 1071 z "},"Ņ":{"ha":1046,"x_min":107,"x_max":939,"o":"m 107 0 l 107 972 l 247 972 l 800 222 l 800 978 l 939 978 l 939 0 l 803 0 l 247 757 l 247 0 l 107 0 m 432 -329 l 475 -81 l 600 -81 l 529 -329 l 432 -329 z "},"Ñ":{"ha":1043,"x_min":106,"x_max":938,"o":"m 106 0 l 106 972 l 246 972 l 799 222 l 799 978 l 938 978 l 938 0 l 801 0 l 246 757 l 246 0 l 106 0 m 385 1069 l 299 1085 q 357 1198 319 1156 q 451 1240 394 1240 q 514 1228 485 1240 q 570 1202 543 1215 q 621 1189 597 1189 q 658 1204 644 1189 q 683 1251 672 1219 l 768 1235 q 715 1123 747 1164 q 631 1082 682 1082 q 572 1095 600 1082 q 516 1121 543 1108 q 461 1133 489 1133 q 417 1119 438 1133 q 385 1069 396 1104 z "},"Ŋ":{"ha":1043,"x_min":106,"x_max":938,"o":"m 761 -262 q 719 -260 738 -262 q 685 -253 701 -257 l 685 -143 q 709 -149 697 -147 q 732 -151 721 -151 q 787 -126 774 -151 q 800 -67 800 -101 l 800 1 l 246 757 l 246 0 l 106 0 l 106 972 l 246 972 l 799 222 l 799 978 l 938 978 l 938 -37 q 924 -153 938 -103 q 872 -233 910 -204 q 761 -262 833 -262 z "},"O":{"ha":1156,"x_min":68,"x_max":1089,"o":"m 578 -19 q 374 19 467 -19 q 212 128 281 58 q 106 290 143 197 q 68 488 68 382 q 106 685 68 593 q 213 848 144 778 q 376 958 282 918 q 581 997 469 997 q 784 958 692 997 q 945 848 876 918 q 1051 687 1014 778 q 1089 492 1089 596 q 1051 292 1089 385 q 943 130 1013 200 q 781 20 874 60 q 578 -19 688 -19 m 579 110 q 767 160 685 110 q 895 297 849 211 q 942 486 942 383 q 916 633 942 564 q 842 754 890 701 q 727 838 793 807 q 579 868 661 868 q 390 817 472 868 q 260 681 307 767 q 214 492 214 596 q 260 298 214 385 q 390 160 307 211 q 579 110 472 110 z "},"Ó":{"ha":1156,"x_min":68,"x_max":1089,"o":"m 578 -19 q 374 19 467 -19 q 212 128 281 58 q 106 290 143 197 q 68 488 68 382 q 106 685 68 593 q 213 848 144 778 q 376 958 282 918 q 581 997 469 997 q 784 958 692 997 q 945 848 876 918 q 1051 687 1014 778 q 1089 492 1089 596 q 1051 292 1089 385 q 943 130 1013 200 q 781 20 874 60 q 578 -19 688 -19 m 579 110 q 767 160 685 110 q 895 297 849 211 q 942 486 942 383 q 916 633 942 564 q 842 754 890 701 q 727 838 793 807 q 579 868 661 868 q 390 817 472 868 q 260 681 307 767 q 214 492 214 596 q 260 298 214 385 q 390 160 307 211 q 579 110 472 110 m 550 1071 l 679 1286 l 832 1250 l 650 1071 l 550 1071 z "},"Ŏ":{"ha":1156,"x_min":68,"x_max":1089,"o":"m 578 -19 q 374 19 467 -19 q 212 128 281 58 q 106 290 143 197 q 68 488 68 382 q 106 685 68 593 q 213 848 144 778 q 376 958 282 918 q 581 997 469 997 q 784 958 692 997 q 945 848 876 918 q 1051 687 1014 778 q 1089 492 1089 596 q 1051 292 1089 385 q 943 130 1013 200 q 781 20 874 60 q 578 -19 688 -19 m 579 110 q 767 160 685 110 q 895 297 849 211 q 942 486 942 383 q 916 633 942 564 q 842 754 890 701 q 727 838 793 807 q 579 868 661 868 q 390 817 472 868 q 260 681 307 767 q 214 492 214 596 q 260 298 214 385 q 390 160 307 211 q 579 110 472 110 m 571 1058 q 468 1084 513 1058 q 396 1156 424 1110 q 360 1263 368 1201 l 447 1263 q 493 1188 460 1214 q 575 1163 526 1163 q 654 1188 622 1163 q 699 1263 686 1214 l 785 1263 q 751 1156 779 1201 q 676 1084 722 1110 q 571 1058 629 1058 z "},"Ô":{"ha":1156,"x_min":68,"x_max":1089,"o":"m 578 -19 q 374 19 467 -19 q 212 128 281 58 q 106 290 143 197 q 68 488 68 382 q 106 685 68 593 q 213 848 144 778 q 376 958 282 918 q 581 997 469 997 q 784 958 692 997 q 945 848 876 918 q 1051 687 1014 778 q 1089 492 1089 596 q 1051 292 1089 385 q 943 130 1013 200 q 781 20 874 60 q 578 -19 688 -19 m 579 110 q 767 160 685 110 q 895 297 849 211 q 942 486 942 383 q 916 633 942 564 q 842 754 890 701 q 727 838 793 807 q 579 868 661 868 q 390 817 472 868 q 260 681 307 767 q 214 492 214 596 q 260 298 214 385 q 390 160 307 211 q 579 110 472 110 m 371 1094 l 526 1301 l 635 1301 l 789 1094 l 683 1094 l 579 1204 l 478 1094 l 371 1094 z "},"Ö":{"ha":1156,"x_min":68,"x_max":1089,"o":"m 578 -19 q 374 19 467 -19 q 212 128 281 58 q 106 290 143 197 q 68 488 68 382 q 106 685 68 593 q 213 848 144 778 q 376 958 282 918 q 581 997 469 997 q 784 958 692 997 q 945 848 876 918 q 1051 687 1014 778 q 1089 492 1089 596 q 1051 292 1089 385 q 943 130 1013 200 q 781 20 874 60 q 578 -19 688 -19 m 579 110 q 767 160 685 110 q 895 297 849 211 q 942 486 942 383 q 916 633 942 564 q 842 754 890 701 q 727 838 793 807 q 579 868 661 868 q 390 817 472 868 q 260 681 307 767 q 214 492 214 596 q 260 298 214 385 q 390 160 307 211 q 579 110 472 110 m 447 1100 q 383 1124 408 1100 q 358 1188 358 1149 q 383 1251 358 1226 q 447 1275 408 1275 q 510 1250 483 1275 q 538 1188 538 1225 q 510 1124 538 1149 q 447 1100 483 1100 m 719 1100 q 658 1124 683 1100 q 633 1188 633 1149 q 658 1249 633 1224 q 719 1275 682 1275 q 784 1250 760 1275 q 808 1188 808 1225 q 784 1124 808 1149 q 719 1100 760 1100 z "},"Ò":{"ha":1156,"x_min":68,"x_max":1089,"o":"m 578 -19 q 374 19 467 -19 q 212 128 281 58 q 106 290 143 197 q 68 488 68 382 q 106 685 68 593 q 213 848 144 778 q 376 958 282 918 q 581 997 469 997 q 784 958 692 997 q 945 848 876 918 q 1051 687 1014 778 q 1089 492 1089 596 q 1051 292 1089 385 q 943 130 1013 200 q 781 20 874 60 q 578 -19 688 -19 m 579 110 q 767 160 685 110 q 895 297 849 211 q 942 486 942 383 q 916 633 942 564 q 842 754 890 701 q 727 838 793 807 q 579 868 661 868 q 390 817 472 868 q 260 681 307 767 q 214 492 214 596 q 260 298 214 385 q 390 160 307 211 q 579 110 472 110 m 522 1071 l 342 1250 l 492 1286 l 626 1071 l 522 1071 z "},"Ő":{"ha":1156,"x_min":68,"x_max":1089,"o":"m 578 -19 q 374 19 467 -19 q 212 128 281 58 q 106 290 143 197 q 68 488 68 382 q 106 685 68 593 q 213 848 144 778 q 376 958 282 918 q 581 997 469 997 q 784 958 692 997 q 945 848 876 918 q 1051 687 1014 778 q 1089 492 1089 596 q 1051 292 1089 385 q 943 130 1013 200 q 781 20 874 60 q 578 -19 688 -19 m 579 110 q 767 160 685 110 q 895 297 849 211 q 942 486 942 383 q 916 633 942 564 q 842 754 890 701 q 727 838 793 807 q 579 868 661 868 q 390 817 472 868 q 260 681 307 767 q 214 492 214 596 q 260 298 214 385 q 390 160 307 211 q 579 110 472 110 m 638 1069 l 785 1288 l 924 1260 l 742 1069 l 638 1069 m 407 1069 l 554 1288 l 693 1263 l 513 1069 l 407 1069 z "},"Ō":{"ha":1156,"x_min":68,"x_max":1089,"o":"m 578 -19 q 374 19 467 -19 q 212 128 281 58 q 106 290 143 197 q 68 488 68 382 q 106 685 68 593 q 213 848 144 778 q 376 958 282 918 q 581 997 469 997 q 784 958 692 997 q 945 848 876 918 q 1051 687 1014 778 q 1089 492 1089 596 q 1051 292 1089 385 q 943 130 1013 200 q 781 20 874 60 q 578 -19 688 -19 m 579 110 q 767 160 685 110 q 895 297 849 211 q 942 486 942 383 q 916 633 942 564 q 842 754 890 701 q 727 838 793 807 q 579 868 661 868 q 390 817 472 868 q 260 681 307 767 q 214 492 214 596 q 260 298 214 385 q 390 160 307 211 q 579 110 472 110 m 363 1071 l 363 1164 l 797 1164 l 797 1071 l 363 1071 z "},"Ø":{"ha":1154,"x_min":67,"x_max":1088,"o":"m 179 -36 l 104 29 l 203 140 q 101 297 136 208 q 67 488 67 385 q 105 685 67 593 q 212 848 143 778 q 374 958 281 918 q 579 997 468 997 q 740 971 667 997 q 874 897 813 944 l 976 1014 l 1054 950 l 950 838 q 1052 681 1017 769 q 1088 492 1088 593 q 1049 294 1088 386 q 943 131 1011 201 q 782 20 875 60 q 578 -19 689 -19 q 415 7 489 -19 q 281 81 340 33 l 179 -36 m 290 250 l 788 793 q 683 849 739 831 q 565 867 628 867 q 383 815 463 867 q 258 678 303 764 q 214 492 214 593 q 234 360 214 422 q 290 250 254 299 m 593 113 q 776 164 697 113 q 897 300 854 215 q 940 486 940 385 q 920 616 940 556 q 863 726 900 676 l 365 186 q 472 130 418 147 q 593 113 526 113 z "},"Ǿ":{"ha":1154,"x_min":67,"x_max":1088,"o":"m 179 -36 l 104 29 l 203 140 q 101 297 136 208 q 67 488 67 385 q 105 685 67 593 q 212 848 143 778 q 374 958 281 918 q 579 997 468 997 q 740 971 667 997 q 874 897 813 944 l 976 1014 l 1054 950 l 950 838 q 1052 681 1017 769 q 1088 492 1088 593 q 1049 294 1088 386 q 943 131 1011 201 q 782 20 875 60 q 578 -19 689 -19 q 415 7 489 -19 q 281 81 340 33 l 179 -36 m 290 250 l 788 793 q 683 849 739 831 q 565 867 628 867 q 383 815 463 867 q 258 678 303 764 q 214 492 214 593 q 234 360 214 422 q 290 250 254 299 m 593 113 q 776 164 697 113 q 897 300 854 215 q 940 486 940 385 q 920 616 940 556 q 863 726 900 676 l 365 186 q 472 130 418 147 q 593 113 526 113 m 554 1071 l 683 1286 l 836 1250 l 654 1071 l 554 1071 z "},"Õ":{"ha":1156,"x_min":68,"x_max":1089,"o":"m 578 -19 q 374 19 467 -19 q 212 128 281 58 q 106 290 143 197 q 68 488 68 382 q 106 685 68 593 q 213 848 144 778 q 376 958 282 918 q 581 997 469 997 q 784 958 692 997 q 945 848 876 918 q 1051 687 1014 778 q 1089 492 1089 596 q 1051 292 1089 385 q 943 130 1013 200 q 781 20 874 60 q 578 -19 688 -19 m 579 110 q 767 160 685 110 q 895 297 849 211 q 942 486 942 383 q 916 633 942 564 q 842 754 890 701 q 727 838 793 807 q 579 868 661 868 q 390 817 472 868 q 260 681 307 767 q 214 492 214 596 q 260 298 214 385 q 390 160 307 211 q 579 110 472 110 m 431 1069 l 344 1085 q 403 1198 365 1156 q 497 1240 440 1240 q 560 1228 531 1240 q 616 1202 589 1215 q 667 1189 643 1189 q 704 1204 690 1189 q 729 1251 718 1219 l 814 1235 q 760 1123 793 1164 q 676 1082 728 1082 q 617 1095 646 1082 q 562 1121 589 1108 q 507 1133 535 1133 q 463 1119 483 1133 q 431 1069 442 1104 z "},"Œ":{"ha":1475,"x_min":68,"x_max":1386,"o":"m 592 -18 q 388 19 483 -18 q 222 125 293 57 q 109 285 150 193 q 68 488 68 378 q 106 685 68 593 q 213 848 144 778 q 376 958 282 918 q 581 997 469 997 q 656 992 619 997 q 725 978 692 988 l 1372 978 l 1372 851 l 854 851 l 854 558 l 1331 558 l 1331 436 l 854 436 l 854 126 l 1386 126 l 1386 0 l 736 0 q 665 -13 701 -8 q 592 -18 628 -18 m 615 114 q 669 120 647 114 q 710 135 690 126 l 710 843 q 649 861 681 854 q 585 868 618 868 q 393 819 476 868 q 262 685 310 771 q 214 492 214 600 q 267 285 214 369 q 413 158 321 201 q 615 114 504 114 z "},"P":{"ha":836,"x_min":106,"x_max":796,"o":"m 106 -3 l 106 978 l 439 978 q 627 942 547 978 q 751 841 707 907 q 796 681 796 775 q 747 512 796 582 q 615 406 699 442 q 428 369 532 369 l 250 369 l 250 -3 l 106 -3 m 250 493 l 425 493 q 592 540 532 493 q 651 674 651 588 q 593 808 651 764 q 426 853 535 853 l 250 853 l 250 493 z "},"Þ":{"ha":696,"x_min":106,"x_max":657,"o":"m 106 0 l 106 981 l 242 981 l 242 806 l 300 806 q 435 792 371 806 q 550 745 500 778 q 628 658 600 713 q 657 519 657 603 q 613 358 657 419 q 496 267 569 296 q 331 238 422 238 l 242 238 l 242 0 l 106 0 m 242 356 l 308 356 q 415 369 367 356 q 492 420 464 383 q 521 522 521 457 q 501 612 521 579 q 446 660 481 644 q 369 681 411 676 q 282 685 326 685 l 242 685 l 242 356 z "},"Q":{"ha":1163,"x_min":68,"x_max":1099,"o":"m 1099 -126 l 863 64 q 776 20 821 39 q 683 -9 732 1 q 578 -19 633 -19 q 374 20 467 -19 q 212 129 281 60 q 106 290 143 199 q 68 486 68 382 q 106 685 68 593 q 213 848 144 778 q 376 958 282 918 q 581 997 469 997 q 784 958 692 997 q 945 848 876 918 q 1051 686 1014 778 q 1089 490 1089 594 q 1056 308 1089 390 q 965 158 1024 225 l 1099 47 l 1099 -126 m 579 110 q 767 160 685 110 q 895 297 849 211 q 942 486 942 383 q 897 676 942 589 q 769 815 851 763 q 579 868 688 868 q 390 817 472 868 q 260 681 307 767 q 214 490 214 596 q 260 299 214 385 q 390 161 307 213 q 579 110 472 110 z "},"R":{"ha":839,"x_min":106,"x_max":832,"o":"m 106 0 l 106 978 l 436 978 q 620 942 542 978 q 742 840 699 906 q 786 689 786 775 q 716 504 786 576 q 528 408 646 432 l 832 0 l 661 0 l 375 396 l 251 396 l 251 0 l 106 0 m 251 510 l 403 510 q 526 527 472 510 q 610 583 579 544 q 642 683 642 622 q 584 811 642 771 q 422 851 526 851 l 251 851 l 251 510 z "},"Ŕ":{"ha":839,"x_min":106,"x_max":832,"o":"m 106 0 l 106 978 l 436 978 q 620 942 542 978 q 742 840 699 906 q 786 689 786 775 q 716 504 786 576 q 528 408 646 432 l 832 0 l 661 0 l 375 396 l 251 396 l 251 0 l 106 0 m 251 510 l 403 510 q 526 527 472 510 q 610 583 579 544 q 642 683 642 622 q 584 811 642 771 q 422 851 526 851 l 251 851 l 251 510 m 360 1071 l 489 1286 l 642 1250 l 460 1071 l 360 1071 z "},"Ř":{"ha":839,"x_min":106,"x_max":832,"o":"m 106 0 l 106 978 l 436 978 q 620 942 542 978 q 742 840 699 906 q 786 689 786 775 q 716 504 786 576 q 528 408 646 432 l 832 0 l 661 0 l 375 396 l 251 396 l 251 0 l 106 0 m 251 510 l 403 510 q 526 527 472 510 q 610 583 579 544 q 642 683 642 622 q 584 811 642 771 q 422 851 526 851 l 251 851 l 251 510 m 357 1071 l 194 1281 l 310 1281 l 413 1167 l 515 1281 l 629 1281 l 467 1071 l 357 1071 z "},"Ŗ":{"ha":839,"x_min":106,"x_max":832,"o":"m 106 0 l 106 978 l 436 978 q 620 942 542 978 q 742 840 699 906 q 786 689 786 775 q 716 504 786 576 q 528 408 646 432 l 832 0 l 661 0 l 375 396 l 251 396 l 251 0 l 106 0 m 251 510 l 403 510 q 526 527 472 510 q 610 583 579 544 q 642 683 642 622 q 584 811 642 771 q 422 851 526 851 l 251 851 l 251 510 m 338 -329 l 381 -81 l 506 -81 l 435 -329 l 338 -329 z "},"S":{"ha":774,"x_min":40,"x_max":715,"o":"m 369 -17 q 194 11 276 -17 q 40 107 111 39 l 40 254 q 153 169 96 201 q 267 122 210 136 q 376 107 324 107 q 464 119 419 107 q 540 162 508 132 q 571 243 571 192 q 544 323 571 289 q 472 385 517 357 q 372 438 426 413 q 264 491 318 463 q 165 555 210 519 q 92 639 119 590 q 65 754 65 688 q 110 886 65 832 q 226 968 154 940 q 379 996 297 996 q 524 975 457 996 q 643 908 590 954 l 643 749 q 560 823 604 796 q 471 862 515 850 q 383 874 426 874 q 258 843 306 874 q 210 756 210 813 q 237 683 210 714 q 309 626 264 651 q 408 576 354 601 q 517 523 463 551 q 616 458 571 494 q 688 369 661 421 q 715 249 715 318 q 686 127 715 178 q 608 44 657 76 q 497 -2 558 13 q 369 -17 435 -17 z "},"Ś":{"ha":774,"x_min":40,"x_max":715,"o":"m 369 -17 q 194 11 276 -17 q 40 107 111 39 l 40 254 q 153 169 96 201 q 267 122 210 136 q 376 107 324 107 q 464 119 419 107 q 540 162 508 132 q 571 243 571 192 q 544 323 571 289 q 472 385 517 357 q 372 438 426 413 q 264 491 318 463 q 165 555 210 519 q 92 639 119 590 q 65 754 65 688 q 110 886 65 832 q 226 968 154 940 q 379 996 297 996 q 524 975 457 996 q 643 908 590 954 l 643 749 q 560 823 604 796 q 471 862 515 850 q 383 874 426 874 q 258 843 306 874 q 210 756 210 813 q 237 683 210 714 q 309 626 264 651 q 408 576 354 601 q 517 523 463 551 q 616 458 571 494 q 688 369 661 421 q 715 249 715 318 q 686 127 715 178 q 608 44 657 76 q 497 -2 558 13 q 369 -17 435 -17 m 315 1071 l 444 1286 l 597 1250 l 415 1071 l 315 1071 z "},"Š":{"ha":774,"x_min":40,"x_max":715,"o":"m 369 -17 q 194 11 276 -17 q 40 107 111 39 l 40 254 q 153 169 96 201 q 267 122 210 136 q 376 107 324 107 q 464 119 419 107 q 540 162 508 132 q 571 243 571 192 q 544 323 571 289 q 472 385 517 357 q 372 438 426 413 q 264 491 318 463 q 165 555 210 519 q 92 639 119 590 q 65 754 65 688 q 110 886 65 832 q 226 968 154 940 q 379 996 297 996 q 524 975 457 996 q 643 908 590 954 l 643 749 q 560 823 604 796 q 471 862 515 850 q 383 874 426 874 q 258 843 306 874 q 210 756 210 813 q 237 683 210 714 q 309 626 264 651 q 408 576 354 601 q 517 523 463 551 q 616 458 571 494 q 688 369 661 421 q 715 249 715 318 q 686 127 715 178 q 608 44 657 76 q 497 -2 558 13 q 369 -17 435 -17 m 321 1071 l 158 1281 l 274 1281 l 376 1167 l 479 1281 l 593 1281 l 431 1071 l 321 1071 z "},"Ş":{"ha":774,"x_min":40,"x_max":715,"o":"m 369 -17 q 194 11 276 -17 q 40 107 111 39 l 40 254 q 153 169 96 201 q 267 122 210 136 q 376 107 324 107 q 464 119 419 107 q 540 162 508 132 q 571 243 571 192 q 544 323 571 289 q 472 385 517 357 q 372 438 426 413 q 264 491 318 463 q 165 555 210 519 q 92 639 119 590 q 65 754 65 688 q 110 886 65 832 q 226 968 154 940 q 379 996 297 996 q 524 975 457 996 q 643 908 590 954 l 643 749 q 560 823 604 796 q 471 862 515 850 q 383 874 426 874 q 258 843 306 874 q 210 756 210 813 q 237 683 210 714 q 309 626 264 651 q 408 576 354 601 q 517 523 463 551 q 616 458 571 494 q 688 369 661 421 q 715 249 715 318 q 686 127 715 178 q 608 44 657 76 q 497 -2 558 13 q 369 -17 435 -17 m 318 -312 q 255 -305 285 -312 q 197 -283 225 -297 l 217 -224 q 256 -235 238 -232 q 289 -239 274 -239 q 326 -233 306 -239 q 361 -215 346 -228 q 376 -179 376 -201 q 361 -148 376 -158 q 321 -137 346 -137 q 298 -140 308 -137 q 274 -149 288 -143 l 247 -128 l 333 0 l 425 0 l 367 -97 l 372 -97 q 424 -106 397 -97 q 468 -134 450 -114 q 486 -192 486 -154 q 459 -262 486 -236 q 393 -301 432 -289 q 318 -312 354 -312 z "},"Ŝ":{"ha":774,"x_min":40,"x_max":715,"o":"m 369 -17 q 194 11 276 -17 q 40 107 111 39 l 40 254 q 153 169 96 201 q 267 122 210 136 q 376 107 324 107 q 464 119 419 107 q 540 162 508 132 q 571 243 571 192 q 544 323 571 289 q 472 385 517 357 q 372 438 426 413 q 264 491 318 463 q 165 555 210 519 q 92 639 119 590 q 65 754 65 688 q 110 886 65 832 q 226 968 154 940 q 379 996 297 996 q 524 975 457 996 q 643 908 590 954 l 643 749 q 560 823 604 796 q 471 862 515 850 q 383 874 426 874 q 258 843 306 874 q 210 756 210 813 q 237 683 210 714 q 309 626 264 651 q 408 576 354 601 q 517 523 463 551 q 616 458 571 494 q 688 369 661 421 q 715 249 715 318 q 686 127 715 178 q 608 44 657 76 q 497 -2 558 13 q 369 -17 435 -17 m 169 1094 l 325 1301 l 433 1301 l 588 1094 l 482 1094 l 378 1204 l 276 1094 l 169 1094 z "},"Ș":{"ha":797,"x_min":61,"x_max":736,"o":"m 390 -17 q 215 11 297 -17 q 61 107 132 39 l 61 254 q 174 169 117 201 q 288 122 231 136 q 397 107 344 107 q 485 119 440 107 q 560 162 529 132 q 592 243 592 192 q 565 323 592 289 q 492 385 538 357 q 393 438 447 413 q 285 491 339 463 q 185 555 231 519 q 113 639 140 590 q 86 754 86 688 q 131 886 86 832 q 247 968 175 940 q 400 996 318 996 q 544 975 478 996 q 664 908 611 954 l 664 749 q 581 823 625 796 q 492 862 536 850 q 404 874 447 874 q 278 843 326 874 q 231 756 231 813 q 258 683 231 714 q 330 626 285 651 q 429 576 375 601 q 538 523 483 551 q 637 458 592 494 q 709 369 682 421 q 736 249 736 318 q 707 127 736 178 q 628 44 678 76 q 517 -2 579 13 q 390 -17 456 -17 m 294 -329 l 338 -81 l 463 -81 l 392 -329 l 294 -329 z "},"ẞ":{"ha":800,"x_min":15,"x_max":753,"o":"m 314 -4 l 314 103 q 537 148 460 103 q 614 293 614 193 q 548 434 614 389 q 368 488 482 479 l 368 582 l 553 769 q 499 881 553 842 q 363 921 446 921 q 246 891 293 921 q 175 813 199 861 q 151 706 151 764 l 151 0 l 15 0 l 15 708 q 53 877 15 801 q 170 998 92 953 q 368 1043 249 1043 q 535 1009 463 1043 q 649 911 607 975 q 690 758 690 847 l 486 563 q 681 481 608 551 q 753 300 753 411 q 721 161 753 219 q 631 66 689 103 q 492 12 572 29 q 314 -4 411 -6 z "},"T":{"ha":750,"x_min":13,"x_max":738,"o":"m 304 0 l 304 851 l 13 851 l 13 978 l 738 978 l 738 851 l 446 851 l 446 0 l 304 0 z "},"Ŧ":{"ha":750,"x_min":13,"x_max":738,"o":"m 304 0 l 304 851 l 13 851 l 13 978 l 738 978 l 738 851 l 446 851 l 446 0 l 304 0 m 157 518 l 157 611 l 592 611 l 592 518 l 157 518 z "},"Ť":{"ha":750,"x_min":13,"x_max":738,"o":"m 304 0 l 304 851 l 13 851 l 13 978 l 738 978 l 738 851 l 446 851 l 446 0 l 304 0 m 319 1071 l 157 1281 l 272 1281 l 375 1167 l 478 1281 l 592 1281 l 429 1071 l 319 1071 z "},"Ţ":{"ha":750,"x_min":13,"x_max":738,"o":"m 304 0 l 304 851 l 13 851 l 13 978 l 738 978 l 738 851 l 446 851 l 446 0 l 304 0 m 317 -312 q 253 -305 283 -312 q 196 -283 224 -297 l 215 -224 q 254 -235 236 -232 q 288 -239 272 -239 q 324 -233 304 -239 q 360 -215 344 -228 q 375 -179 375 -201 q 360 -148 375 -158 q 319 -137 344 -137 q 297 -140 307 -137 q 272 -149 286 -143 l 246 -128 l 332 0 l 424 0 l 365 -97 l 371 -97 q 422 -106 396 -97 q 467 -134 449 -114 q 485 -192 485 -154 q 458 -262 485 -236 q 392 -301 431 -289 q 317 -312 353 -312 z "},"Ț":{"ha":750,"x_min":13,"x_max":738,"o":"m 304 0 l 304 851 l 13 851 l 13 978 l 738 978 l 738 851 l 446 851 l 446 0 l 304 0 m 272 -329 l 315 -81 l 440 -81 l 369 -329 l 272 -329 z "},"U":{"ha":988,"x_min":94,"x_max":892,"o":"m 494 -21 q 277 29 367 -21 q 141 174 188 79 q 94 400 94 268 l 94 979 l 238 979 l 238 406 q 301 189 238 267 q 494 111 364 111 q 683 183 617 111 q 750 401 750 254 l 750 979 l 892 979 l 892 404 q 847 176 892 271 q 713 30 801 81 q 494 -21 625 -21 z "},"Ú":{"ha":988,"x_min":94,"x_max":892,"o":"m 494 -21 q 277 29 367 -21 q 141 174 188 79 q 94 400 94 268 l 94 979 l 238 979 l 238 406 q 301 189 238 267 q 494 111 364 111 q 683 183 617 111 q 750 401 750 254 l 750 979 l 892 979 l 892 404 q 847 176 892 271 q 713 30 801 81 q 494 -21 625 -21 m 438 1071 l 567 1286 l 719 1250 l 538 1071 l 438 1071 z "},"Ŭ":{"ha":988,"x_min":94,"x_max":892,"o":"m 494 -21 q 277 29 367 -21 q 141 174 188 79 q 94 400 94 268 l 94 979 l 238 979 l 238 406 q 301 189 238 267 q 494 111 364 111 q 683 183 617 111 q 750 401 750 254 l 750 979 l 892 979 l 892 404 q 847 176 892 271 q 713 30 801 81 q 494 -21 625 -21 m 494 1058 q 392 1084 436 1058 q 319 1156 347 1110 q 283 1263 292 1201 l 371 1263 q 417 1188 383 1214 q 499 1163 450 1163 q 578 1188 546 1163 q 622 1263 610 1214 l 708 1263 q 674 1156 703 1201 q 599 1084 646 1110 q 494 1058 553 1058 z "},"Û":{"ha":988,"x_min":94,"x_max":892,"o":"m 494 -21 q 277 29 367 -21 q 141 174 188 79 q 94 400 94 268 l 94 979 l 238 979 l 238 406 q 301 189 238 267 q 494 111 364 111 q 683 183 617 111 q 750 401 750 254 l 750 979 l 892 979 l 892 404 q 847 176 892 271 q 713 30 801 81 q 494 -21 625 -21 m 292 1094 l 447 1301 l 556 1301 l 710 1094 l 604 1094 l 500 1204 l 399 1094 l 292 1094 z "},"Ü":{"ha":988,"x_min":94,"x_max":892,"o":"m 494 -21 q 277 29 367 -21 q 141 174 188 79 q 94 400 94 268 l 94 979 l 238 979 l 238 406 q 301 189 238 267 q 494 111 364 111 q 683 183 617 111 q 750 401 750 254 l 750 979 l 892 979 l 892 404 q 847 176 892 271 q 713 30 801 81 q 494 -21 625 -21 m 354 1100 q 290 1124 315 1100 q 265 1188 265 1149 q 290 1251 265 1226 q 354 1275 315 1275 q 417 1250 390 1275 q 444 1188 444 1225 q 417 1124 444 1149 q 354 1100 390 1100 m 626 1100 q 565 1124 590 1100 q 540 1188 540 1149 q 565 1249 540 1224 q 626 1275 589 1275 q 691 1250 667 1275 q 715 1188 715 1225 q 691 1124 715 1149 q 626 1100 667 1100 z "},"Ù":{"ha":988,"x_min":94,"x_max":892,"o":"m 494 -21 q 277 29 367 -21 q 141 174 188 79 q 94 400 94 268 l 94 979 l 238 979 l 238 406 q 301 189 238 267 q 494 111 364 111 q 683 183 617 111 q 750 401 750 254 l 750 979 l 892 979 l 892 404 q 847 176 892 271 q 713 30 801 81 q 494 -21 625 -21 m 458 1071 l 278 1250 l 428 1286 l 563 1071 l 458 1071 z "},"Ű":{"ha":988,"x_min":94,"x_max":892,"o":"m 494 -21 q 277 29 367 -21 q 141 174 188 79 q 94 400 94 268 l 94 979 l 238 979 l 238 406 q 301 189 238 267 q 494 111 364 111 q 683 183 617 111 q 750 401 750 254 l 750 979 l 892 979 l 892 404 q 847 176 892 271 q 713 30 801 81 q 494 -21 625 -21 m 553 1069 l 700 1288 l 839 1260 l 657 1069 l 553 1069 m 322 1069 l 469 1288 l 608 1263 l 428 1069 l 322 1069 z "},"Ū":{"ha":988,"x_min":94,"x_max":892,"o":"m 494 -21 q 277 29 367 -21 q 141 174 188 79 q 94 400 94 268 l 94 979 l 238 979 l 238 406 q 301 189 238 267 q 494 111 364 111 q 683 183 617 111 q 750 401 750 254 l 750 979 l 892 979 l 892 404 q 847 176 892 271 q 713 30 801 81 q 494 -21 625 -21 m 283 1071 l 283 1164 l 718 1164 l 718 1071 l 283 1071 z "},"Ų":{"ha":988,"x_min":94,"x_max":892,"o":"m 494 -21 q 277 29 367 -21 q 141 174 188 79 q 94 400 94 268 l 94 979 l 238 979 l 238 406 q 301 189 238 267 q 494 111 364 111 q 683 183 617 111 q 750 401 750 254 l 750 979 l 892 979 l 892 404 q 847 176 892 271 q 713 30 801 81 q 494 -21 625 -21 m 536 -283 q 423 -249 468 -283 q 378 -150 378 -214 q 401 -69 378 -107 q 449 0 424 -32 l 547 0 q 501 -73 517 -44 q 485 -132 485 -101 q 505 -182 485 -162 q 558 -201 525 -201 q 587 -199 572 -201 q 622 -189 601 -196 l 639 -260 q 585 -278 611 -272 q 536 -283 560 -283 z "},"Ů":{"ha":988,"x_min":94,"x_max":892,"o":"m 494 -21 q 277 29 367 -21 q 141 174 188 79 q 94 400 94 268 l 94 979 l 238 979 l 238 406 q 301 189 238 267 q 494 111 364 111 q 683 183 617 111 q 750 401 750 254 l 750 979 l 892 979 l 892 404 q 847 176 892 271 q 713 30 801 81 q 494 -21 625 -21 m 499 1075 q 428 1094 461 1075 q 374 1144 394 1113 q 354 1217 354 1176 q 374 1291 354 1258 q 428 1342 394 1324 q 499 1361 461 1361 q 572 1342 539 1361 q 626 1290 606 1322 q 646 1215 646 1257 q 626 1143 646 1175 q 572 1093 606 1111 q 499 1075 539 1075 m 500 1147 q 553 1167 533 1147 q 572 1217 572 1188 q 552 1269 572 1249 q 500 1289 532 1289 q 449 1268 469 1289 q 428 1218 428 1247 q 449 1166 428 1185 q 500 1147 469 1147 z "},"Ũ":{"ha":988,"x_min":94,"x_max":892,"o":"m 494 -21 q 277 29 367 -21 q 141 174 188 79 q 94 400 94 268 l 94 979 l 238 979 l 238 406 q 301 189 238 267 q 494 111 364 111 q 683 183 617 111 q 750 401 750 254 l 750 979 l 892 979 l 892 404 q 847 176 892 271 q 713 30 801 81 q 494 -21 625 -21 m 368 1069 l 282 1085 q 340 1198 303 1156 q 435 1240 378 1240 q 497 1228 468 1240 q 553 1202 526 1215 q 604 1189 581 1189 q 642 1204 628 1189 q 667 1251 656 1219 l 751 1235 q 698 1123 731 1164 q 614 1082 665 1082 q 555 1095 583 1082 q 499 1121 526 1108 q 444 1133 472 1133 q 400 1119 421 1133 q 368 1069 379 1104 z "},"V":{"ha":918,"x_min":-7,"x_max":922,"o":"m 381 -1 l -7 978 l 153 978 l 461 161 l 767 978 l 922 978 l 539 -1 l 381 -1 z "},"W":{"ha":1400,"x_min":4,"x_max":1396,"o":"m 332 -1 l 4 978 l 157 978 l 406 214 l 636 979 l 769 979 l 1006 214 l 1247 978 l 1396 978 l 1071 -1 l 939 -1 l 699 765 l 467 -1 l 332 -1 z "},"Ẃ":{"ha":1400,"x_min":4,"x_max":1396,"o":"m 332 -1 l 4 978 l 157 978 l 406 214 l 636 979 l 769 979 l 1006 214 l 1247 978 l 1396 978 l 1071 -1 l 939 -1 l 699 765 l 467 -1 l 332 -1 m 653 1071 l 782 1286 l 935 1250 l 753 1071 l 653 1071 z "},"Ŵ":{"ha":1400,"x_min":4,"x_max":1396,"o":"m 332 -1 l 4 978 l 157 978 l 406 214 l 636 979 l 769 979 l 1006 214 l 1247 978 l 1396 978 l 1071 -1 l 939 -1 l 699 765 l 467 -1 l 332 -1 m 490 1094 l 646 1301 l 754 1301 l 908 1094 l 803 1094 l 699 1204 l 597 1094 l 490 1094 z "},"Ẅ":{"ha":1400,"x_min":4,"x_max":1396,"o":"m 332 -1 l 4 978 l 157 978 l 406 214 l 636 979 l 769 979 l 1006 214 l 1247 978 l 1396 978 l 1071 -1 l 939 -1 l 699 765 l 467 -1 l 332 -1 m 563 1100 q 499 1124 524 1100 q 474 1188 474 1149 q 499 1251 474 1226 q 563 1275 524 1275 q 626 1250 599 1275 q 653 1188 653 1225 q 626 1124 653 1149 q 563 1100 599 1100 m 835 1100 q 774 1124 799 1100 q 749 1188 749 1149 q 773 1249 749 1224 q 835 1275 797 1275 q 899 1250 875 1275 q 924 1188 924 1225 q 899 1124 924 1149 q 835 1100 875 1100 z "},"Ẁ":{"ha":1400,"x_min":4,"x_max":1396,"o":"m 332 -1 l 4 978 l 157 978 l 406 214 l 636 979 l 769 979 l 1006 214 l 1247 978 l 1396 978 l 1071 -1 l 939 -1 l 699 765 l 467 -1 l 332 -1 m 674 1071 l 493 1250 l 643 1286 l 778 1071 l 674 1071 z "},"X":{"ha":890,"x_min":11,"x_max":878,"o":"m 11 0 l 363 500 l 28 978 l 194 978 l 449 610 l 699 978 l 860 978 l 529 503 l 878 0 l 714 0 l 444 392 l 176 0 l 11 0 z "},"Y":{"ha":883,"x_min":-4,"x_max":888,"o":"m 371 0 l 371 385 l -4 978 l 163 978 l 446 518 l 728 978 l 888 978 l 514 386 l 514 0 l 371 0 z "},"Ý":{"ha":883,"x_min":-4,"x_max":888,"o":"m 371 0 l 371 385 l -4 978 l 163 978 l 446 518 l 728 978 l 888 978 l 514 386 l 514 0 l 371 0 m 369 1071 l 499 1286 l 651 1250 l 469 1071 l 369 1071 z "},"Ŷ":{"ha":883,"x_min":-4,"x_max":888,"o":"m 371 0 l 371 385 l -4 978 l 163 978 l 446 518 l 728 978 l 888 978 l 514 386 l 514 0 l 371 0 m 238 1094 l 393 1301 l 501 1301 l 656 1094 l 550 1094 l 446 1204 l 344 1094 l 238 1094 z "},"Ÿ":{"ha":883,"x_min":-4,"x_max":888,"o":"m 371 0 l 371 385 l -4 978 l 163 978 l 446 518 l 728 978 l 888 978 l 514 386 l 514 0 l 371 0 m 308 1100 q 244 1124 269 1100 q 219 1188 219 1149 q 244 1251 219 1226 q 308 1275 269 1275 q 372 1250 344 1275 q 399 1188 399 1225 q 372 1124 399 1149 q 308 1100 344 1100 m 581 1100 q 519 1124 544 1100 q 494 1188 494 1149 q 519 1249 494 1224 q 581 1275 543 1275 q 645 1250 621 1275 q 669 1188 669 1225 q 645 1124 669 1149 q 581 1100 621 1100 z "},"Ỳ":{"ha":883,"x_min":-4,"x_max":888,"o":"m 371 0 l 371 385 l -4 978 l 163 978 l 446 518 l 728 978 l 888 978 l 514 386 l 514 0 l 371 0 m 404 1071 l 224 1250 l 374 1286 l 508 1071 l 404 1071 z "},"Z":{"ha":888,"x_min":15,"x_max":857,"o":"m 15 0 l 15 117 l 675 853 l 50 853 l 50 978 l 857 978 l 857 861 l 204 125 l 832 125 l 832 0 l 15 0 z "},"Ź":{"ha":888,"x_min":15,"x_max":857,"o":"m 15 0 l 15 117 l 675 853 l 50 853 l 50 978 l 857 978 l 857 861 l 204 125 l 832 125 l 832 0 l 15 0 m 382 1071 l 511 1286 l 664 1250 l 482 1071 l 382 1071 z "},"Ž":{"ha":888,"x_min":15,"x_max":857,"o":"m 15 0 l 15 117 l 675 853 l 50 853 l 50 978 l 857 978 l 857 861 l 204 125 l 832 125 l 832 0 l 15 0 m 411 1071 l 249 1281 l 364 1281 l 467 1167 l 569 1281 l 683 1281 l 521 1071 l 411 1071 z "},"Ż":{"ha":888,"x_min":15,"x_max":857,"o":"m 15 0 l 15 117 l 675 853 l 50 853 l 50 978 l 857 978 l 857 861 l 204 125 l 832 125 l 832 0 l 15 0 m 456 1081 q 389 1107 417 1081 q 361 1172 361 1133 q 388 1238 361 1213 q 456 1264 415 1264 q 523 1239 496 1264 q 550 1172 550 1214 q 523 1107 550 1133 q 456 1081 496 1081 z "},"a":{"ha":776,"x_min":47,"x_max":685,"o":"m 322 -15 q 192 14 256 -15 q 88 99 129 43 q 47 235 47 154 q 72 343 47 300 q 140 413 97 386 q 234 450 182 439 q 340 461 286 461 q 451 451 399 461 q 547 417 504 440 l 547 442 q 493 550 547 518 q 350 582 439 582 q 222 567 285 582 q 96 517 158 553 l 96 639 q 215 678 146 660 q 365 697 283 697 q 526 667 454 697 q 642 578 599 638 q 685 429 685 518 l 685 -3 l 544 69 q 446 6 499 28 q 322 -15 393 -15 m 360 90 q 468 113 422 90 q 547 174 514 135 l 547 315 q 472 348 515 333 q 368 363 429 363 q 283 349 325 363 q 213 305 240 335 q 185 226 185 275 q 209 150 185 181 q 274 105 233 119 q 360 90 314 90 z "},"á":{"ha":776,"x_min":47,"x_max":685,"o":"m 322 -15 q 192 14 256 -15 q 88 99 129 43 q 47 235 47 154 q 72 343 47 300 q 140 413 97 386 q 234 450 182 439 q 340 461 286 461 q 451 451 399 461 q 547 417 504 440 l 547 442 q 493 550 547 518 q 350 582 439 582 q 222 567 285 582 q 96 517 158 553 l 96 639 q 215 678 146 660 q 365 697 283 697 q 526 667 454 697 q 642 578 599 638 q 685 429 685 518 l 685 -3 l 544 69 q 446 6 499 28 q 322 -15 393 -15 m 360 90 q 468 113 422 90 q 547 174 514 135 l 547 315 q 472 348 515 333 q 368 363 429 363 q 283 349 325 363 q 213 305 240 335 q 185 226 185 275 q 209 150 185 181 q 274 105 233 119 q 360 90 314 90 m 324 856 l 453 1071 l 606 1035 l 424 856 l 324 856 z "},"ă":{"ha":776,"x_min":47,"x_max":685,"o":"m 322 -15 q 192 14 256 -15 q 88 99 129 43 q 47 235 47 154 q 72 343 47 300 q 140 413 97 386 q 234 450 182 439 q 340 461 286 461 q 451 451 399 461 q 547 417 504 440 l 547 442 q 493 550 547 518 q 350 582 439 582 q 222 567 285 582 q 96 517 158 553 l 96 639 q 215 678 146 660 q 365 697 283 697 q 526 667 454 697 q 642 578 599 638 q 685 429 685 518 l 685 -3 l 544 69 q 446 6 499 28 q 322 -15 393 -15 m 360 90 q 468 113 422 90 q 547 174 514 135 l 547 315 q 472 348 515 333 q 368 363 429 363 q 283 349 325 363 q 213 305 240 335 q 185 226 185 275 q 209 150 185 181 q 274 105 233 119 q 360 90 314 90 m 390 829 q 288 855 332 829 q 215 926 243 881 q 179 1033 188 972 l 267 1033 q 313 959 279 985 q 394 933 346 933 q 474 959 442 933 q 518 1033 506 985 l 604 1033 q 570 926 599 972 q 495 855 542 881 q 390 829 449 829 z "},"ǎ":{"ha":776,"x_min":47,"x_max":685,"o":"m 322 -15 q 192 14 256 -15 q 88 99 129 43 q 47 235 47 154 q 72 343 47 300 q 140 413 97 386 q 234 450 182 439 q 340 461 286 461 q 451 451 399 461 q 547 417 504 440 l 547 442 q 493 550 547 518 q 350 582 439 582 q 222 567 285 582 q 96 517 158 553 l 96 639 q 215 678 146 660 q 365 697 283 697 q 526 667 454 697 q 642 578 599 638 q 685 429 685 518 l 685 -3 l 544 69 q 446 6 499 28 q 322 -15 393 -15 m 360 90 q 468 113 422 90 q 547 174 514 135 l 547 315 q 472 348 515 333 q 368 363 429 363 q 283 349 325 363 q 213 305 240 335 q 185 226 185 275 q 209 150 185 181 q 274 105 233 119 q 360 90 314 90 m 333 838 l 171 1047 l 286 1047 l 389 933 l 492 1047 l 606 1047 l 443 838 l 333 838 z "},"â":{"ha":776,"x_min":47,"x_max":685,"o":"m 322 -15 q 192 14 256 -15 q 88 99 129 43 q 47 235 47 154 q 72 343 47 300 q 140 413 97 386 q 234 450 182 439 q 340 461 286 461 q 451 451 399 461 q 547 417 504 440 l 547 442 q 493 550 547 518 q 350 582 439 582 q 222 567 285 582 q 96 517 158 553 l 96 639 q 215 678 146 660 q 365 697 283 697 q 526 667 454 697 q 642 578 599 638 q 685 429 685 518 l 685 -3 l 544 69 q 446 6 499 28 q 322 -15 393 -15 m 360 90 q 468 113 422 90 q 547 174 514 135 l 547 315 q 472 348 515 333 q 368 363 429 363 q 283 349 325 363 q 213 305 240 335 q 185 226 185 275 q 209 150 185 181 q 274 105 233 119 q 360 90 314 90 m 179 865 l 335 1072 l 443 1072 l 597 865 l 492 865 l 388 975 l 286 865 l 179 865 z "},"ä":{"ha":776,"x_min":47,"x_max":685,"o":"m 322 -15 q 192 14 256 -15 q 88 99 129 43 q 47 235 47 154 q 72 343 47 300 q 140 413 97 386 q 234 450 182 439 q 340 461 286 461 q 451 451 399 461 q 547 417 504 440 l 547 442 q 493 550 547 518 q 350 582 439 582 q 222 567 285 582 q 96 517 158 553 l 96 639 q 215 678 146 660 q 365 697 283 697 q 526 667 454 697 q 642 578 599 638 q 685 429 685 518 l 685 -3 l 544 69 q 446 6 499 28 q 322 -15 393 -15 m 360 90 q 468 113 422 90 q 547 174 514 135 l 547 315 q 472 348 515 333 q 368 363 429 363 q 283 349 325 363 q 213 305 240 335 q 185 226 185 275 q 209 150 185 181 q 274 105 233 119 q 360 90 314 90 m 251 869 q 192 893 215 869 q 169 951 169 917 q 193 1010 169 986 q 251 1033 217 1033 q 310 1009 285 1033 q 335 951 335 985 q 310 893 335 917 q 251 869 285 869 m 515 869 q 459 893 482 869 q 436 951 436 917 q 459 1009 436 985 q 515 1033 482 1033 q 574 1009 551 1033 q 597 951 597 985 q 574 893 597 917 q 515 869 551 869 z "},"à":{"ha":776,"x_min":47,"x_max":685,"o":"m 322 -15 q 192 14 256 -15 q 88 99 129 43 q 47 235 47 154 q 72 343 47 300 q 140 413 97 386 q 234 450 182 439 q 340 461 286 461 q 451 451 399 461 q 547 417 504 440 l 547 442 q 493 550 547 518 q 350 582 439 582 q 222 567 285 582 q 96 517 158 553 l 96 639 q 215 678 146 660 q 365 697 283 697 q 526 667 454 697 q 642 578 599 638 q 685 429 685 518 l 685 -3 l 544 69 q 446 6 499 28 q 322 -15 393 -15 m 360 90 q 468 113 422 90 q 547 174 514 135 l 547 315 q 472 348 515 333 q 368 363 429 363 q 283 349 325 363 q 213 305 240 335 q 185 226 185 275 q 209 150 185 181 q 274 105 233 119 q 360 90 314 90 m 368 856 l 188 1035 l 338 1071 l 472 856 l 368 856 z "},"ā":{"ha":776,"x_min":47,"x_max":685,"o":"m 322 -15 q 192 14 256 -15 q 88 99 129 43 q 47 235 47 154 q 72 343 47 300 q 140 413 97 386 q 234 450 182 439 q 340 461 286 461 q 451 451 399 461 q 547 417 504 440 l 547 442 q 493 550 547 518 q 350 582 439 582 q 222 567 285 582 q 96 517 158 553 l 96 639 q 215 678 146 660 q 365 697 283 697 q 526 667 454 697 q 642 578 599 638 q 685 429 685 518 l 685 -3 l 544 69 q 446 6 499 28 q 322 -15 393 -15 m 360 90 q 468 113 422 90 q 547 174 514 135 l 547 315 q 472 348 515 333 q 368 363 429 363 q 283 349 325 363 q 213 305 240 335 q 185 226 185 275 q 209 150 185 181 q 274 105 233 119 q 360 90 314 90 m 161 842 l 161 935 l 596 935 l 596 842 l 161 842 z "},"ą":{"ha":776,"x_min":47,"x_max":776,"o":"m 322 -15 q 192 14 256 -15 q 88 99 129 43 q 47 235 47 154 q 72 343 47 300 q 140 413 97 386 q 234 450 182 439 q 340 461 286 461 q 451 451 399 461 q 547 417 504 440 l 547 442 q 493 550 547 518 q 350 582 439 582 q 222 567 285 582 q 96 517 158 553 l 96 639 q 215 678 146 660 q 365 697 283 697 q 526 667 454 697 q 642 578 599 638 q 685 429 685 518 l 685 -3 l 544 69 q 446 6 499 28 q 322 -15 393 -15 m 360 90 q 468 113 422 90 q 547 174 514 135 l 547 315 q 472 348 515 333 q 368 363 429 363 q 283 349 325 363 q 213 305 240 335 q 185 226 185 275 q 209 150 185 181 q 274 105 233 119 q 360 90 314 90 m 674 -283 q 560 -247 606 -283 q 515 -146 515 -210 q 540 -58 515 -103 q 621 43 565 -14 l 685 -3 q 638 -72 654 -43 q 622 -128 622 -101 q 641 -180 622 -158 q 696 -201 660 -201 q 724 -199 710 -201 q 760 -189 739 -196 l 776 -260 q 723 -278 749 -272 q 674 -283 697 -283 z "},"å":{"ha":776,"x_min":47,"x_max":685,"o":"m 322 -15 q 192 14 256 -15 q 88 99 129 43 q 47 235 47 154 q 72 343 47 300 q 140 413 97 386 q 234 450 182 439 q 340 461 286 461 q 451 451 399 461 q 547 417 504 440 l 547 442 q 493 550 547 518 q 350 582 439 582 q 222 567 285 582 q 96 517 158 553 l 96 639 q 215 678 146 660 q 365 697 283 697 q 526 667 454 697 q 642 578 599 638 q 685 429 685 518 l 685 -3 l 544 69 q 446 6 499 28 q 322 -15 393 -15 m 360 90 q 468 113 422 90 q 547 174 514 135 l 547 315 q 472 348 515 333 q 368 363 429 363 q 283 349 325 363 q 213 305 240 335 q 185 226 185 275 q 209 150 185 181 q 274 105 233 119 q 360 90 314 90 m 382 822 q 311 841 344 822 q 258 892 278 860 q 238 964 238 924 q 258 1038 238 1006 q 311 1090 278 1071 q 382 1108 344 1108 q 456 1089 422 1108 q 509 1037 489 1069 q 529 963 529 1004 q 509 890 529 922 q 456 840 489 858 q 382 822 422 822 m 383 894 q 436 915 417 894 q 456 964 456 935 q 435 1016 456 996 q 383 1036 415 1036 q 332 1015 353 1036 q 311 965 311 994 q 332 913 311 932 q 383 894 353 894 z "},"ã":{"ha":776,"x_min":47,"x_max":685,"o":"m 322 -15 q 192 14 256 -15 q 88 99 129 43 q 47 235 47 154 q 72 343 47 300 q 140 413 97 386 q 234 450 182 439 q 340 461 286 461 q 451 451 399 461 q 547 417 504 440 l 547 442 q 493 550 547 518 q 350 582 439 582 q 222 567 285 582 q 96 517 158 553 l 96 639 q 215 678 146 660 q 365 697 283 697 q 526 667 454 697 q 642 578 599 638 q 685 429 685 518 l 685 -3 l 544 69 q 446 6 499 28 q 322 -15 393 -15 m 360 90 q 468 113 422 90 q 547 174 514 135 l 547 315 q 472 348 515 333 q 368 363 429 363 q 283 349 325 363 q 213 305 240 335 q 185 226 185 275 q 209 150 185 181 q 274 105 233 119 q 360 90 314 90 m 249 840 l 163 856 q 221 969 183 926 q 315 1011 258 1011 q 378 999 349 1011 q 434 973 407 986 q 485 960 461 960 q 522 975 508 960 q 547 1022 536 990 l 632 1006 q 578 894 611 935 q 494 853 546 853 q 435 866 464 853 q 380 892 407 879 q 325 904 353 904 q 281 890 301 904 q 249 840 260 875 z "},"æ":{"ha":1258,"x_min":43,"x_max":1214,"o":"m 914 -17 q 760 12 833 -17 q 635 104 688 40 q 493 15 575 44 q 326 -15 411 -15 q 189 13 254 -15 q 83 95 124 40 q 43 229 43 150 q 68 335 43 292 q 135 407 93 379 q 230 448 178 435 q 335 461 282 461 q 447 451 394 461 q 542 417 499 440 l 542 442 q 488 550 542 518 q 344 582 433 582 q 213 566 279 582 q 90 517 147 550 l 90 639 q 206 678 139 660 q 351 696 274 696 q 454 683 400 696 q 556 645 508 671 q 633 579 604 619 q 738 667 675 635 q 882 700 800 700 q 1015 674 957 700 q 1115 601 1074 647 q 1182 493 1157 554 q 1214 364 1207 432 l 697 238 q 774 135 721 175 q 910 96 826 96 q 998 108 956 96 q 1079 142 1040 119 q 1150 197 1118 165 l 1150 61 q 1046 5 1106 26 q 914 -17 986 -17 m 354 90 q 463 113 417 90 q 542 174 508 135 l 542 315 q 467 348 510 333 q 364 363 424 363 q 277 349 319 363 q 207 305 235 335 q 179 226 179 275 q 203 150 179 181 q 268 105 228 119 q 354 90 308 90 m 683 349 l 1075 440 q 1008 544 1057 503 q 883 586 958 586 q 774 552 818 586 q 706 464 729 518 q 683 349 683 410 z "},"ǽ":{"ha":1258,"x_min":43,"x_max":1214,"o":"m 914 -17 q 760 12 833 -17 q 635 104 688 40 q 493 15 575 44 q 326 -15 411 -15 q 189 13 254 -15 q 83 95 124 40 q 43 229 43 150 q 68 335 43 292 q 135 407 93 379 q 230 448 178 435 q 335 461 282 461 q 447 451 394 461 q 542 417 499 440 l 542 442 q 488 550 542 518 q 344 582 433 582 q 213 566 279 582 q 90 517 147 550 l 90 639 q 206 678 139 660 q 351 696 274 696 q 454 683 400 696 q 556 645 508 671 q 633 579 604 619 q 738 667 675 635 q 882 700 800 700 q 1015 674 957 700 q 1115 601 1074 647 q 1182 493 1157 554 q 1214 364 1207 432 l 697 238 q 774 135 721 175 q 910 96 826 96 q 998 108 956 96 q 1079 142 1040 119 q 1150 197 1118 165 l 1150 61 q 1046 5 1106 26 q 914 -17 986 -17 m 354 90 q 463 113 417 90 q 542 174 508 135 l 542 315 q 467 348 510 333 q 364 363 424 363 q 277 349 319 363 q 207 305 235 335 q 179 226 179 275 q 203 150 179 181 q 268 105 228 119 q 354 90 308 90 m 683 349 l 1075 440 q 1008 544 1057 503 q 883 586 958 586 q 774 552 818 586 q 706 464 729 518 q 683 349 683 410 m 579 842 l 708 1057 l 861 1021 l 679 842 l 579 842 z "},"b":{"ha":858,"x_min":90,"x_max":811,"o":"m 479 -14 q 239 97 331 -14 l 90 -1 l 90 1017 l 229 1017 l 229 565 q 336 663 274 625 q 482 700 399 700 q 648 656 574 700 q 767 531 722 611 q 811 342 811 450 q 766 155 811 235 q 646 31 721 75 q 479 -14 571 -14 m 449 103 q 565 133 514 103 q 644 217 615 164 q 674 340 674 271 q 646 460 674 406 q 568 547 618 514 q 449 579 518 579 q 337 549 388 579 q 256 465 286 518 q 225 342 225 411 q 256 219 225 274 q 337 134 286 165 q 449 103 388 103 z "},"c":{"ha":654,"x_min":47,"x_max":593,"o":"m 394 -14 q 258 13 321 -14 q 147 88 194 40 q 74 201 100 136 q 47 340 47 265 q 92 519 47 438 q 217 649 136 600 q 403 697 297 697 q 501 685 451 697 q 586 647 550 674 l 586 497 q 503 559 549 538 q 406 581 458 581 q 293 550 343 581 q 215 467 243 519 q 186 347 186 415 q 216 226 186 282 q 297 138 246 171 q 410 104 347 104 q 510 126 464 104 q 593 188 557 149 l 593 42 q 503 2 553 18 q 394 -14 454 -14 z "},"ć":{"ha":664,"x_min":47,"x_max":618,"o":"m 394 -14 q 258 13 321 -14 q 147 88 194 40 q 74 201 100 136 q 47 340 47 265 q 92 519 47 438 q 217 649 136 600 q 403 697 297 697 q 501 685 451 697 q 586 647 550 674 l 586 497 q 503 559 549 538 q 406 581 458 581 q 293 550 343 581 q 215 467 243 519 q 186 347 186 415 q 216 226 186 282 q 297 138 246 171 q 410 104 347 104 q 510 126 464 104 q 593 188 557 149 l 593 42 q 503 2 553 18 q 394 -14 454 -14 m 336 856 l 465 1071 l 618 1035 l 436 856 l 336 856 z "},"č":{"ha":654,"x_min":47,"x_max":604,"o":"m 394 -14 q 258 13 321 -14 q 147 88 194 40 q 74 201 100 136 q 47 340 47 265 q 92 519 47 438 q 217 649 136 600 q 403 697 297 697 q 501 685 451 697 q 586 647 550 674 l 586 497 q 503 559 549 538 q 406 581 458 581 q 293 550 343 581 q 215 467 243 519 q 186 347 186 415 q 216 226 186 282 q 297 138 246 171 q 410 104 347 104 q 510 126 464 104 q 593 188 557 149 l 593 42 q 503 2 553 18 q 394 -14 454 -14 m 332 838 l 169 1047 l 285 1047 l 388 933 l 490 1047 l 604 1047 l 442 838 l 332 838 z "},"ç":{"ha":654,"x_min":47,"x_max":593,"o":"m 394 -14 q 258 13 321 -14 q 147 88 194 40 q 74 201 100 136 q 47 340 47 265 q 92 519 47 438 q 217 649 136 600 q 403 697 297 697 q 501 685 451 697 q 586 647 550 674 l 586 497 q 503 559 549 538 q 406 581 458 581 q 293 550 343 581 q 215 467 243 519 q 186 347 186 415 q 216 226 186 282 q 297 138 246 171 q 410 104 347 104 q 510 126 464 104 q 593 188 557 149 l 593 42 q 503 2 553 18 q 394 -14 454 -14 m 325 -312 q 262 -305 292 -312 q 204 -283 232 -297 l 224 -224 q 263 -235 244 -232 q 296 -239 281 -239 q 333 -233 313 -239 q 368 -215 353 -228 q 383 -179 383 -201 q 368 -148 383 -158 q 328 -137 353 -137 q 305 -140 315 -137 q 281 -149 294 -143 l 254 -128 l 340 0 l 432 0 l 374 -97 l 379 -97 q 431 -106 404 -97 q 475 -134 457 -114 q 493 -192 493 -154 q 466 -262 493 -236 q 400 -301 439 -289 q 325 -312 361 -312 z "},"ĉ":{"ha":654,"x_min":47,"x_max":593,"o":"m 394 -14 q 258 13 321 -14 q 147 88 194 40 q 74 201 100 136 q 47 340 47 265 q 92 519 47 438 q 217 649 136 600 q 403 697 297 697 q 501 685 451 697 q 586 647 550 674 l 586 497 q 503 559 549 538 q 406 581 458 581 q 293 550 343 581 q 215 467 243 519 q 186 347 186 415 q 216 226 186 282 q 297 138 246 171 q 410 104 347 104 q 510 126 464 104 q 593 188 557 149 l 593 42 q 503 2 553 18 q 394 -14 454 -14 m 175 865 l 331 1072 l 439 1072 l 593 865 l 488 865 l 383 975 l 282 865 l 175 865 z "},"ċ":{"ha":617,"x_min":44,"x_max":590,"o":"m 392 -14 q 255 13 318 -14 q 144 88 192 40 q 71 201 97 136 q 44 340 44 265 q 89 519 44 438 q 214 649 133 600 q 400 697 294 697 q 498 685 449 697 q 583 647 547 674 l 583 497 q 501 559 546 538 q 403 581 456 581 q 290 550 340 581 q 212 467 240 519 q 183 347 183 415 q 213 226 183 282 q 294 138 243 171 q 407 104 344 104 q 508 126 461 104 q 590 188 554 149 l 590 42 q 501 2 550 18 q 392 -14 451 -14 m 376 851 q 310 878 338 851 q 282 943 282 904 q 309 1009 282 983 q 376 1035 336 1035 q 444 1010 417 1035 q 471 943 471 985 q 444 878 471 904 q 376 851 417 851 z "},"d":{"ha":858,"x_min":47,"x_max":767,"o":"m 379 -14 q 213 30 289 -14 q 92 153 138 74 q 47 342 47 233 q 92 531 47 451 q 213 656 138 611 q 376 700 288 700 q 524 665 461 700 q 628 571 586 629 l 628 1017 l 767 1017 l 767 -1 l 617 106 q 517 19 572 53 q 379 -14 461 -14 m 404 104 q 518 135 467 104 q 601 219 569 165 q 632 343 632 274 q 600 466 632 413 q 517 551 568 519 q 404 582 465 582 q 296 552 346 582 q 216 469 246 522 q 186 343 186 415 q 213 226 186 281 q 288 138 239 171 q 404 104 336 104 z "},"ď":{"ha":858,"x_min":47,"x_max":983,"o":"m 379 -14 q 213 30 289 -14 q 92 153 138 74 q 47 342 47 233 q 92 531 47 451 q 213 656 138 611 q 376 700 288 700 q 524 665 461 700 q 628 571 586 629 l 628 1017 l 767 1017 l 767 -1 l 617 106 q 517 19 572 53 q 379 -14 461 -14 m 404 104 q 518 135 467 104 q 601 219 569 165 q 632 343 632 274 q 600 466 632 413 q 517 551 568 519 q 404 582 465 582 q 296 552 346 582 q 216 469 246 522 q 186 343 186 415 q 213 226 186 281 q 288 138 239 171 q 404 104 336 104 m 815 821 l 858 1069 l 983 1069 l 911 821 l 815 821 z "},"đ":{"ha":832,"x_min":47,"x_max":839,"o":"m 379 -14 q 213 30 289 -14 q 92 153 138 74 q 47 342 47 233 q 92 531 47 451 q 213 656 138 611 q 376 700 288 700 q 524 665 461 700 q 628 571 586 629 l 628 1017 l 767 1017 l 767 -1 l 617 106 q 517 19 572 53 q 379 -14 463 -14 m 404 104 q 519 135 467 104 q 601 219 571 165 q 632 343 632 274 q 600 466 632 413 q 517 551 568 519 q 404 582 465 582 q 297 552 346 582 q 217 469 247 522 q 188 343 188 415 q 214 226 188 281 q 289 138 240 172 q 404 104 338 104 m 450 801 l 450 929 l 839 929 l 839 801 l 450 801 z "},"ð":{"ha":754,"x_min":47,"x_max":707,"o":"m 378 -15 q 251 9 311 -15 q 146 77 192 33 q 74 180 100 121 q 47 310 47 239 q 88 469 47 396 q 200 588 129 543 q 363 633 271 633 q 452 619 415 633 q 513 588 489 606 q 550 560 538 571 q 464 714 518 644 q 343 846 410 783 l 174 735 l 117 793 l 283 901 q 228 947 264 919 q 128 1015 193 974 l 204 1083 q 273 1041 246 1060 q 324 1004 300 1022 q 376 960 347 986 l 551 1074 l 607 1017 l 438 906 q 513 824 468 875 q 603 702 558 774 q 677 540 647 631 q 707 340 707 450 q 677 178 707 246 q 598 68 647 111 q 491 5 549 25 q 378 -15 433 -15 m 381 121 q 474 147 433 121 q 537 216 514 172 q 560 313 560 260 q 537 407 560 364 q 473 476 514 450 q 378 501 432 501 q 285 476 326 501 q 221 409 244 451 q 197 314 197 367 q 221 217 197 261 q 285 147 244 174 q 381 121 326 121 z "},"e":{"ha":758,"x_min":47,"x_max":713,"o":"m 403 -17 q 221 29 301 -17 q 94 156 140 75 q 47 339 47 236 q 89 523 47 442 q 206 652 131 604 q 381 700 282 700 q 514 674 456 700 q 614 601 572 647 q 681 493 656 554 q 713 364 706 432 l 196 238 q 272 135 219 175 q 408 96 325 96 q 497 108 454 96 q 578 142 539 119 q 649 197 617 165 l 649 61 q 539 5 603 26 q 403 -17 475 -17 m 186 340 l 572 440 q 506 544 556 503 q 381 586 456 586 q 271 551 315 586 q 204 463 226 517 q 182 350 182 410 l 186 340 z "},"é":{"ha":758,"x_min":47,"x_max":713,"o":"m 403 -17 q 221 29 301 -17 q 94 156 140 75 q 47 339 47 236 q 89 523 47 442 q 206 652 131 604 q 381 700 282 700 q 514 674 456 700 q 614 601 572 647 q 681 493 656 554 q 713 364 706 432 l 196 238 q 272 135 219 175 q 408 96 325 96 q 497 108 454 96 q 578 142 539 119 q 649 197 617 165 l 649 61 q 539 5 603 26 q 403 -17 475 -17 m 186 340 l 572 440 q 506 544 556 503 q 381 586 456 586 q 271 551 315 586 q 204 463 226 517 q 182 350 182 410 l 186 340 m 326 856 l 456 1071 l 608 1035 l 426 856 l 326 856 z "},"ĕ":{"ha":758,"x_min":47,"x_max":713,"o":"m 403 -17 q 221 29 301 -17 q 94 156 140 75 q 47 339 47 236 q 89 523 47 442 q 206 652 131 604 q 381 700 282 700 q 514 674 456 700 q 614 601 572 647 q 681 493 656 554 q 713 364 706 432 l 196 238 q 272 135 219 175 q 408 96 325 96 q 497 108 454 96 q 578 142 539 119 q 649 197 617 165 l 649 61 q 539 5 603 26 q 403 -17 475 -17 m 186 340 l 572 440 q 506 544 556 503 q 381 586 456 586 q 271 551 315 586 q 204 463 226 517 q 182 350 182 410 l 186 340 m 393 829 q 290 855 335 829 q 218 926 246 881 q 182 1033 190 972 l 269 1033 q 315 959 282 985 q 397 933 349 933 q 476 959 444 933 q 521 1033 508 985 l 607 1033 q 573 926 601 972 q 498 855 544 881 q 393 829 451 829 z "},"ě":{"ha":758,"x_min":47,"x_max":713,"o":"m 403 -17 q 221 29 301 -17 q 94 156 140 75 q 47 339 47 236 q 89 523 47 442 q 206 652 131 604 q 381 700 282 700 q 514 674 456 700 q 614 601 572 647 q 681 493 656 554 q 713 364 706 432 l 196 238 q 272 135 219 175 q 408 96 325 96 q 497 108 454 96 q 578 142 539 119 q 649 197 617 165 l 649 61 q 539 5 603 26 q 403 -17 475 -17 m 186 340 l 572 440 q 506 544 556 503 q 381 586 456 586 q 271 551 315 586 q 204 463 226 517 q 182 350 182 410 l 186 340 m 328 838 l 165 1047 l 281 1047 l 383 933 l 486 1047 l 600 1047 l 438 838 l 328 838 z "},"ê":{"ha":758,"x_min":47,"x_max":713,"o":"m 403 -17 q 221 29 301 -17 q 94 156 140 75 q 47 339 47 236 q 89 523 47 442 q 206 652 131 604 q 381 700 282 700 q 514 674 456 700 q 614 601 572 647 q 681 493 656 554 q 713 364 706 432 l 196 238 q 272 135 219 175 q 408 96 325 96 q 497 108 454 96 q 578 142 539 119 q 649 197 617 165 l 649 61 q 539 5 603 26 q 403 -17 475 -17 m 186 340 l 572 440 q 506 544 556 503 q 381 586 456 586 q 271 551 315 586 q 204 463 226 517 q 182 350 182 410 l 186 340 m 192 865 l 347 1072 l 456 1072 l 610 865 l 504 865 l 400 975 l 299 865 l 192 865 z "},"ë":{"ha":758,"x_min":47,"x_max":713,"o":"m 403 -17 q 221 29 301 -17 q 94 156 140 75 q 47 339 47 236 q 89 523 47 442 q 206 652 131 604 q 381 700 282 700 q 514 674 456 700 q 614 601 572 647 q 681 493 656 554 q 713 364 706 432 l 196 238 q 272 135 219 175 q 408 96 325 96 q 497 108 454 96 q 578 142 539 119 q 649 197 617 165 l 649 61 q 539 5 603 26 q 403 -17 475 -17 m 186 340 l 572 440 q 506 544 556 503 q 381 586 456 586 q 271 551 315 586 q 204 463 226 517 q 182 350 182 410 l 186 340 m 265 869 q 206 893 229 869 q 183 951 183 917 q 207 1010 183 986 q 265 1033 231 1033 q 324 1009 299 1033 q 349 951 349 985 q 324 893 349 917 q 265 869 299 869 m 529 869 q 473 893 496 869 q 450 951 450 917 q 473 1009 450 985 q 529 1033 496 1033 q 588 1009 565 1033 q 611 951 611 985 q 588 893 611 917 q 529 869 565 869 z "},"ė":{"ha":758,"x_min":47,"x_max":713,"o":"m 403 -17 q 221 29 301 -17 q 94 156 140 75 q 47 339 47 236 q 89 523 47 442 q 206 652 131 604 q 381 700 282 700 q 514 674 456 700 q 614 601 572 647 q 681 493 656 554 q 713 364 706 432 l 196 238 q 272 135 219 175 q 408 96 325 96 q 497 108 454 96 q 578 142 539 119 q 649 197 617 165 l 649 61 q 539 5 603 26 q 403 -17 475 -17 m 186 340 l 572 440 q 506 544 556 503 q 381 586 456 586 q 271 551 315 586 q 204 463 226 517 q 182 350 182 410 l 186 340 m 401 851 q 335 878 363 851 q 307 943 307 904 q 334 1009 307 983 q 401 1035 361 1035 q 469 1010 442 1035 q 496 943 496 985 q 469 878 496 904 q 401 851 442 851 z "},"è":{"ha":758,"x_min":47,"x_max":713,"o":"m 403 -17 q 221 29 301 -17 q 94 156 140 75 q 47 339 47 236 q 89 523 47 442 q 206 652 131 604 q 381 700 282 700 q 514 674 456 700 q 614 601 572 647 q 681 493 656 554 q 713 364 706 432 l 196 238 q 272 135 219 175 q 408 96 325 96 q 497 108 454 96 q 578 142 539 119 q 649 197 617 165 l 649 61 q 539 5 603 26 q 403 -17 475 -17 m 186 340 l 572 440 q 506 544 556 503 q 381 586 456 586 q 271 551 315 586 q 204 463 226 517 q 182 350 182 410 l 186 340 m 329 856 l 149 1035 l 299 1071 l 433 856 l 329 856 z "},"ē":{"ha":758,"x_min":47,"x_max":713,"o":"m 403 -17 q 221 29 301 -17 q 94 156 140 75 q 47 339 47 236 q 89 523 47 442 q 206 652 131 604 q 381 700 282 700 q 514 674 456 700 q 614 601 572 647 q 681 493 656 554 q 713 364 706 432 l 196 238 q 272 135 219 175 q 408 96 325 96 q 497 108 454 96 q 578 142 539 119 q 649 197 617 165 l 649 61 q 539 5 603 26 q 403 -17 475 -17 m 186 340 l 572 440 q 506 544 556 503 q 381 586 456 586 q 271 551 315 586 q 204 463 226 517 q 182 350 182 410 l 186 340 m 172 842 l 172 935 l 607 935 l 607 842 l 172 842 z "},"ę":{"ha":758,"x_min":47,"x_max":713,"o":"m 403 -17 q 221 29 301 -17 q 94 156 140 75 q 47 339 47 236 q 89 523 47 442 q 206 652 131 604 q 381 700 282 700 q 514 674 456 700 q 614 601 572 647 q 681 493 656 554 q 713 364 706 432 l 196 238 q 272 135 219 175 q 408 96 325 96 q 497 108 454 96 q 578 142 539 119 q 649 197 617 165 l 649 61 q 539 5 603 26 q 403 -17 475 -17 m 186 340 l 572 440 q 506 544 556 503 q 381 586 456 586 q 271 551 315 586 q 204 463 226 517 q 182 350 182 410 l 186 340 m 564 -282 q 451 -247 496 -282 q 406 -149 406 -212 q 426 -66 406 -104 q 476 1 447 -28 l 650 63 q 565 -22 594 14 q 524 -83 535 -57 q 513 -129 513 -108 q 533 -181 513 -161 q 586 -200 553 -200 q 615 -197 600 -200 q 650 -187 629 -194 l 667 -258 q 613 -276 639 -271 q 564 -282 588 -282 z "},"f":{"ha":465,"x_min":15,"x_max":471,"o":"m 149 0 l 149 568 l 15 568 l 149 685 l 149 772 q 209 964 149 906 q 372 1022 269 1022 q 427 1018 403 1022 q 471 1007 451 1014 l 471 897 q 432 908 451 904 q 393 913 413 913 q 305 876 333 913 q 276 767 276 839 l 276 682 l 451 682 l 451 568 l 283 568 l 283 0 l 149 0 z "},"g":{"ha":865,"x_min":53,"x_max":774,"o":"m 383 -262 q 229 -243 299 -262 q 104 -193 160 -224 l 104 -54 q 187 -105 143 -83 q 280 -138 231 -126 q 383 -150 329 -150 q 572 -94 507 -150 q 636 89 636 -37 l 636 164 q 526 69 588 104 q 381 33 465 33 q 215 76 289 33 q 97 192 140 118 q 53 363 53 267 q 98 540 53 464 q 217 658 143 615 q 381 700 292 700 q 522 669 464 700 q 622 588 579 638 l 774 683 l 774 96 q 724 -102 774 -22 q 586 -222 674 -182 q 383 -262 499 -262 m 413 149 q 526 176 475 149 q 606 253 576 204 q 636 365 636 303 q 606 480 636 431 q 526 557 576 529 q 411 585 475 585 q 299 557 349 585 q 222 481 250 529 q 194 368 194 432 q 222 257 194 307 q 299 178 250 207 q 413 149 349 149 z "},"ğ":{"ha":865,"x_min":53,"x_max":774,"o":"m 383 -262 q 229 -243 299 -262 q 104 -193 160 -224 l 104 -54 q 187 -105 143 -83 q 280 -138 231 -126 q 383 -150 329 -150 q 572 -94 507 -150 q 636 89 636 -37 l 636 164 q 526 69 588 104 q 381 33 465 33 q 215 76 289 33 q 97 192 140 118 q 53 363 53 267 q 98 540 53 464 q 217 658 143 615 q 381 700 292 700 q 522 669 464 700 q 622 588 579 638 l 774 683 l 774 96 q 724 -102 774 -22 q 586 -222 674 -182 q 383 -262 499 -262 m 413 149 q 526 176 475 149 q 606 253 576 204 q 636 365 636 303 q 606 480 636 431 q 526 557 576 529 q 411 585 475 585 q 299 557 349 585 q 222 481 250 529 q 194 368 194 432 q 222 257 194 307 q 299 178 250 207 q 413 149 349 149 m 438 829 q 335 855 379 829 q 263 926 290 881 q 226 1033 235 972 l 314 1033 q 360 959 326 985 q 442 933 393 933 q 521 959 489 933 q 565 1033 553 985 l 651 1033 q 617 926 646 972 q 542 855 589 881 q 438 829 496 829 z "},"ĝ":{"ha":865,"x_min":53,"x_max":774,"o":"m 383 -262 q 229 -243 299 -262 q 104 -193 160 -224 l 104 -54 q 187 -105 143 -83 q 280 -138 231 -126 q 383 -150 329 -150 q 572 -94 507 -150 q 636 89 636 -37 l 636 164 q 526 69 588 104 q 381 33 465 33 q 215 76 289 33 q 97 192 140 118 q 53 363 53 267 q 98 540 53 464 q 217 658 143 615 q 381 700 292 700 q 522 669 464 700 q 622 588 579 638 l 774 683 l 774 96 q 724 -102 774 -22 q 586 -222 674 -182 q 383 -262 499 -262 m 413 149 q 526 176 475 149 q 606 253 576 204 q 636 365 636 303 q 606 480 636 431 q 526 557 576 529 q 411 585 475 585 q 299 557 349 585 q 222 481 250 529 q 194 368 194 432 q 222 257 194 307 q 299 178 250 207 q 413 149 349 149 m 215 865 l 371 1072 l 479 1072 l 633 865 l 528 865 l 424 975 l 322 865 l 215 865 z "},"ģ":{"ha":871,"x_min":53,"x_max":774,"o":"m 383 -262 q 229 -243 299 -262 q 104 -193 160 -224 l 104 -54 q 187 -105 143 -83 q 280 -138 231 -126 q 383 -150 329 -150 q 572 -94 507 -150 q 636 89 636 -37 l 636 164 q 526 69 588 104 q 381 33 465 33 q 215 76 289 33 q 97 192 140 118 q 53 363 53 267 q 98 540 53 464 q 217 658 143 615 q 381 700 292 700 q 522 669 464 700 q 622 588 579 638 l 774 683 l 774 96 q 724 -102 774 -22 q 586 -222 674 -182 q 383 -262 499 -262 m 413 149 q 526 176 475 149 q 606 253 576 204 q 636 365 636 303 q 606 480 636 431 q 526 557 576 529 q 411 585 475 585 q 299 557 349 585 q 222 481 250 529 q 194 368 194 432 q 222 257 194 307 q 299 178 250 207 q 413 149 349 149 m 365 799 l 461 1076 l 568 1076 l 507 799 l 365 799 z "},"ġ":{"ha":839,"x_min":44,"x_max":765,"o":"m 375 -262 q 221 -243 290 -262 q 96 -193 151 -224 l 96 -54 q 178 -105 135 -83 q 272 -138 222 -126 q 375 -150 321 -150 q 563 -94 499 -150 q 628 89 628 -37 l 628 164 q 518 69 579 104 q 372 33 457 33 q 206 76 281 33 q 88 192 132 118 q 44 363 44 267 q 90 540 44 464 q 209 658 135 615 q 372 700 283 700 q 513 669 456 700 q 614 588 571 638 l 765 683 l 765 96 q 715 -102 765 -22 q 578 -222 665 -182 q 375 -262 490 -262 m 404 149 q 517 176 467 149 q 598 253 568 204 q 628 365 628 303 q 598 480 628 431 q 517 557 568 529 q 403 585 467 585 q 291 557 340 585 q 214 481 242 529 q 186 368 186 432 q 214 257 186 307 q 291 178 242 207 q 404 149 340 149 m 426 851 q 360 878 388 851 q 332 943 332 904 q 359 1009 332 983 q 426 1035 386 1035 q 494 1010 467 1035 q 521 943 521 985 q 494 878 521 904 q 426 851 467 851 z "},"h":{"ha":775,"x_min":89,"x_max":693,"o":"m 89 0 l 89 1017 l 219 1017 l 219 590 q 315 667 256 635 q 451 699 374 699 q 587 667 533 699 q 667 575 640 635 q 693 433 693 515 l 693 0 l 554 0 l 554 392 q 517 522 554 479 q 408 565 481 565 q 321 547 363 565 q 253 489 279 528 q 228 392 228 450 l 228 0 l 89 0 z "},"ħ":{"ha":771,"x_min":0,"x_max":690,"o":"m 86 0 l 86 1017 l 217 1017 l 217 590 q 312 667 253 635 q 449 699 371 699 q 584 667 531 699 q 664 575 638 635 q 690 433 690 515 l 690 0 l 551 0 l 551 392 q 515 522 551 479 q 406 565 478 565 q 318 547 360 565 q 251 489 276 528 q 225 392 225 450 l 225 0 l 86 0 m 0 842 l 0 935 l 435 935 l 435 842 l 0 842 z "},"ĥ":{"ha":778,"x_min":-49,"x_max":696,"o":"m 92 0 l 92 1017 l 222 1017 l 222 590 q 317 667 258 635 q 454 699 376 699 q 590 667 536 699 q 669 575 643 635 q 696 433 696 515 l 696 0 l 557 0 l 557 392 q 520 522 557 479 q 411 565 483 565 q 324 547 365 565 q 256 489 282 528 q 231 392 231 450 l 231 0 l 92 0 m -49 1132 l 107 1339 l 215 1339 l 369 1132 l 264 1132 l 160 1242 l 58 1132 l -49 1132 z "},"i":{"ha":332,"x_min":71,"x_max":260,"o":"m 97 0 l 97 683 l 235 683 l 235 0 l 97 0 m 164 806 q 99 831 126 806 q 71 896 71 857 q 97 963 71 936 q 164 989 124 989 q 233 964 206 989 q 260 896 260 939 q 233 831 260 857 q 164 806 206 806 z "},"ı":{"ha":319,"x_min":89,"x_max":228,"o":"m 89 0 l 89 683 l 228 683 l 228 0 l 89 0 z "},"í":{"ha":307,"x_min":47,"x_max":343,"o":"m 47 0 l 47 683 l 186 683 l 186 0 l 47 0 m 61 856 l 190 1071 l 343 1035 l 161 856 l 61 856 z "},"ĭ":{"ha":319,"x_min":-53,"x_max":372,"o":"m 89 0 l 89 683 l 228 683 l 228 0 l 89 0 m 158 829 q 56 855 100 829 q -17 926 11 881 q -53 1033 -44 972 l 35 1033 q 81 959 47 985 q 163 933 114 933 q 242 959 210 933 q 286 1033 274 985 l 372 1033 q 338 926 367 972 q 263 855 310 881 q 158 829 217 829 z "},"î":{"ha":319,"x_min":-50,"x_max":368,"o":"m 89 0 l 89 683 l 228 683 l 228 0 l 89 0 m -50 865 l 106 1072 l 214 1072 l 368 865 l 263 865 l 158 975 l 57 865 l -50 865 z "},"ï":{"ha":340,"x_min":-44,"x_max":383,"o":"m 99 0 l 99 683 l 238 683 l 238 0 l 99 0 m 38 869 q -22 893 1 869 q -44 951 -44 917 q -21 1010 -44 986 q 38 1033 3 1033 q 96 1009 71 1033 q 121 951 121 985 q 96 893 121 917 q 38 869 71 869 m 301 869 q 245 893 268 869 q 222 951 222 917 q 245 1009 222 985 q 301 1033 268 1033 q 360 1009 338 1033 q 383 951 383 985 q 360 893 383 917 q 301 869 338 869 z "},"ì":{"ha":304,"x_min":-78,"x_max":215,"o":"m 76 0 l 76 683 l 215 683 l 215 0 l 76 0 m 103 856 l -78 1035 l 72 1071 l 207 856 l 103 856 z "},"ī":{"ha":319,"x_min":-58,"x_max":376,"o":"m 89 0 l 89 683 l 228 683 l 228 0 l 89 0 m -58 842 l -58 935 l 376 935 l 376 842 l -58 842 z "},"į":{"ha":332,"x_min":65,"x_max":326,"o":"m 97 0 l 97 683 l 235 683 l 235 0 l 97 0 m 164 806 q 99 831 126 806 q 71 896 71 857 q 97 963 71 936 q 164 989 124 989 q 233 964 206 989 q 260 896 260 939 q 233 831 260 857 q 164 806 206 806 m 224 -283 q 110 -249 156 -283 q 65 -150 65 -214 q 88 -69 65 -107 q 136 0 111 -32 l 235 0 q 188 -73 204 -44 q 172 -132 172 -101 q 192 -182 172 -162 q 246 -201 213 -201 q 274 -199 260 -201 q 310 -189 289 -196 l 326 -260 q 273 -278 299 -272 q 224 -283 247 -283 z "},"ĩ":{"ha":319,"x_min":-75,"x_max":394,"o":"m 89 0 l 89 683 l 228 683 l 228 0 l 89 0 m 11 840 l -75 856 q -17 969 -54 926 q 78 1011 21 1011 q 140 999 111 1011 q 197 973 169 986 q 247 960 224 960 q 285 975 271 960 q 310 1022 299 990 l 394 1006 q 341 894 374 935 q 257 853 308 853 q 198 866 226 853 q 142 892 169 879 q 88 904 115 904 q 43 890 64 904 q 11 840 22 875 z "},"ĳ":{"ha":631,"x_min":71,"x_max":558,"o":"m 97 0 l 97 683 l 235 683 l 235 0 l 97 0 m 164 806 q 99 831 126 806 q 71 896 71 857 q 97 963 71 936 q 164 989 124 989 q 233 964 206 989 q 260 896 260 939 q 233 831 260 857 q 164 806 206 806 m 361 -262 q 320 -260 338 -262 q 286 -253 303 -257 l 286 -143 q 309 -149 297 -147 q 332 -151 321 -151 q 387 -126 374 -151 q 400 -64 400 -100 l 400 683 l 538 683 l 538 -37 q 524 -153 538 -103 q 472 -233 510 -204 q 361 -262 435 -262 m 464 806 q 397 831 424 806 q 369 896 369 857 q 397 963 369 938 q 464 989 424 989 q 530 964 501 989 q 558 896 558 939 q 530 831 558 857 q 464 806 501 806 z "},"j":{"ha":415,"x_min":71,"x_max":343,"o":"m 146 -262 q 105 -260 122 -262 q 71 -253 88 -257 l 71 -143 q 94 -149 82 -147 q 117 -151 106 -151 q 172 -126 158 -151 q 185 -64 185 -100 l 185 683 l 322 683 l 322 -37 q 308 -153 322 -103 q 257 -233 294 -204 q 146 -262 219 -262 m 249 806 q 181 831 208 806 q 154 896 154 857 q 181 963 154 938 q 249 989 208 989 q 315 964 286 989 q 343 896 343 939 q 315 831 343 857 q 249 806 286 806 z "},"ȷ":{"ha":275,"x_min":-36,"x_max":217,"o":"m 40 -262 q -1 -260 17 -262 q -36 -253 -18 -257 l -36 -143 q -12 -149 -24 -147 q 11 -151 0 -151 q 66 -126 53 -151 q 79 -64 79 -100 l 79 683 l 217 683 l 217 -37 q 203 -153 217 -103 q 151 -233 189 -204 q 40 -262 114 -262 z "},"ĵ":{"ha":275,"x_min":-62,"x_max":356,"o":"m 40 -262 q -1 -260 17 -262 q -36 -253 -18 -257 l -36 -143 q -12 -149 -24 -147 q 11 -151 0 -151 q 66 -126 53 -151 q 79 -64 79 -100 l 79 683 l 217 683 l 217 -37 q 203 -153 217 -103 q 151 -233 189 -204 q 40 -262 114 -262 m -62 865 l 93 1072 l 201 1072 l 356 865 l 250 865 l 146 975 l 44 865 l -62 865 z "},"k":{"ha":658,"x_min":89,"x_max":658,"o":"m 89 0 l 89 1017 l 228 1017 l 228 408 l 475 683 l 647 683 l 350 369 l 658 0 l 493 0 l 228 315 l 228 0 l 89 0 z "},"ķ":{"ha":658,"x_min":89,"x_max":658,"o":"m 89 0 l 89 1017 l 228 1017 l 228 408 l 475 683 l 647 683 l 350 369 l 658 0 l 493 0 l 228 315 l 228 0 l 89 0 m 238 -329 l 281 -81 l 406 -81 l 335 -329 l 238 -329 z "},"ĸ":{"ha":667,"x_min":89,"x_max":658,"o":"m 89 0 l 89 683 l 228 683 l 228 408 l 475 683 l 647 683 l 350 369 l 658 0 l 493 0 l 228 315 l 228 0 l 89 0 z "},"l":{"ha":319,"x_min":89,"x_max":228,"o":"m 89 0 l 89 1017 l 228 1017 l 228 0 l 89 0 z "},"ĺ":{"ha":353,"x_min":106,"x_max":404,"o":"m 106 0 l 106 978 l 249 978 l 249 0 l 106 0 m 122 1071 l 251 1286 l 404 1250 l 222 1071 l 122 1071 z "},"ľ":{"ha":319,"x_min":89,"x_max":474,"o":"m 89 0 l 89 1017 l 228 1017 l 228 0 l 89 0 m 306 821 l 349 1069 l 474 1069 l 401 821 l 306 821 z "},"ļ":{"ha":353,"x_min":69,"x_max":249,"o":"m 106 0 l 106 978 l 249 978 l 249 0 l 106 0 m 69 -329 l 113 -81 l 238 -81 l 167 -329 l 69 -329 z "},"ŀ":{"ha":460,"x_min":89,"x_max":499,"o":"m 89 0 l 89 1017 l 228 1017 l 228 0 l 89 0 m 404 407 q 338 433 365 407 q 310 499 310 460 q 337 565 310 539 q 404 590 364 590 q 472 565 444 590 q 499 499 499 540 q 472 433 499 460 q 404 407 444 407 z "},"ł":{"ha":457,"x_min":49,"x_max":408,"o":"m 49 292 l 49 417 l 408 694 l 408 569 l 49 292 m 161 0 l 161 1017 l 300 1017 l 300 0 l 161 0 z "},"m":{"ha":1193,"x_min":89,"x_max":1113,"o":"m 89 0 l 89 682 l 225 599 q 319 674 263 650 q 438 699 375 699 q 560 670 506 699 q 643 575 615 642 q 740 667 679 635 q 876 699 800 699 q 1009 664 957 699 q 1087 569 1061 629 q 1113 435 1113 510 l 1113 0 l 974 0 l 974 392 q 935 533 974 489 q 831 576 897 576 q 742 551 778 576 q 688 483 706 525 q 669 392 669 442 l 669 0 l 531 0 l 531 392 q 499 524 531 471 q 389 576 467 576 q 301 551 338 576 q 247 485 265 526 q 228 392 228 443 l 228 0 l 89 0 z "},"n":{"ha":775,"x_min":89,"x_max":693,"o":"m 89 0 l 89 683 l 231 594 q 322 669 268 640 q 449 699 376 699 q 583 666 529 699 q 665 574 638 633 q 693 433 693 514 l 693 0 l 554 0 l 554 392 q 531 501 554 461 q 473 559 508 542 q 400 576 438 576 q 324 560 364 576 q 256 503 283 543 q 228 392 228 463 l 228 0 l 89 0 z "},"ń":{"ha":775,"x_min":89,"x_max":693,"o":"m 89 0 l 89 683 l 231 594 q 322 669 268 640 q 449 699 376 699 q 583 666 529 699 q 665 574 638 633 q 693 433 693 514 l 693 0 l 554 0 l 554 392 q 531 501 554 461 q 473 559 508 542 q 400 576 438 576 q 324 560 364 576 q 256 503 283 543 q 228 392 228 463 l 228 0 l 89 0 m 351 856 l 481 1071 l 633 1035 l 451 856 l 351 856 z "},"ň":{"ha":775,"x_min":89,"x_max":693,"o":"m 89 0 l 89 683 l 231 594 q 322 669 268 640 q 449 699 376 699 q 583 666 529 699 q 665 574 638 633 q 693 433 693 514 l 693 0 l 554 0 l 554 392 q 531 501 554 461 q 473 559 508 542 q 400 576 438 576 q 324 560 364 576 q 256 503 283 543 q 228 392 228 463 l 228 0 l 89 0 m 349 838 l 186 1047 l 301 1047 l 404 933 l 507 1047 l 621 1047 l 458 838 l 349 838 z "},"ņ":{"ha":797,"x_min":96,"x_max":700,"o":"m 96 0 l 96 683 l 238 594 q 329 669 275 640 q 456 699 383 699 q 590 666 536 699 q 672 574 644 633 q 700 433 700 514 l 700 0 l 561 0 l 561 392 q 538 501 561 461 q 480 559 515 542 q 407 576 444 576 q 331 560 371 576 q 263 503 290 543 q 235 392 235 463 l 235 0 l 96 0 m 296 -329 l 339 -81 l 464 -81 l 393 -329 l 296 -329 z "},"ñ":{"ha":775,"x_min":89,"x_max":693,"o":"m 89 0 l 89 683 l 231 594 q 322 669 268 640 q 449 699 376 699 q 583 666 529 699 q 665 574 638 633 q 693 433 693 514 l 693 0 l 554 0 l 554 392 q 531 501 554 461 q 473 559 508 542 q 400 576 438 576 q 324 560 364 576 q 256 503 283 543 q 228 392 228 463 l 228 0 l 89 0 m 253 840 l 167 856 q 225 969 188 926 q 319 1011 263 1011 q 382 999 353 1011 q 438 973 411 986 q 489 960 465 960 q 526 975 513 960 q 551 1022 540 990 l 636 1006 q 583 894 615 935 q 499 853 550 853 q 440 866 468 853 q 384 892 411 879 q 329 904 357 904 q 285 890 306 904 q 253 840 264 875 z "},"ŋ":{"ha":775,"x_min":89,"x_max":693,"o":"m 515 -262 q 474 -260 492 -262 q 439 -253 456 -257 l 439 -143 q 463 -149 451 -147 q 486 -151 475 -151 q 541 -126 528 -151 q 554 -64 554 -100 l 554 392 q 531 501 554 461 q 473 559 508 542 q 400 576 438 576 q 324 560 364 576 q 256 503 283 543 q 228 392 228 463 l 228 0 l 89 0 l 89 683 l 231 594 q 322 669 268 640 q 449 699 376 699 q 578 668 524 699 q 663 578 633 638 q 693 433 693 519 l 693 -37 q 678 -153 693 -103 q 626 -233 664 -204 q 515 -262 588 -262 z "},"o":{"ha":831,"x_min":47,"x_max":783,"o":"m 413 -15 q 224 32 307 -15 q 94 160 142 79 q 47 340 47 242 q 74 481 47 415 q 151 595 101 546 q 267 672 200 644 q 414 700 335 700 q 604 652 521 700 q 735 524 688 604 q 783 343 783 443 q 755 201 783 267 q 675 88 726 136 q 557 12 624 39 q 413 -15 490 -15 m 414 103 q 533 136 481 103 q 615 224 585 169 q 644 342 644 278 q 615 462 644 407 q 534 550 586 517 q 413 583 482 583 q 293 551 344 583 q 214 464 242 518 q 186 343 186 410 q 216 221 186 275 q 298 135 246 167 q 414 103 350 103 z "},"ó":{"ha":831,"x_min":47,"x_max":783,"o":"m 413 -15 q 224 32 307 -15 q 94 160 142 79 q 47 340 47 242 q 74 481 47 415 q 151 595 101 546 q 267 672 200 644 q 414 700 335 700 q 604 652 521 700 q 735 524 688 604 q 783 343 783 443 q 755 201 783 267 q 675 88 726 136 q 557 12 624 39 q 413 -15 490 -15 m 414 103 q 533 136 481 103 q 615 224 585 169 q 644 342 644 278 q 615 462 644 407 q 534 550 586 517 q 413 583 482 583 q 293 551 344 583 q 214 464 242 518 q 186 343 186 410 q 216 221 186 275 q 298 135 246 167 q 414 103 350 103 m 367 856 l 496 1071 l 649 1035 l 467 856 l 367 856 z "},"ŏ":{"ha":831,"x_min":47,"x_max":783,"o":"m 413 -15 q 224 32 307 -15 q 94 160 142 79 q 47 340 47 242 q 74 481 47 415 q 151 595 101 546 q 267 672 200 644 q 414 700 335 700 q 604 652 521 700 q 735 524 688 604 q 783 343 783 443 q 755 201 783 267 q 675 88 726 136 q 557 12 624 39 q 413 -15 490 -15 m 414 103 q 533 136 481 103 q 615 224 585 169 q 644 342 644 278 q 615 462 644 407 q 534 550 586 517 q 413 583 482 583 q 293 551 344 583 q 214 464 242 518 q 186 343 186 410 q 216 221 186 275 q 298 135 246 167 q 414 103 350 103 m 417 829 q 314 855 358 829 q 242 926 269 881 q 206 1033 214 972 l 293 1033 q 339 959 306 985 q 421 933 372 933 q 500 959 468 933 q 544 1033 532 985 l 631 1033 q 597 926 625 972 q 522 855 568 881 q 417 829 475 829 z "},"ô":{"ha":831,"x_min":47,"x_max":783,"o":"m 413 -15 q 224 32 307 -15 q 94 160 142 79 q 47 340 47 242 q 74 481 47 415 q 151 595 101 546 q 267 672 200 644 q 414 700 335 700 q 604 652 521 700 q 735 524 688 604 q 783 343 783 443 q 755 201 783 267 q 675 88 726 136 q 557 12 624 39 q 413 -15 490 -15 m 414 103 q 533 136 481 103 q 615 224 585 169 q 644 342 644 278 q 615 462 644 407 q 534 550 586 517 q 413 583 482 583 q 293 551 344 583 q 214 464 242 518 q 186 343 186 410 q 216 221 186 275 q 298 135 246 167 q 414 103 350 103 m 208 865 l 364 1072 l 472 1072 l 626 865 l 521 865 l 417 975 l 315 865 l 208 865 z "},"ö":{"ha":831,"x_min":47,"x_max":783,"o":"m 413 -15 q 224 32 307 -15 q 94 160 142 79 q 47 340 47 242 q 74 481 47 415 q 151 595 101 546 q 267 672 200 644 q 414 700 335 700 q 604 652 521 700 q 735 524 688 604 q 783 343 783 443 q 755 201 783 267 q 675 88 726 136 q 557 12 624 39 q 413 -15 490 -15 m 414 103 q 533 136 481 103 q 615 224 585 169 q 644 342 644 278 q 615 462 644 407 q 534 550 586 517 q 413 583 482 583 q 293 551 344 583 q 214 464 242 518 q 186 343 186 410 q 216 221 186 275 q 298 135 246 167 q 414 103 350 103 m 282 869 q 223 893 246 869 q 200 951 200 917 q 224 1010 200 986 q 282 1033 247 1033 q 340 1009 315 1033 q 365 951 365 985 q 340 893 365 917 q 282 869 315 869 m 546 869 q 490 893 513 869 q 467 951 467 917 q 490 1009 467 985 q 546 1033 513 1033 q 605 1009 582 1033 q 628 951 628 985 q 605 893 628 917 q 546 869 582 869 z "},"ò":{"ha":831,"x_min":47,"x_max":783,"o":"m 413 -15 q 224 32 307 -15 q 94 160 142 79 q 47 340 47 242 q 74 481 47 415 q 151 595 101 546 q 267 672 200 644 q 414 700 335 700 q 604 652 521 700 q 735 524 688 604 q 783 343 783 443 q 755 201 783 267 q 675 88 726 136 q 557 12 624 39 q 413 -15 490 -15 m 414 103 q 533 136 481 103 q 615 224 585 169 q 644 342 644 278 q 615 462 644 407 q 534 550 586 517 q 413 583 482 583 q 293 551 344 583 q 214 464 242 518 q 186 343 186 410 q 216 221 186 275 q 298 135 246 167 q 414 103 350 103 m 360 856 l 179 1035 l 329 1071 l 464 856 l 360 856 z "},"ő":{"ha":836,"x_min":47,"x_max":783,"o":"m 413 -15 q 224 32 307 -15 q 94 160 142 79 q 47 340 47 242 q 74 481 47 415 q 151 595 101 546 q 267 672 200 644 q 414 700 335 700 q 604 652 521 700 q 735 524 688 604 q 783 343 783 443 q 755 201 783 267 q 675 88 726 136 q 557 12 624 39 q 413 -15 490 -15 m 414 103 q 533 136 481 103 q 615 224 585 169 q 644 342 644 278 q 615 462 644 407 q 534 550 586 517 q 413 583 482 583 q 293 551 344 583 q 214 464 242 518 q 186 343 186 410 q 216 221 186 275 q 298 135 246 167 q 414 103 350 103 m 472 840 l 619 1058 l 758 1031 l 576 840 l 472 840 m 242 840 l 389 1058 l 528 1033 l 347 840 l 242 840 z "},"ō":{"ha":831,"x_min":47,"x_max":783,"o":"m 413 -15 q 224 32 307 -15 q 94 160 142 79 q 47 340 47 242 q 74 481 47 415 q 151 595 101 546 q 267 672 200 644 q 414 700 335 700 q 604 652 521 700 q 735 524 688 604 q 783 343 783 443 q 755 201 783 267 q 675 88 726 136 q 557 12 624 39 q 413 -15 490 -15 m 414 103 q 533 136 481 103 q 615 224 585 169 q 644 342 644 278 q 615 462 644 407 q 534 550 586 517 q 413 583 482 583 q 293 551 344 583 q 214 464 242 518 q 186 343 186 410 q 216 221 186 275 q 298 135 246 167 q 414 103 350 103 m 197 842 l 197 935 l 632 935 l 632 842 l 197 842 z "},"ø":{"ha":796,"x_min":28,"x_max":765,"o":"m 89 -57 l 28 4 l 126 106 q 65 212 86 156 q 44 336 44 268 q 71 474 44 410 q 145 585 97 538 q 258 660 193 633 q 403 688 324 688 q 519 673 465 688 q 618 622 574 658 l 700 707 l 758 649 l 683 565 q 743 463 721 519 q 765 336 765 407 q 738 197 765 261 q 663 85 711 133 q 548 10 614 36 q 403 -17 482 -17 q 285 0 336 -17 q 189 51 233 17 l 89 -57 m 400 94 q 522 126 471 94 q 602 213 574 158 q 631 336 631 268 q 621 410 631 376 q 593 472 611 443 l 269 136 q 328 105 297 115 q 400 94 360 94 m 215 197 l 536 533 q 478 565 511 554 q 404 576 446 576 q 284 544 335 576 q 206 457 233 511 q 178 336 178 403 q 185 260 178 293 q 215 197 193 228 z "},"ǿ":{"ha":796,"x_min":28,"x_max":765,"o":"m 89 -57 l 28 4 l 126 106 q 65 212 86 156 q 44 336 44 268 q 71 474 44 410 q 145 585 97 538 q 258 660 193 633 q 403 688 324 688 q 519 673 465 688 q 618 622 574 658 l 700 707 l 758 649 l 683 565 q 743 463 721 519 q 765 336 765 407 q 738 197 765 261 q 663 85 711 133 q 548 10 614 36 q 403 -17 482 -17 q 285 0 336 -17 q 189 51 233 17 l 89 -57 m 400 94 q 522 126 471 94 q 602 213 574 158 q 631 336 631 268 q 621 410 631 376 q 593 472 611 443 l 269 136 q 328 105 297 115 q 400 94 360 94 m 215 197 l 536 533 q 478 565 511 554 q 404 576 446 576 q 284 544 335 576 q 206 457 233 511 q 178 336 178 403 q 185 260 178 293 q 215 197 193 228 m 363 842 l 492 1057 l 644 1021 l 463 842 l 363 842 z "},"õ":{"ha":831,"x_min":47,"x_max":783,"o":"m 413 -15 q 224 32 307 -15 q 94 160 142 79 q 47 340 47 242 q 74 481 47 415 q 151 595 101 546 q 267 672 200 644 q 414 700 335 700 q 604 652 521 700 q 735 524 688 604 q 783 343 783 443 q 755 201 783 267 q 675 88 726 136 q 557 12 624 39 q 413 -15 490 -15 m 414 103 q 533 136 481 103 q 615 224 585 169 q 644 342 644 278 q 615 462 644 407 q 534 550 586 517 q 413 583 482 583 q 293 551 344 583 q 214 464 242 518 q 186 343 186 410 q 216 221 186 275 q 298 135 246 167 q 414 103 350 103 m 275 840 l 189 856 q 247 969 210 926 q 342 1011 285 1011 q 404 999 375 1011 q 460 973 433 986 q 511 960 488 960 q 549 975 535 960 q 574 1022 563 990 l 658 1006 q 605 894 638 935 q 521 853 572 853 q 462 866 490 853 q 406 892 433 879 q 351 904 379 904 q 307 890 328 904 q 275 840 286 875 z "},"œ":{"ha":1385,"x_min":47,"x_max":1338,"o":"m 1028 -17 q 846 30 922 -17 q 729 160 769 76 q 600 33 682 81 q 413 -15 518 -15 q 224 32 307 -15 q 94 160 142 79 q 47 340 47 242 q 74 481 47 415 q 151 595 101 546 q 267 672 200 644 q 414 700 335 700 q 601 653 519 700 q 731 526 683 606 q 836 653 767 606 q 1006 700 906 700 q 1139 674 1081 700 q 1239 601 1197 647 q 1306 493 1281 554 q 1338 364 1331 432 l 835 238 q 905 135 858 175 q 1033 96 951 96 q 1122 108 1079 96 q 1203 142 1164 119 q 1274 197 1242 165 l 1274 61 q 1164 5 1228 26 q 1028 -17 1100 -17 m 414 103 q 533 136 481 103 q 615 224 585 169 q 644 342 644 278 q 615 462 644 407 q 534 550 586 517 q 413 583 482 583 q 293 551 344 583 q 214 464 242 518 q 186 343 186 410 q 216 221 186 275 q 298 135 246 167 q 414 103 350 103 m 815 354 l 1178 440 q 1111 544 1161 503 q 986 586 1061 586 q 885 553 922 586 q 831 468 847 521 q 815 354 815 415 z "},"p":{"ha":858,"x_min":90,"x_max":813,"o":"m 90 -254 l 90 683 l 242 579 q 342 666 286 632 q 482 700 399 700 q 647 656 572 700 q 767 531 722 611 q 813 343 813 451 q 766 155 813 235 q 644 31 719 75 q 482 -14 569 -14 q 336 19 399 -14 q 229 113 274 53 l 229 -254 l 90 -254 m 453 103 q 565 133 515 103 q 645 217 615 163 q 675 343 675 271 q 647 462 675 408 q 569 547 619 515 q 450 579 519 579 q 338 549 389 579 q 256 465 286 518 q 225 342 225 411 q 257 219 225 274 q 341 134 289 165 q 453 103 393 103 z "},"þ":{"ha":768,"x_min":90,"x_max":722,"o":"m 90 -337 l 90 1074 l 219 1074 l 219 788 q 219 729 219 758 q 219 671 219 700 q 218 601 218 636 q 218 533 218 567 l 221 533 q 308 607 257 581 q 419 636 358 633 q 451 635 436 636 q 482 632 467 635 q 582 592 538 622 q 658 518 626 563 q 706 420 689 474 q 722 310 722 367 q 706 198 722 251 q 659 101 690 144 q 583 28 628 57 q 482 -11 539 -1 q 451 -15 467 -14 q 419 -15 436 -17 q 308 12 360 -14 q 222 85 257 38 l 218 85 l 219 -18 l 219 -337 l 90 -337 m 400 99 q 538 160 486 99 q 590 315 590 222 q 567 419 590 372 q 501 494 543 465 q 399 522 458 522 q 301 493 343 522 q 237 417 260 464 q 214 317 214 369 q 236 211 214 261 q 300 130 258 161 q 400 99 342 99 z "},"q":{"ha":858,"x_min":47,"x_max":767,"o":"m 628 -254 l 628 118 q 522 22 583 58 q 379 -15 461 -15 q 212 30 288 -15 q 92 156 136 75 q 47 342 47 236 q 92 531 47 451 q 213 656 138 611 q 379 700 289 700 q 517 667 463 700 q 617 585 572 635 l 767 683 l 767 -254 l 628 -254 m 408 103 q 521 134 469 103 q 603 220 572 165 q 635 343 635 275 q 603 466 635 413 q 521 551 572 519 q 408 582 469 582 q 294 552 344 582 q 215 469 244 522 q 186 344 186 415 q 214 226 186 282 q 292 137 242 171 q 408 103 342 103 z "},"r":{"ha":493,"x_min":89,"x_max":490,"o":"m 89 0 l 89 683 l 231 596 q 324 670 268 644 q 439 696 379 696 q 467 694 454 696 q 490 690 479 693 l 490 556 q 465 565 479 563 q 436 567 451 567 q 340 545 388 567 q 260 476 292 524 q 228 353 228 429 l 228 0 l 89 0 z "},"ŕ":{"ha":519,"x_min":89,"x_max":517,"o":"m 89 0 l 89 683 l 231 596 q 324 670 268 644 q 439 696 379 696 q 467 694 454 696 q 490 690 479 693 l 490 556 q 465 565 479 563 q 436 567 451 567 q 340 545 388 567 q 260 476 292 524 q 228 353 228 429 l 228 0 l 89 0 m 235 856 l 364 1071 l 517 1035 l 335 856 l 235 856 z "},"ř":{"ha":493,"x_min":69,"x_max":504,"o":"m 89 0 l 89 683 l 231 596 q 324 670 268 644 q 439 696 379 696 q 467 694 454 696 q 490 690 479 693 l 490 556 q 465 565 479 563 q 436 567 451 567 q 340 545 388 567 q 260 476 292 524 q 228 353 228 429 l 228 0 l 89 0 m 232 838 l 69 1047 l 185 1047 l 288 933 l 390 1047 l 504 1047 l 342 838 l 232 838 z "},"ŗ":{"ha":493,"x_min":67,"x_max":490,"o":"m 89 0 l 89 683 l 231 596 q 324 670 268 644 q 439 696 379 696 q 467 694 454 696 q 490 690 479 693 l 490 556 q 465 565 479 563 q 436 567 451 567 q 340 545 388 567 q 260 476 292 524 q 228 353 228 429 l 228 0 l 89 0 m 67 -329 l 110 -81 l 235 -81 l 164 -329 l 67 -329 z "},"s":{"ha":556,"x_min":29,"x_max":513,"o":"m 269 -14 q 133 10 190 -14 q 29 63 76 33 l 29 200 q 99 149 61 172 q 180 110 138 125 q 264 96 222 96 q 321 105 294 96 q 365 134 347 114 q 382 188 382 154 q 358 249 382 225 q 294 292 333 274 q 212 329 256 311 q 129 372 168 347 q 66 432 90 396 q 42 522 42 468 q 69 616 42 576 q 146 677 96 656 q 265 699 196 699 q 335 693 301 699 q 401 675 369 688 q 461 643 433 663 l 461 504 q 400 546 432 526 q 335 577 368 565 q 267 589 303 589 q 197 569 221 589 q 172 522 172 549 q 197 472 172 493 q 260 434 221 451 q 342 397 299 417 q 425 350 386 376 q 488 285 464 324 q 513 192 513 247 q 483 88 513 135 q 399 13 454 40 q 269 -14 344 -14 z "},"ś":{"ha":556,"x_min":29,"x_max":513,"o":"m 269 -14 q 133 10 190 -14 q 29 63 76 33 l 29 200 q 99 149 61 172 q 180 110 138 125 q 264 96 222 96 q 321 105 294 96 q 365 134 347 114 q 382 188 382 154 q 358 249 382 225 q 294 292 333 274 q 212 329 256 311 q 129 372 168 347 q 66 432 90 396 q 42 522 42 468 q 69 616 42 576 q 146 677 96 656 q 265 699 196 699 q 335 693 301 699 q 401 675 369 688 q 461 643 433 663 l 461 504 q 400 546 432 526 q 335 577 368 565 q 267 589 303 589 q 197 569 221 589 q 172 522 172 549 q 197 472 172 493 q 260 434 221 451 q 342 397 299 417 q 425 350 386 376 q 488 285 464 324 q 513 192 513 247 q 483 88 513 135 q 399 13 454 40 q 269 -14 344 -14 m 222 856 l 351 1071 l 504 1035 l 322 856 l 222 856 z "},"š":{"ha":556,"x_min":29,"x_max":513,"o":"m 269 -14 q 133 10 190 -14 q 29 63 76 33 l 29 200 q 99 149 61 172 q 180 110 138 125 q 264 96 222 96 q 321 105 294 96 q 365 134 347 114 q 382 188 382 154 q 358 249 382 225 q 294 292 333 274 q 212 329 256 311 q 129 372 168 347 q 66 432 90 396 q 42 522 42 468 q 69 616 42 576 q 146 677 96 656 q 265 699 196 699 q 335 693 301 699 q 401 675 369 688 q 461 643 433 663 l 461 504 q 400 546 432 526 q 335 577 368 565 q 267 589 303 589 q 197 569 221 589 q 172 522 172 549 q 197 472 172 493 q 260 434 221 451 q 342 397 299 417 q 425 350 386 376 q 488 285 464 324 q 513 192 513 247 q 483 88 513 135 q 399 13 454 40 q 269 -14 344 -14 m 224 842 l 61 1051 l 176 1051 l 279 938 l 382 1051 l 496 1051 l 333 842 l 224 842 z "},"ş":{"ha":556,"x_min":29,"x_max":513,"o":"m 269 -14 q 133 10 190 -14 q 29 63 76 33 l 29 200 q 99 149 61 172 q 180 110 138 125 q 264 96 222 96 q 321 105 294 96 q 365 134 347 114 q 382 188 382 154 q 358 249 382 225 q 294 292 333 274 q 212 329 256 311 q 129 372 168 347 q 66 432 90 396 q 42 522 42 468 q 69 616 42 576 q 146 677 96 656 q 265 699 196 699 q 335 693 301 699 q 401 675 369 688 q 461 643 433 663 l 461 504 q 400 546 432 526 q 335 577 368 565 q 267 589 303 589 q 197 569 221 589 q 172 522 172 549 q 197 472 172 493 q 260 434 221 451 q 342 397 299 417 q 425 350 386 376 q 488 285 464 324 q 513 192 513 247 q 483 88 513 135 q 399 13 454 40 q 269 -14 344 -14 m 211 -312 q 148 -305 178 -312 q 90 -283 118 -297 l 110 -224 q 149 -235 131 -232 q 182 -239 167 -239 q 219 -233 199 -239 q 254 -215 239 -228 q 269 -179 269 -201 q 254 -148 269 -158 q 214 -137 239 -137 q 191 -140 201 -137 q 167 -149 181 -143 l 140 -128 l 226 0 l 318 0 l 260 -97 l 265 -97 q 317 -106 290 -97 q 361 -134 343 -114 q 379 -192 379 -154 q 352 -262 379 -236 q 286 -301 325 -289 q 211 -312 247 -312 z "},"ŝ":{"ha":556,"x_min":29,"x_max":513,"o":"m 269 -14 q 133 10 190 -14 q 29 63 76 33 l 29 200 q 99 149 61 172 q 180 110 138 125 q 264 96 222 96 q 321 105 294 96 q 365 134 347 114 q 382 188 382 154 q 358 249 382 225 q 294 292 333 274 q 212 329 256 311 q 129 372 168 347 q 66 432 90 396 q 42 522 42 468 q 69 616 42 576 q 146 677 96 656 q 265 699 196 699 q 335 693 301 699 q 401 675 369 688 q 461 643 433 663 l 461 504 q 400 546 432 526 q 335 577 368 565 q 267 589 303 589 q 197 569 221 589 q 172 522 172 549 q 197 472 172 493 q 260 434 221 451 q 342 397 299 417 q 425 350 386 376 q 488 285 464 324 q 513 192 513 247 q 483 88 513 135 q 399 13 454 40 q 269 -14 344 -14 m 51 865 l 207 1072 l 315 1072 l 469 865 l 364 865 l 260 975 l 158 865 l 51 865 z "},"ș":{"ha":596,"x_min":57,"x_max":540,"o":"m 297 -14 q 161 10 218 -14 q 57 63 104 33 l 57 200 q 127 149 89 172 q 208 110 165 125 q 292 96 250 96 q 349 105 322 96 q 392 134 375 114 q 410 188 410 154 q 385 249 410 225 q 322 292 361 274 q 240 329 283 311 q 157 372 196 347 q 94 432 118 396 q 69 522 69 468 q 97 616 69 576 q 174 677 124 656 q 293 699 224 699 q 363 693 329 699 q 429 675 397 688 q 489 643 461 663 l 489 504 q 428 546 460 526 q 363 577 396 565 q 294 589 331 589 q 224 569 249 589 q 200 522 200 549 q 224 472 200 493 q 288 434 249 451 q 370 397 326 417 q 453 350 414 376 q 516 285 492 324 q 540 192 540 247 q 511 88 540 135 q 427 13 482 40 q 297 -14 372 -14 m 181 -329 l 224 -81 l 349 -81 l 278 -329 l 181 -329 z "},"ß":{"ha":738,"x_min":15,"x_max":690,"o":"m 293 -4 l 293 103 q 426 122 368 103 q 518 184 485 142 q 551 292 551 226 q 521 395 551 357 q 435 454 490 433 q 306 486 381 475 l 306 581 q 399 624 357 601 q 465 682 440 647 q 490 769 490 717 q 446 881 490 842 q 332 921 401 921 q 229 891 269 921 q 170 814 189 861 q 151 713 151 767 l 151 0 l 15 0 l 15 713 q 49 878 15 803 q 154 998 83 953 q 336 1043 225 1043 q 488 1010 422 1043 q 591 919 554 976 q 628 785 628 861 q 581 637 628 696 q 461 546 533 578 q 574 500 522 535 q 658 412 626 465 q 690 288 690 358 q 659 157 690 213 q 573 65 628 101 q 447 12 518 29 q 293 -4 375 -6 z "},"t":{"ha":490,"x_min":19,"x_max":471,"o":"m 332 -15 q 201 41 246 -15 q 157 178 157 97 l 157 567 l 19 567 l 294 915 l 294 683 l 471 683 l 471 567 l 294 567 l 294 178 q 308 125 294 147 q 357 103 322 103 q 386 106 371 103 q 418 118 401 110 l 418 4 q 378 -11 399 -7 q 332 -15 357 -15 z "},"ŧ":{"ha":490,"x_min":19,"x_max":471,"o":"m 332 -15 q 201 41 246 -15 q 157 178 157 97 l 157 567 l 19 567 l 294 915 l 294 683 l 471 683 l 471 567 l 294 567 l 294 178 q 308 125 294 147 q 357 103 322 103 q 386 106 371 103 q 418 118 401 110 l 418 4 q 378 -11 399 -7 q 332 -15 357 -15 m 31 364 l 31 457 l 471 457 l 471 364 l 31 364 z "},"ť":{"ha":490,"x_min":19,"x_max":524,"o":"m 332 -15 q 201 41 246 -15 q 157 178 157 97 l 157 567 l 19 567 l 294 915 l 294 683 l 471 683 l 471 567 l 294 567 l 294 178 q 308 125 294 147 q 357 103 322 103 q 386 106 371 103 q 418 118 401 110 l 418 4 q 378 -11 399 -7 q 332 -15 357 -15 m 356 821 l 399 1069 l 524 1069 l 451 821 l 356 821 z "},"ţ":{"ha":490,"x_min":19,"x_max":471,"o":"m 332 -15 q 201 41 246 -15 q 157 178 157 97 l 157 567 l 19 567 l 294 915 l 294 683 l 471 683 l 471 567 l 294 567 l 294 178 q 308 125 294 147 q 357 103 322 103 q 386 106 371 103 q 418 118 401 110 l 418 4 q 378 -11 399 -7 q 332 -15 357 -15 m 269 -312 q 206 -305 236 -312 q 149 -283 176 -297 l 168 -224 q 207 -235 189 -232 q 240 -239 225 -239 q 277 -233 257 -239 q 313 -215 297 -228 q 328 -179 328 -201 q 313 -148 328 -158 q 272 -137 297 -137 q 249 -140 260 -137 q 225 -149 239 -143 l 199 -128 l 285 0 l 376 0 l 318 -97 l 324 -97 q 375 -106 349 -97 q 419 -134 401 -114 q 438 -192 438 -154 q 410 -262 438 -236 q 344 -301 383 -289 q 269 -312 306 -312 z "},"ț":{"ha":490,"x_min":19,"x_max":471,"o":"m 332 -15 q 201 41 246 -15 q 157 178 157 97 l 157 567 l 19 567 l 294 915 l 294 683 l 471 683 l 471 567 l 294 567 l 294 178 q 308 125 294 147 q 357 103 322 103 q 386 106 371 103 q 418 118 401 110 l 418 4 q 378 -11 399 -7 q 332 -15 357 -15 m 194 -329 l 238 -81 l 363 -81 l 292 -329 l 194 -329 z "},"u":{"ha":765,"x_min":82,"x_max":685,"o":"m 326 -14 q 142 59 201 -14 q 82 251 82 132 l 82 685 l 221 685 l 221 293 q 244 183 221 224 q 302 126 267 143 q 375 108 338 108 q 453 125 414 108 q 519 183 492 142 q 546 293 546 224 l 546 685 l 685 685 l 685 -3 l 544 86 q 454 14 507 42 q 326 -14 401 -14 z "},"ú":{"ha":765,"x_min":82,"x_max":685,"o":"m 326 -14 q 142 59 201 -14 q 82 251 82 132 l 82 685 l 221 685 l 221 293 q 244 183 221 224 q 302 126 267 143 q 375 108 338 108 q 453 125 414 108 q 519 183 492 142 q 546 293 546 224 l 546 685 l 685 685 l 685 -3 l 544 86 q 454 14 507 42 q 326 -14 401 -14 m 333 856 l 463 1071 l 615 1035 l 433 856 l 333 856 z "},"ŭ":{"ha":765,"x_min":82,"x_max":685,"o":"m 326 -14 q 142 59 201 -14 q 82 251 82 132 l 82 685 l 221 685 l 221 293 q 244 183 221 224 q 302 126 267 143 q 375 108 338 108 q 453 125 414 108 q 519 183 492 142 q 546 293 546 224 l 546 685 l 685 685 l 685 -3 l 544 86 q 454 14 507 42 q 326 -14 401 -14 m 378 829 q 275 855 319 829 q 203 926 231 881 q 167 1033 175 972 l 254 1033 q 300 959 267 985 q 382 933 333 933 q 461 959 429 933 q 506 1033 493 985 l 592 1033 q 558 926 586 972 q 483 855 529 881 q 378 829 436 829 z "},"û":{"ha":765,"x_min":82,"x_max":685,"o":"m 326 -14 q 142 59 201 -14 q 82 251 82 132 l 82 685 l 221 685 l 221 293 q 244 183 221 224 q 302 126 267 143 q 375 108 338 108 q 453 125 414 108 q 519 183 492 142 q 546 293 546 224 l 546 685 l 685 685 l 685 -3 l 544 86 q 454 14 507 42 q 326 -14 401 -14 m 174 865 l 329 1072 l 438 1072 l 592 865 l 486 865 l 382 975 l 281 865 l 174 865 z "},"ü":{"ha":765,"x_min":82,"x_max":685,"o":"m 326 -14 q 142 59 201 -14 q 82 251 82 132 l 82 685 l 221 685 l 221 293 q 244 183 221 224 q 302 126 267 143 q 375 108 338 108 q 453 125 414 108 q 519 183 492 142 q 546 293 546 224 l 546 685 l 685 685 l 685 -3 l 544 86 q 454 14 507 42 q 326 -14 401 -14 m 250 869 q 191 893 214 869 q 168 951 168 917 q 192 1010 168 986 q 250 1033 215 1033 q 308 1009 283 1033 q 333 951 333 985 q 308 893 333 917 q 250 869 283 869 m 514 869 q 458 893 481 869 q 435 951 435 917 q 458 1009 435 985 q 514 1033 481 1033 q 573 1009 550 1033 q 596 951 596 985 q 573 893 596 917 q 514 869 550 869 z "},"ù":{"ha":765,"x_min":82,"x_max":685,"o":"m 326 -14 q 142 59 201 -14 q 82 251 82 132 l 82 685 l 221 685 l 221 293 q 244 183 221 224 q 302 126 267 143 q 375 108 338 108 q 453 125 414 108 q 519 183 492 142 q 546 293 546 224 l 546 685 l 685 685 l 685 -3 l 544 86 q 454 14 507 42 q 326 -14 401 -14 m 372 856 l 192 1035 l 342 1071 l 476 856 l 372 856 z "},"ű":{"ha":807,"x_min":82,"x_max":726,"o":"m 326 -14 q 142 59 201 -14 q 82 251 82 132 l 82 685 l 221 685 l 221 293 q 244 183 221 224 q 302 126 267 143 q 375 108 338 108 q 453 125 414 108 q 519 183 492 142 q 546 293 546 224 l 546 685 l 685 685 l 685 -3 l 544 86 q 454 14 507 42 q 326 -14 401 -14 m 440 840 l 588 1058 l 726 1031 l 544 840 l 440 840 m 210 840 l 357 1058 l 496 1033 l 315 840 l 210 840 z "},"ū":{"ha":765,"x_min":82,"x_max":685,"o":"m 326 -14 q 142 59 201 -14 q 82 251 82 132 l 82 685 l 221 685 l 221 293 q 244 183 221 224 q 302 126 267 143 q 375 108 338 108 q 453 125 414 108 q 519 183 492 142 q 546 293 546 224 l 546 685 l 685 685 l 685 -3 l 544 86 q 454 14 507 42 q 326 -14 401 -14 m 174 842 l 174 935 l 608 935 l 608 842 l 174 842 z "},"ų":{"ha":765,"x_min":82,"x_max":776,"o":"m 326 -14 q 142 59 201 -14 q 82 251 82 132 l 82 685 l 221 685 l 221 293 q 244 183 221 224 q 302 126 267 143 q 375 108 338 108 q 453 125 414 108 q 519 183 492 142 q 546 293 546 224 l 546 685 l 685 685 l 685 -3 l 544 86 q 454 14 507 42 q 326 -14 401 -14 m 674 -283 q 560 -247 606 -283 q 515 -146 515 -210 q 540 -58 515 -103 q 621 43 565 -14 l 685 -3 q 638 -72 654 -43 q 622 -128 622 -101 q 641 -180 622 -158 q 696 -201 660 -201 q 724 -199 710 -201 q 760 -189 739 -196 l 776 -260 q 723 -278 749 -272 q 674 -283 697 -283 z "},"ů":{"ha":765,"x_min":82,"x_max":685,"o":"m 326 -14 q 142 59 201 -14 q 82 251 82 132 l 82 685 l 221 685 l 221 293 q 244 183 221 224 q 302 126 267 143 q 375 108 338 108 q 453 125 414 108 q 519 183 492 142 q 546 293 546 224 l 546 685 l 685 685 l 685 -3 l 544 86 q 454 14 507 42 q 326 -14 401 -14 m 385 822 q 314 841 347 822 q 260 892 281 860 q 240 964 240 924 q 260 1038 240 1006 q 314 1090 281 1071 q 385 1108 347 1108 q 458 1089 425 1108 q 512 1037 492 1069 q 532 963 532 1004 q 512 890 532 922 q 458 840 492 858 q 385 822 425 822 m 386 894 q 439 915 419 894 q 458 964 458 935 q 438 1016 458 996 q 386 1036 418 1036 q 335 1015 356 1036 q 314 965 314 994 q 335 913 314 932 q 386 894 356 894 z "},"ũ":{"ha":765,"x_min":82,"x_max":685,"o":"m 326 -14 q 142 59 201 -14 q 82 251 82 132 l 82 685 l 221 685 l 221 293 q 244 183 221 224 q 302 126 267 143 q 375 108 338 108 q 453 125 414 108 q 519 183 492 142 q 546 293 546 224 l 546 685 l 685 685 l 685 -3 l 544 86 q 454 14 507 42 q 326 -14 401 -14 m 244 840 l 158 856 q 217 969 179 926 q 311 1011 254 1011 q 374 999 344 1011 q 430 973 403 986 q 481 960 457 960 q 518 975 504 960 q 543 1022 532 990 l 628 1006 q 574 894 607 935 q 490 853 542 853 q 431 866 460 853 q 376 892 403 879 q 321 904 349 904 q 276 890 297 904 q 244 840 256 875 z "},"v":{"ha":690,"x_min":-6,"x_max":696,"o":"m 278 -1 l -6 682 l 144 682 l 347 157 l 550 682 l 696 682 l 411 -1 l 278 -1 z "},"w":{"ha":1039,"x_min":-1,"x_max":1040,"o":"m 228 -1 l -1 683 l 140 683 l 299 176 l 454 685 l 588 685 l 742 178 l 897 683 l 1040 683 l 811 -1 l 679 -1 l 517 521 l 356 -1 l 228 -1 z "},"ẃ":{"ha":1039,"x_min":-1,"x_max":1040,"o":"m 228 -1 l -1 683 l 140 683 l 299 176 l 454 685 l 588 685 l 742 178 l 897 683 l 1040 683 l 811 -1 l 679 -1 l 517 521 l 356 -1 l 228 -1 m 472 842 l 601 1057 l 754 1021 l 572 842 l 472 842 z "},"ŵ":{"ha":1039,"x_min":-1,"x_max":1040,"o":"m 228 -1 l -1 683 l 140 683 l 299 176 l 454 685 l 588 685 l 742 178 l 897 683 l 1040 683 l 811 -1 l 679 -1 l 517 521 l 356 -1 l 228 -1 m 308 865 l 464 1072 l 572 1072 l 726 865 l 621 865 l 517 975 l 415 865 l 308 865 z "},"ẅ":{"ha":1039,"x_min":-1,"x_max":1040,"o":"m 228 -1 l -1 683 l 140 683 l 299 176 l 454 685 l 588 685 l 742 178 l 897 683 l 1040 683 l 811 -1 l 679 -1 l 517 521 l 356 -1 l 228 -1 m 386 869 q 327 893 350 869 q 304 951 304 917 q 328 1010 304 986 q 386 1033 351 1033 q 444 1009 419 1033 q 469 951 469 985 q 444 893 469 917 q 386 869 419 869 m 650 869 q 594 893 617 869 q 571 951 571 917 q 594 1009 571 985 q 650 1033 617 1033 q 709 1009 686 1033 q 732 951 732 985 q 709 893 732 917 q 650 869 686 869 z "},"ẁ":{"ha":1039,"x_min":-1,"x_max":1040,"o":"m 228 -1 l -1 683 l 140 683 l 299 176 l 454 685 l 588 685 l 742 178 l 897 683 l 1040 683 l 811 -1 l 679 -1 l 517 521 l 356 -1 l 228 -1 m 471 856 l 290 1035 l 440 1071 l 575 856 l 471 856 z "},"x":{"ha":703,"x_min":8,"x_max":694,"o":"m 8 0 l 275 351 l 24 682 l 181 682 l 353 450 l 526 682 l 678 682 l 431 354 l 694 0 l 539 0 l 350 254 l 161 0 l 8 0 z "},"y":{"ha":694,"x_min":-6,"x_max":700,"o":"m 201 -254 l 299 -1 l -6 682 l 143 682 l 360 158 l 556 682 l 700 682 l 329 -254 l 201 -254 z "},"ý":{"ha":694,"x_min":-6,"x_max":700,"o":"m 201 -254 l 299 -1 l -6 682 l 143 682 l 360 158 l 556 682 l 700 682 l 329 -254 l 201 -254 m 289 856 l 418 1071 l 571 1035 l 389 856 l 289 856 z "},"ŷ":{"ha":694,"x_min":-6,"x_max":700,"o":"m 201 -254 l 299 -1 l -6 682 l 143 682 l 360 158 l 556 682 l 700 682 l 329 -254 l 201 -254 m 147 865 l 303 1072 l 411 1072 l 565 865 l 460 865 l 356 975 l 254 865 l 147 865 z "},"ÿ":{"ha":694,"x_min":-6,"x_max":700,"o":"m 201 -254 l 299 -1 l -6 682 l 143 682 l 360 158 l 556 682 l 700 682 l 329 -254 l 201 -254 m 224 869 q 165 893 188 869 q 142 951 142 917 q 165 1010 142 986 q 224 1033 189 1033 q 282 1009 257 1033 q 307 951 307 985 q 282 893 307 917 q 224 869 257 869 m 488 869 q 431 893 454 869 q 408 951 408 917 q 431 1009 408 985 q 488 1033 454 1033 q 547 1009 524 1033 q 569 951 569 985 q 547 893 569 917 q 488 869 524 869 z "},"ỳ":{"ha":694,"x_min":-6,"x_max":700,"o":"m 201 -254 l 299 -1 l -6 682 l 143 682 l 360 158 l 556 682 l 700 682 l 329 -254 l 201 -254 m 311 856 l 131 1035 l 281 1071 l 415 856 l 311 856 z "},"z":{"ha":707,"x_min":18,"x_max":674,"o":"m 18 0 l 18 108 l 503 569 l 44 569 l 44 683 l 674 683 l 674 575 l 189 117 l 667 117 l 667 0 l 18 0 z "},"ź":{"ha":707,"x_min":18,"x_max":674,"o":"m 18 0 l 18 108 l 503 569 l 44 569 l 44 683 l 674 683 l 674 575 l 189 117 l 667 117 l 667 0 l 18 0 m 311 856 l 440 1071 l 593 1035 l 411 856 l 311 856 z "},"ž":{"ha":707,"x_min":18,"x_max":674,"o":"m 18 0 l 18 108 l 503 569 l 44 569 l 44 683 l 674 683 l 674 575 l 189 117 l 667 117 l 667 0 l 18 0 m 304 838 l 142 1047 l 257 1047 l 360 933 l 463 1047 l 576 1047 l 414 838 l 304 838 z "},"ż":{"ha":707,"x_min":18,"x_max":674,"o":"m 18 0 l 18 108 l 503 569 l 44 569 l 44 683 l 674 683 l 674 575 l 189 117 l 667 117 l 667 0 l 18 0 m 365 851 q 299 878 326 851 q 271 943 271 904 q 298 1009 271 983 q 365 1035 325 1035 q 433 1010 406 1035 q 460 943 460 985 q 433 878 460 904 q 365 851 406 851 z "},"ﬁ":{"ha":818,"x_min":21,"x_max":717,"o":"m 154 0 l 154 568 l 21 568 l 154 685 l 154 772 q 215 964 154 906 q 378 1022 275 1022 q 433 1018 408 1022 q 476 1007 457 1014 l 476 897 q 438 908 457 904 q 399 913 418 913 q 310 876 339 913 q 282 767 282 839 l 282 682 l 457 682 l 457 568 l 289 568 l 289 0 l 154 0 m 554 0 l 554 683 l 692 683 l 692 0 l 554 0 m 621 806 q 556 831 583 806 q 528 896 528 857 q 554 963 528 936 q 621 989 581 989 q 690 964 663 989 q 717 896 717 939 q 690 831 717 857 q 621 806 663 806 z "},"ﬂ":{"ha":772,"x_min":21,"x_max":671,"o":"m 154 0 l 154 568 l 21 568 l 154 685 l 154 772 q 215 964 154 906 q 378 1022 275 1022 q 433 1018 408 1022 q 476 1007 457 1014 l 476 897 q 438 908 457 904 q 399 913 418 913 q 310 876 339 913 q 282 767 282 839 l 282 682 l 457 682 l 457 568 l 289 568 l 289 0 l 154 0 m 532 0 l 532 1017 l 671 1017 l 671 0 l 532 0 z "},"ª":{"ha":453,"x_min":29,"x_max":401,"o":"m 179 588 q 109 602 143 588 q 54 645 75 617 q 33 714 33 674 q 81 813 33 781 q 203 846 128 846 q 260 840 236 846 q 311 828 285 835 l 311 838 q 283 907 311 885 q 207 929 256 929 q 90 899 146 929 l 68 967 q 138 992 100 982 q 217 1003 175 1003 q 346 963 297 1003 q 394 836 394 922 l 394 596 l 311 596 l 311 651 q 253 605 288 622 q 179 588 219 588 m 29 418 l 29 490 l 401 490 l 401 418 l 29 418 m 200 651 q 276 675 242 651 q 311 744 311 699 l 311 771 q 268 785 292 779 q 215 790 244 790 q 142 772 168 790 q 117 718 117 753 q 140 668 117 685 q 200 651 164 651 z "},"º":{"ha":475,"x_min":29,"x_max":446,"o":"m 236 586 q 132 614 179 586 q 57 689 85 642 q 29 794 29 736 q 56 900 29 853 q 131 976 83 947 q 239 1004 179 1004 q 345 976 299 1004 q 419 900 392 947 q 446 799 446 853 q 418 692 446 740 q 343 615 390 644 q 236 586 296 586 m 38 419 l 38 492 l 438 492 l 438 419 l 38 419 m 239 664 q 328 701 296 664 q 360 794 360 739 q 325 890 360 853 q 236 926 290 926 q 147 888 179 926 q 115 799 115 850 q 150 702 115 740 q 239 664 185 664 z "},"ⁿ":{"ha":547,"x_min":69,"x_max":492,"o":"m 69 543 l 69 1022 l 167 960 q 231 1013 193 992 q 319 1033 268 1033 q 450 982 408 1033 q 492 846 492 931 l 492 543 l 394 543 l 394 818 q 378 895 394 867 q 337 935 361 924 q 286 947 313 947 q 233 935 261 947 q 186 896 206 924 q 167 818 167 868 l 167 543 l 69 543 z "},"Α":{"ha":961,"x_min":-8,"x_max":969,"o":"m -8 0 l 418 979 l 542 979 l 969 0 l 813 0 l 704 257 l 256 257 l 144 0 l -8 0 m 306 379 l 654 379 l 479 811 l 306 379 z "},"Β":{"ha":904,"x_min":106,"x_max":843,"o":"m 106 0 l 106 978 l 421 978 q 588 953 510 978 q 713 876 665 929 q 761 732 761 822 q 725 594 761 653 q 618 508 689 535 q 789 425 735 490 q 843 269 843 360 q 803 134 843 196 q 677 36 763 72 q 454 0 592 0 l 106 0 m 247 122 l 465 122 q 644 163 588 122 q 700 281 700 204 q 638 398 700 357 q 426 439 576 439 l 247 439 l 247 122 m 247 556 l 422 556 q 572 599 524 556 q 619 708 619 643 q 567 821 619 785 q 424 857 514 857 l 247 857 l 247 556 z "},"Γ":{"ha":778,"x_min":106,"x_max":765,"o":"m 106 0 l 106 978 l 765 978 l 765 851 l 250 851 l 250 0 l 106 0 z "},"Δ":{"ha":992,"x_min":0,"x_max":993,"o":"m 0 0 l 433 979 l 558 979 l 993 0 l 0 0 m 204 122 l 789 122 l 496 814 l 204 122 z "},"Ε":{"ha":872,"x_min":106,"x_max":783,"o":"m 106 0 l 106 978 l 769 978 l 769 851 l 250 851 l 250 558 l 728 558 l 728 436 l 250 436 l 250 126 l 783 126 l 783 0 l 106 0 z "},"Ζ":{"ha":888,"x_min":15,"x_max":857,"o":"m 15 0 l 15 117 l 675 853 l 50 853 l 50 978 l 857 978 l 857 861 l 204 125 l 832 125 l 832 0 l 15 0 z "},"Η":{"ha":996,"x_min":106,"x_max":890,"o":"m 106 0 l 106 979 l 249 979 l 249 563 l 749 563 l 749 979 l 890 979 l 890 0 l 749 0 l 749 432 l 249 432 l 249 0 l 106 0 z "},"Θ":{"ha":1156,"x_min":68,"x_max":1089,"o":"m 578 -19 q 374 19 467 -19 q 212 128 281 58 q 106 290 143 197 q 68 488 68 382 q 106 685 68 593 q 213 848 144 778 q 376 958 282 918 q 581 997 469 997 q 784 958 692 997 q 945 848 876 918 q 1051 687 1014 778 q 1089 492 1089 596 q 1051 292 1089 385 q 943 130 1013 200 q 781 20 874 60 q 578 -19 688 -19 m 581 110 q 769 160 688 110 q 896 297 850 211 q 942 486 942 383 q 916 633 942 564 q 842 754 890 701 q 727 838 793 807 q 579 868 661 868 q 390 817 472 868 q 260 681 307 767 q 214 492 214 596 q 260 298 214 385 q 390 160 307 211 q 581 110 472 110 m 346 428 l 346 563 l 810 563 l 810 428 l 346 428 z "},"Ι":{"ha":353,"x_min":106,"x_max":249,"o":"m 106 0 l 106 978 l 249 978 l 249 0 l 106 0 z "},"Κ":{"ha":824,"x_min":106,"x_max":826,"o":"m 106 0 l 106 978 l 249 978 l 249 569 l 613 978 l 792 978 l 379 526 l 826 0 l 647 0 l 249 467 l 249 0 l 106 0 z "},"Λ":{"ha":936,"x_min":-8,"x_max":943,"o":"m -8 0 l 406 979 l 529 979 l 943 0 l 788 0 l 467 811 l 144 0 l -8 0 z "},"Μ":{"ha":1074,"x_min":36,"x_max":1035,"o":"m 36 0 l 36 972 l 179 972 l 536 422 l 893 972 l 1035 972 l 1035 0 l 893 0 l 893 747 l 536 207 l 178 747 l 178 0 l 36 0 z "},"Ν":{"ha":1043,"x_min":106,"x_max":938,"o":"m 106 0 l 106 972 l 246 972 l 799 222 l 799 978 l 938 978 l 938 0 l 801 0 l 246 757 l 246 0 l 106 0 z "},"Ξ":{"ha":856,"x_min":89,"x_max":767,"o":"m 89 0 l 89 140 l 767 140 l 767 0 l 89 0 m 144 429 l 144 565 l 711 565 l 711 429 l 144 429 m 103 838 l 103 978 l 753 978 l 753 838 l 103 838 z "},"Ο":{"ha":1156,"x_min":68,"x_max":1089,"o":"m 578 -19 q 374 19 467 -19 q 212 128 281 58 q 106 290 143 197 q 68 488 68 382 q 106 685 68 593 q 213 848 144 778 q 376 958 282 918 q 581 997 469 997 q 784 958 692 997 q 945 848 876 918 q 1051 687 1014 778 q 1089 492 1089 596 q 1051 292 1089 385 q 943 130 1013 200 q 781 20 874 60 q 578 -19 688 -19 m 579 110 q 767 160 685 110 q 895 297 849 211 q 942 486 942 383 q 916 633 942 564 q 842 754 890 701 q 727 838 793 807 q 579 868 661 868 q 390 817 472 868 q 260 681 307 767 q 214 492 214 596 q 260 298 214 385 q 390 160 307 211 q 579 110 472 110 z "},"Π":{"ha":969,"x_min":106,"x_max":865,"o":"m 106 0 l 106 979 l 865 979 l 865 0 l 722 0 l 722 849 l 249 849 l 249 0 l 106 0 z "},"Ρ":{"ha":836,"x_min":106,"x_max":796,"o":"m 106 -3 l 106 978 l 439 978 q 627 942 547 978 q 751 841 707 907 q 796 681 796 775 q 747 512 796 582 q 615 406 699 442 q 428 369 532 369 l 250 369 l 250 -3 l 106 -3 m 250 493 l 425 493 q 592 540 532 493 q 651 674 651 588 q 593 808 651 764 q 426 853 535 853 l 250 853 l 250 493 z "},"Σ":{"ha":872,"x_min":15,"x_max":824,"o":"m 15 0 l 15 117 l 357 492 l 33 861 l 33 978 l 815 978 l 815 853 l 214 853 l 535 492 l 204 125 l 824 125 l 824 0 l 15 0 z "},"Τ":{"ha":750,"x_min":13,"x_max":738,"o":"m 304 0 l 304 851 l 13 851 l 13 978 l 738 978 l 738 851 l 446 851 l 446 0 l 304 0 z "},"Υ":{"ha":883,"x_min":-4,"x_max":888,"o":"m 371 0 l 371 385 l -4 978 l 163 978 l 446 518 l 728 978 l 888 978 l 514 386 l 514 0 l 371 0 z "},"Φ":{"ha":1222,"x_min":63,"x_max":1160,"o":"m 543 -7 l 543 72 q 510 75 526 74 q 478 79 494 76 q 248 153 340 96 q 109 298 156 211 q 63 488 63 385 q 109 678 63 592 q 248 824 156 765 q 478 899 340 882 q 510 903 494 901 q 543 906 526 906 l 543 985 l 683 985 l 683 906 q 717 903 701 906 q 749 899 733 901 q 975 823 883 882 q 1113 678 1067 764 q 1160 490 1160 592 q 1113 301 1160 388 q 975 156 1067 214 q 749 79 883 99 q 717 75 733 76 q 683 72 701 74 l 683 -7 l 543 -7 m 543 199 l 543 778 q 360 735 435 772 q 247 634 285 697 q 208 490 208 571 q 247 345 208 408 q 360 244 285 282 q 543 199 435 207 m 683 199 q 867 244 794 207 q 976 344 940 282 q 1013 486 1013 406 q 976 630 1013 567 q 867 732 940 693 q 683 778 794 771 l 683 199 z "},"Χ":{"ha":890,"x_min":11,"x_max":878,"o":"m 11 0 l 363 500 l 28 978 l 194 978 l 449 610 l 699 978 l 860 978 l 529 503 l 878 0 l 714 0 l 444 392 l 176 0 l 11 0 z "},"Ψ":{"ha":1133,"x_min":94,"x_max":1038,"o":"m 494 0 l 494 186 q 284 235 374 186 q 144 380 194 283 q 94 617 94 476 l 94 978 l 236 978 l 236 611 q 263 460 236 526 q 348 355 290 393 q 494 317 406 317 l 494 978 l 636 978 l 636 317 q 783 355 726 317 q 868 460 840 393 q 896 611 896 526 l 896 978 l 1038 978 l 1038 618 q 930 296 1038 406 q 638 186 822 186 l 638 0 l 494 0 z "},"Ω":{"ha":1206,"x_min":92,"x_max":1114,"o":"m 92 0 l 92 126 l 335 126 q 217 233 267 169 q 142 372 168 296 q 115 529 115 449 q 153 719 115 633 q 258 868 192 806 q 415 964 325 931 q 606 997 504 997 q 854 938 744 997 q 1027 773 964 879 q 1090 525 1090 667 q 1064 369 1090 444 q 989 232 1038 294 q 871 126 940 169 l 1114 126 l 1114 0 l 693 0 l 693 129 q 824 229 768 174 q 912 356 881 285 q 943 517 943 426 q 901 699 943 619 q 784 823 860 778 q 604 868 708 868 q 424 824 501 868 q 305 700 347 779 q 263 517 263 621 q 333 287 263 383 q 519 129 404 190 l 519 0 l 92 0 z "},"Ά":{"ha":1038,"x_min":-15,"x_max":1046,"o":"m 68 0 l 494 979 l 618 979 l 1046 0 l 889 0 l 781 257 l 332 257 l 221 0 l 68 0 m 382 379 l 731 379 l 556 811 l 382 379 m -15 842 l 114 1057 l 303 1057 l 83 842 l -15 842 z "},"Έ":{"ha":943,"x_min":-140,"x_max":854,"o":"m 176 0 l 176 978 l 840 978 l 840 851 l 321 851 l 321 558 l 799 558 l 799 436 l 321 436 l 321 126 l 854 126 l 854 0 l 176 0 m -140 842 l -11 1057 l 178 1057 l -42 842 l -140 842 z "},"Ή":{"ha":1081,"x_min":-140,"x_max":976,"o":"m 192 0 l 192 979 l 335 979 l 335 563 l 835 563 l 835 979 l 976 979 l 976 0 l 835 0 l 835 432 l 335 432 l 335 0 l 192 0 m -140 842 l -11 1057 l 178 1057 l -42 842 l -140 842 z "},"Ί":{"ha":353,"x_min":-196,"x_max":249,"o":"m 106 0 l 106 978 l 249 978 l 249 0 l 106 0 m -196 842 l -67 1057 l 122 1057 l -97 842 l -196 842 z "},"Ό":{"ha":1207,"x_min":-68,"x_max":1140,"o":"m 629 -19 q 425 19 518 -19 q 263 128 332 58 q 157 290 194 197 q 119 488 119 382 q 158 685 119 593 q 265 848 196 778 q 427 958 333 918 q 632 997 521 997 q 835 958 743 997 q 997 848 928 918 q 1103 687 1065 778 q 1140 492 1140 596 q 1102 292 1140 385 q 994 130 1064 200 q 832 20 925 60 q 629 -19 739 -19 m 631 110 q 818 160 736 110 q 947 297 900 211 q 993 486 993 383 q 967 633 993 564 q 893 754 942 701 q 778 838 844 807 q 631 868 713 868 q 441 817 524 868 q 312 681 358 767 q 265 492 265 596 q 312 298 265 385 q 441 160 358 211 q 631 110 524 110 m -68 842 l 61 1057 l 250 1057 l 31 842 l -68 842 z "},"Ύ":{"ha":1035,"x_min":-193,"x_max":1039,"o":"m 522 0 l 522 385 l 147 978 l 314 978 l 597 518 l 879 978 l 1039 978 l 665 386 l 665 0 l 522 0 m -193 842 l -64 1057 l 125 1057 l -94 842 l -193 842 z "},"Ώ":{"ha":1213,"x_min":-43,"x_max":1121,"o":"m 99 0 l 99 126 l 342 126 q 224 233 274 169 q 149 372 175 296 q 122 529 122 449 q 160 719 122 633 q 265 868 199 806 q 422 964 332 931 q 613 997 511 997 q 861 938 751 997 q 1034 773 971 879 q 1097 525 1097 667 q 1071 369 1097 444 q 996 232 1044 294 q 878 126 947 169 l 1121 126 l 1121 0 l 700 0 l 700 129 q 831 229 775 174 q 919 356 888 285 q 950 517 950 426 q 908 699 950 619 q 791 823 867 778 q 611 868 715 868 q 431 824 508 868 q 312 700 354 779 q 269 517 269 621 q 340 287 269 383 q 526 129 411 190 l 526 0 l 99 0 m -43 842 l 86 1057 l 275 1057 l 56 842 l -43 842 z "},"Ϊ":{"ha":386,"x_min":-42,"x_max":408,"o":"m 121 0 l 121 978 l 264 978 l 264 0 l 121 0 m 47 1100 q -17 1124 8 1100 q -42 1188 -42 1149 q -17 1251 -42 1226 q 47 1275 8 1275 q 110 1250 83 1275 q 138 1188 138 1225 q 110 1124 138 1149 q 47 1100 83 1100 m 319 1100 q 258 1124 283 1100 q 233 1188 233 1149 q 258 1249 233 1224 q 319 1275 282 1275 q 384 1250 360 1275 q 408 1188 408 1225 q 384 1124 408 1149 q 319 1100 360 1100 z "},"Ϋ":{"ha":883,"x_min":-4,"x_max":888,"o":"m 371 0 l 371 385 l -4 978 l 163 978 l 446 518 l 728 978 l 888 978 l 514 386 l 514 0 l 371 0 m 310 1100 q 246 1124 271 1100 q 221 1188 221 1149 q 246 1251 221 1226 q 310 1275 271 1275 q 373 1250 346 1275 q 400 1188 400 1225 q 373 1124 400 1149 q 310 1100 346 1100 m 582 1100 q 521 1124 546 1100 q 496 1188 496 1149 q 520 1249 496 1224 q 582 1275 544 1275 q 647 1250 622 1275 q 671 1188 671 1225 q 647 1124 671 1149 q 582 1100 622 1100 z "},"Ϗ":{"ha":824,"x_min":106,"x_max":826,"o":"m 438 -294 q 289 -276 360 -294 q 143 -226 218 -258 l 143 -87 q 239 -134 188 -112 q 342 -169 290 -156 q 439 -182 394 -182 q 560 -160 506 -182 q 647 -106 614 -139 q 679 -37 679 -72 l 249 467 l 249 0 l 106 0 l 106 978 l 249 978 l 249 569 l 613 978 l 792 978 l 379 526 l 826 0 q 797 -112 826 -58 q 716 -206 768 -165 q 592 -271 664 -247 q 438 -294 521 -294 z "},"α":{"ha":858,"x_min":47,"x_max":767,"o":"m 379 -15 q 243 13 304 -15 q 138 91 182 42 q 71 205 94 140 q 47 342 47 269 q 70 480 47 415 q 137 594 93 544 q 242 672 181 643 q 379 700 303 700 q 520 665 461 700 q 628 568 579 631 l 628 683 l 767 683 l 767 0 l 628 118 q 520 21 576 57 q 379 -15 464 -15 m 408 103 q 525 136 474 103 q 606 224 576 169 q 635 343 635 279 q 606 461 635 407 q 526 549 576 515 q 408 582 475 582 q 290 550 340 582 q 213 464 240 518 q 186 342 186 410 q 214 224 186 279 q 292 136 242 169 q 408 103 342 103 z "},"β":{"ha":847,"x_min":89,"x_max":800,"o":"m 89 -254 l 89 693 q 126 858 89 783 q 240 977 164 932 q 429 1022 315 1022 q 595 990 525 1022 q 703 899 665 957 q 742 765 742 842 q 694 629 742 682 q 569 542 647 576 q 694 499 643 535 q 773 408 746 464 q 800 283 800 353 q 758 130 800 197 q 645 24 715 63 q 492 -14 575 -14 q 340 21 408 -14 q 228 114 272 56 l 228 -254 l 89 -254 m 475 106 q 569 129 528 106 q 635 195 611 153 q 660 290 660 238 q 598 424 660 372 q 407 482 536 475 l 407 576 q 510 607 467 586 q 578 663 554 628 q 603 749 603 699 q 553 863 603 824 q 428 901 503 901 q 315 872 360 901 q 249 794 271 842 q 228 692 228 747 l 228 342 q 262 219 228 272 q 352 135 296 165 q 475 106 408 106 z "},"γ":{"ha":690,"x_min":-6,"x_max":696,"o":"m 276 -254 l 276 4 l -6 682 l 144 682 l 347 157 l 550 682 l 696 682 l 415 7 l 415 -254 l 276 -254 z "},"δ":{"ha":828,"x_min":47,"x_max":782,"o":"m 413 -15 q 228 31 311 -15 q 96 158 144 78 q 47 338 47 238 q 75 472 47 410 q 153 581 103 535 q 271 650 204 626 q 414 667 338 674 l 118 906 l 118 1022 l 683 1022 l 683 906 l 326 906 l 574 692 q 676 594 628 646 q 753 480 724 542 q 782 339 782 418 q 733 159 782 239 q 600 32 683 79 q 413 -15 517 -15 m 414 103 q 535 137 483 103 q 615 224 586 171 q 643 336 643 278 q 615 449 643 400 q 538 527 588 499 q 422 556 489 556 q 301 528 354 556 q 217 451 247 500 q 186 338 186 401 q 214 222 186 276 q 293 135 242 168 q 414 103 344 103 z "},"ε":{"ha":607,"x_min":47,"x_max":547,"o":"m 333 -15 q 192 11 257 -15 q 87 84 126 38 q 47 190 47 131 q 89 296 47 251 q 207 358 131 340 q 108 426 140 382 q 76 521 76 469 q 110 619 76 579 q 203 679 144 658 q 331 700 261 700 q 433 688 383 700 q 533 654 483 676 l 497 535 q 415 573 456 563 q 338 583 374 583 q 250 563 285 583 q 215 506 215 543 q 256 440 215 464 q 371 415 297 415 l 421 415 l 421 306 l 365 306 q 228 274 271 306 q 186 203 186 243 q 213 143 186 165 q 277 112 240 121 q 343 103 314 103 q 423 113 379 103 q 519 149 467 122 l 547 32 q 440 -3 494 8 q 333 -15 386 -15 z "},"ζ":{"ha":578,"x_min":47,"x_max":578,"o":"m 542 -232 l 413 -219 q 431 -165 425 -192 q 436 -117 436 -137 q 428 -74 436 -94 q 398 -36 421 -53 q 326 -11 375 -19 q 181 42 243 4 q 83 146 118 81 q 47 306 47 211 q 146 617 47 463 q 436 907 244 772 l 111 907 l 111 1022 l 578 1022 l 578 890 q 425 772 496 839 q 300 627 354 704 q 216 469 246 550 q 186 311 186 389 q 229 176 186 231 q 378 100 272 121 q 528 26 485 81 q 571 -97 571 -29 q 562 -171 571 -137 q 542 -232 553 -204 z "},"η":{"ha":775,"x_min":89,"x_max":693,"o":"m 89 0 l 89 683 l 231 594 q 322 669 268 640 q 449 699 376 699 q 583 666 529 699 q 665 574 638 633 q 693 433 693 514 l 693 0 l 554 0 l 554 392 q 531 501 554 461 q 473 559 508 542 q 400 576 438 576 q 324 560 364 576 q 256 503 283 543 q 228 392 228 463 l 228 0 l 89 0 z "},"θ":{"ha":832,"x_min":51,"x_max":781,"o":"m 415 -15 q 242 32 313 -15 q 131 156 172 79 q 70 322 89 232 q 51 496 51 411 q 70 682 51 589 q 131 852 89 775 q 244 976 174 929 q 417 1022 314 1022 q 588 976 518 1022 q 699 853 657 929 q 761 686 742 776 q 781 510 781 596 q 770 367 781 440 q 735 225 760 293 q 667 103 710 157 q 563 17 625 49 q 415 -15 501 -15 m 415 103 q 523 140 481 103 q 590 235 565 178 q 626 353 615 292 q 639 465 638 415 l 194 465 q 217 313 199 381 q 264 199 235 246 q 332 128 293 153 q 415 103 371 103 m 194 579 l 639 579 q 623 683 636 626 q 584 790 610 739 q 517 873 558 840 q 415 906 475 906 q 315 873 356 906 q 248 789 274 840 q 210 681 222 738 q 194 579 197 625 z "},"ι":{"ha":311,"x_min":89,"x_max":228,"o":"m 89 0 l 89 683 l 228 683 l 228 0 l 89 0 z "},"κ":{"ha":667,"x_min":89,"x_max":658,"o":"m 89 0 l 89 683 l 228 683 l 228 408 l 475 683 l 647 683 l 350 369 l 658 0 l 493 0 l 228 315 l 228 0 l 89 0 z "},"λ":{"ha":708,"x_min":6,"x_max":713,"o":"m 6 0 l 281 711 l 281 713 q 263 756 276 724 q 232 826 250 789 q 194 889 214 863 q 154 915 174 915 q 117 908 135 915 q 82 892 99 901 l 50 1003 q 108 1017 79 1011 q 167 1022 136 1022 q 243 1005 211 1022 q 298 958 275 988 q 338 894 321 929 q 369 824 354 860 l 713 0 l 567 0 l 351 551 l 156 0 l 6 0 z "},"μ":{"ha":800,"x_min":96,"x_max":699,"o":"m 96 -254 l 96 685 l 235 685 l 235 293 q 257 186 235 228 q 314 126 279 144 q 386 107 349 107 q 508 153 457 107 q 560 293 560 200 l 560 685 l 699 685 l 699 0 l 558 89 q 485 15 531 44 q 385 -14 440 -14 q 298 10 338 -14 q 235 82 258 33 l 235 -254 l 96 -254 z "},"ν":{"ha":703,"x_min":1,"x_max":703,"o":"m 285 -1 l 1 682 l 151 682 l 354 157 l 557 682 l 703 682 l 418 -1 l 285 -1 z "},"ξ":{"ha":579,"x_min":47,"x_max":564,"o":"m 536 -232 l 407 -219 q 424 -167 418 -192 q 431 -121 431 -143 q 425 -83 431 -106 q 396 -40 419 -61 q 318 -11 372 -19 q 185 37 247 1 q 85 130 124 72 q 47 267 47 188 q 75 386 47 332 q 151 478 103 440 q 260 528 199 515 q 151 606 190 556 q 111 719 111 656 q 150 832 111 782 q 265 906 189 882 l 93 906 l 93 1022 l 561 1022 l 561 901 q 452 894 507 901 q 351 869 397 888 q 278 816 306 850 q 250 728 250 782 q 301 624 250 663 q 472 585 353 585 l 472 469 q 323 452 388 469 q 222 394 258 435 q 186 283 186 354 q 233 162 186 207 q 368 100 281 117 q 490 54 447 85 q 548 -15 532 24 q 564 -94 564 -53 q 556 -169 564 -135 q 536 -232 547 -204 z "},"ο":{"ha":831,"x_min":47,"x_max":783,"o":"m 413 -15 q 224 32 307 -15 q 94 160 142 79 q 47 340 47 242 q 74 481 47 415 q 151 595 101 546 q 267 672 200 644 q 414 700 335 700 q 604 652 521 700 q 735 524 688 604 q 783 343 783 443 q 755 201 783 267 q 675 88 726 136 q 557 12 624 39 q 413 -15 490 -15 m 414 103 q 533 136 481 103 q 615 224 585 169 q 644 342 644 278 q 615 462 644 407 q 534 550 586 517 q 413 583 482 583 q 293 551 344 583 q 214 464 242 518 q 186 343 186 410 q 216 221 186 275 q 298 135 246 167 q 414 103 350 103 z "},"π":{"ha":761,"x_min":89,"x_max":679,"o":"m 89 0 l 89 683 l 679 683 l 679 0 l 540 0 l 540 569 l 228 569 l 228 0 l 89 0 z "},"ρ":{"ha":850,"x_min":82,"x_max":804,"o":"m 82 -254 l 82 343 q 129 529 82 449 q 258 655 176 610 q 444 700 340 700 q 628 655 547 700 q 757 530 710 610 q 804 343 804 450 q 781 206 804 271 q 715 92 758 142 q 609 15 671 43 q 471 -14 547 -14 q 329 18 392 -14 q 221 113 267 50 l 221 -254 l 82 -254 m 446 103 q 564 137 515 103 q 639 226 613 171 q 665 343 665 281 q 637 462 665 408 q 558 547 608 515 q 440 579 508 579 q 326 547 376 579 q 245 460 275 515 q 215 335 215 406 q 245 216 215 268 q 328 133 275 164 q 446 103 381 103 z "},"ς":{"ha":696,"x_min":67,"x_max":592,"o":"m 551 -232 l 422 -219 q 441 -166 433 -193 q 449 -110 449 -139 q 433 -67 449 -85 q 390 -34 418 -49 q 318 -6 361 -19 q 183 72 240 22 q 97 192 126 122 q 67 349 67 261 q 108 526 67 447 q 222 651 149 606 q 396 697 296 697 q 498 685 449 697 q 592 644 547 672 l 557 539 q 480 569 524 558 q 397 581 436 581 q 292 547 335 581 q 226 462 249 514 q 204 351 204 410 q 231 231 204 279 q 304 150 258 182 q 408 96 350 118 q 497 53 458 78 q 559 -9 536 28 q 582 -99 582 -46 q 574 -167 582 -135 q 551 -232 565 -200 z "},"σ":{"ha":874,"x_min":47,"x_max":854,"o":"m 413 -15 q 224 32 307 -15 q 94 158 142 79 q 47 332 47 238 q 74 462 47 399 q 150 575 100 525 q 273 654 200 625 q 439 683 346 683 l 854 683 l 854 567 l 656 567 q 753 461 724 525 q 783 331 783 397 q 752 195 783 258 q 669 85 721 132 q 550 11 617 38 q 413 -15 483 -15 m 414 103 q 533 134 481 103 q 615 217 585 165 q 644 333 644 269 q 583 501 644 436 q 417 567 521 567 q 294 535 346 567 q 215 451 243 504 q 186 335 186 399 q 216 222 186 275 q 298 135 246 168 q 414 103 350 103 z "},"τ":{"ha":536,"x_min":19,"x_max":517,"o":"m 371 -15 q 245 35 293 -15 q 197 178 197 85 l 197 567 l 19 567 l 19 683 l 517 683 l 517 567 l 333 567 l 333 190 q 349 126 333 150 q 401 103 364 103 q 432 107 417 103 q 458 119 447 111 l 458 4 q 418 -10 439 -6 q 371 -15 397 -15 z "},"υ":{"ha":765,"x_min":82,"x_max":685,"o":"m 386 -15 q 157 67 232 -15 q 82 307 82 150 l 82 685 l 221 685 l 221 282 q 260 156 221 207 q 383 106 300 106 q 503 157 460 106 q 546 281 546 208 l 546 685 l 685 685 l 685 311 q 652 135 685 208 q 553 24 619 63 q 386 -15 488 -15 z "},"φ":{"ha":1029,"x_min":51,"x_max":982,"o":"m 446 -250 l 446 -12 q 247 42 336 -4 q 104 172 157 88 q 51 374 51 256 q 93 558 51 471 q 208 707 135 644 l 358 707 q 228 542 268 622 q 189 385 189 461 q 219 242 189 304 q 308 144 250 181 q 446 103 365 108 l 446 307 q 453 449 446 378 q 484 579 460 519 q 561 674 508 639 q 706 710 614 710 q 856 669 794 710 q 950 556 918 629 q 982 385 982 483 q 953 225 982 296 q 873 103 925 154 q 748 24 821 53 q 585 -11 675 -6 l 585 -250 l 446 -250 m 585 104 q 778 181 713 114 q 844 379 843 247 q 832 473 844 424 q 789 557 819 522 q 704 592 758 592 q 644 572 672 592 q 601 502 617 551 q 585 365 585 453 l 585 104 z "},"χ":{"ha":701,"x_min":8,"x_max":694,"o":"m 8 -254 l 276 244 l 24 682 l 181 682 l 353 376 l 526 682 l 678 682 l 425 250 l 694 -254 l 538 -254 l 349 113 l 158 -254 l 8 -254 z "},"ψ":{"ha":1014,"x_min":82,"x_max":933,"o":"m 440 -254 l 440 -14 q 294 8 360 -14 q 181 72 228 29 q 108 177 133 114 q 82 324 82 240 l 82 685 l 221 685 l 221 328 q 240 216 221 260 q 291 148 260 172 q 361 115 322 124 q 439 106 400 106 l 439 1017 l 579 1017 l 579 106 q 653 117 615 106 q 723 153 690 128 q 775 220 756 178 q 794 325 794 263 l 794 685 l 933 685 l 933 326 q 906 169 933 233 q 828 64 878 104 q 715 5 779 24 q 579 -14 651 -14 l 579 -254 l 440 -254 z "},"ω":{"ha":1089,"x_min":47,"x_max":1043,"o":"m 331 -15 q 178 33 242 -15 q 81 163 115 81 q 47 346 47 244 q 90 546 47 457 q 206 707 132 635 l 357 707 q 258 588 296 646 q 203 469 221 529 q 186 344 186 410 q 204 217 186 275 q 256 126 222 160 q 335 93 290 93 q 403 118 376 93 q 446 183 431 143 q 467 265 461 222 q 474 344 474 308 l 474 508 l 614 508 l 614 344 q 634 194 614 249 q 686 116 654 139 q 753 93 718 93 q 833 126 800 93 q 885 215 867 158 q 904 344 904 272 q 887 468 904 408 q 831 587 869 528 q 732 707 793 646 l 885 707 q 1001 548 958 638 q 1043 346 1043 458 q 1008 161 1043 243 q 910 32 974 79 q 757 -15 846 -15 q 627 20 681 -15 q 544 110 574 56 q 460 19 514 53 q 331 -15 406 -15 z "},"ί":{"ha":311,"x_min":89,"x_max":433,"o":"m 89 0 l 89 683 l 228 683 l 228 0 l 89 0 m 115 913 l 244 1128 l 433 1128 l 214 913 l 115 913 z "},"ϊ":{"ha":367,"x_min":-40,"x_max":388,"o":"m 101 0 l 101 683 l 240 683 l 240 0 l 101 0 m 42 869 q -17 893 6 869 q -40 951 -40 917 q -17 1010 -40 986 q 42 1033 7 1033 q 100 1009 75 1033 q 125 951 125 985 q 100 893 125 917 q 42 869 75 869 m 306 869 q 249 893 272 869 q 226 951 226 917 q 249 1009 226 985 q 306 1033 272 1033 q 365 1009 342 1033 q 388 951 388 985 q 365 893 388 917 q 306 869 342 869 z "},"ΐ":{"ha":479,"x_min":-57,"x_max":532,"o":"m 160 0 l 160 683 l 299 683 l 299 0 l 160 0 m 117 904 l 236 1119 l 418 1119 l 213 904 l 117 904 m 29 900 q -32 925 -7 900 q -57 986 -57 950 q -32 1047 -57 1022 q 29 1072 -7 1072 q 90 1047 64 1072 q 117 986 117 1022 q 90 925 117 950 q 29 900 64 900 m 446 901 q 386 927 410 901 q 363 988 363 953 q 386 1048 363 1022 q 446 1074 410 1074 q 508 1048 485 1074 q 532 988 532 1022 q 508 926 532 951 q 446 901 485 901 z "},"ύ":{"ha":765,"x_min":82,"x_max":685,"o":"m 386 -15 q 157 67 232 -15 q 82 307 82 150 l 82 685 l 221 685 l 221 282 q 260 156 221 207 q 383 106 300 106 q 503 157 460 106 q 546 281 546 208 l 546 685 l 685 685 l 685 311 q 652 135 685 208 q 553 24 619 63 q 386 -15 488 -15 m 329 913 l 458 1128 l 647 1128 l 428 913 l 329 913 z "},"ϋ":{"ha":765,"x_min":82,"x_max":685,"o":"m 250 869 q 191 893 214 869 q 168 951 168 917 q 192 1010 168 986 q 250 1033 215 1033 q 308 1009 283 1033 q 333 951 333 985 q 308 893 333 917 q 250 869 283 869 m 514 869 q 458 893 481 869 q 435 951 435 917 q 458 1009 435 985 q 514 1033 481 1033 q 573 1009 550 1033 q 596 951 596 985 q 573 893 596 917 q 514 869 550 869 m 386 -15 q 157 67 232 -15 q 82 307 82 150 l 82 685 l 221 685 l 221 282 q 260 156 221 207 q 383 106 300 106 q 503 157 460 106 q 546 281 546 208 l 546 685 l 685 685 l 685 311 q 652 135 685 208 q 553 24 619 63 q 386 -15 488 -15 z "},"ΰ":{"ha":765,"x_min":82,"x_max":699,"o":"m 386 -15 q 157 67 232 -15 q 82 307 82 150 l 82 685 l 221 685 l 221 282 q 260 156 221 207 q 383 106 300 106 q 503 157 460 106 q 546 281 546 208 l 546 685 l 685 685 l 685 311 q 652 135 685 208 q 553 24 619 63 q 386 -15 488 -15 m 283 904 l 403 1119 l 585 1119 l 379 904 l 283 904 m 196 900 q 135 925 160 900 q 110 986 110 950 q 135 1047 110 1022 q 196 1072 160 1072 q 257 1047 231 1072 q 283 986 283 1022 q 257 925 283 950 q 196 900 231 900 m 613 901 q 553 927 576 901 q 529 988 529 953 q 553 1048 529 1022 q 613 1074 576 1074 q 675 1048 651 1074 q 699 988 699 1022 q 675 926 699 951 q 613 901 651 901 z "},"ό":{"ha":831,"x_min":47,"x_max":783,"o":"m 413 -15 q 224 32 307 -15 q 94 160 142 79 q 47 340 47 242 q 74 481 47 415 q 151 595 101 546 q 267 672 200 644 q 414 700 335 700 q 604 652 521 700 q 735 524 688 604 q 783 343 783 443 q 755 201 783 267 q 675 88 726 136 q 557 12 624 39 q 413 -15 490 -15 m 414 103 q 533 136 481 103 q 615 224 585 169 q 644 342 644 278 q 615 462 644 407 q 534 550 586 517 q 413 583 482 583 q 293 551 344 583 q 214 464 242 518 q 186 343 186 410 q 216 221 186 275 q 298 135 246 167 q 414 103 350 103 m 381 913 l 510 1128 l 699 1128 l 479 913 l 381 913 z "},"ώ":{"ha":1089,"x_min":47,"x_max":1043,"o":"m 331 -15 q 178 33 242 -15 q 81 163 115 81 q 47 346 47 244 q 90 546 47 457 q 206 707 132 635 l 357 707 q 258 588 296 646 q 203 469 221 529 q 186 344 186 410 q 204 217 186 275 q 256 126 222 160 q 335 93 290 93 q 403 118 376 93 q 446 183 431 143 q 467 265 461 222 q 474 344 474 308 l 474 508 l 614 508 l 614 344 q 634 194 614 249 q 686 116 654 139 q 753 93 718 93 q 833 126 800 93 q 885 215 867 158 q 904 344 904 272 q 887 468 904 408 q 831 587 869 528 q 732 707 793 646 l 885 707 q 1001 548 958 638 q 1043 346 1043 458 q 1008 161 1043 243 q 910 32 974 79 q 757 -15 846 -15 q 627 20 681 -15 q 544 110 574 56 q 460 19 514 53 q 331 -15 406 -15 m 490 913 l 619 1128 l 808 1128 l 589 913 l 490 913 z "},"ά":{"ha":858,"x_min":47,"x_max":767,"o":"m 379 -15 q 243 13 304 -15 q 138 91 182 42 q 71 205 94 140 q 47 342 47 269 q 70 480 47 415 q 137 594 93 544 q 242 672 181 643 q 379 700 303 700 q 520 665 461 700 q 628 568 579 631 l 628 683 l 767 683 l 767 0 l 628 118 q 520 21 576 57 q 379 -15 464 -15 m 408 103 q 525 136 474 103 q 606 224 576 169 q 635 343 635 279 q 606 461 635 407 q 526 549 576 515 q 408 582 475 582 q 290 550 340 582 q 213 464 240 518 q 186 342 186 410 q 214 224 186 279 q 292 136 242 169 q 408 103 342 103 m 329 913 l 458 1128 l 647 1128 l 428 913 l 329 913 z "},"έ":{"ha":642,"x_min":47,"x_max":583,"o":"m 333 -15 q 192 11 257 -15 q 87 84 126 38 q 47 190 47 131 q 89 296 47 251 q 207 358 131 340 q 108 426 140 382 q 76 521 76 469 q 110 619 76 579 q 203 679 144 658 q 331 700 261 700 q 433 688 383 700 q 533 654 483 676 l 497 535 q 415 573 456 563 q 338 583 374 583 q 250 563 285 583 q 215 506 215 543 q 256 440 215 464 q 371 415 297 415 l 421 415 l 421 306 l 365 306 q 228 274 271 306 q 186 203 186 243 q 213 143 186 165 q 277 112 240 121 q 343 103 314 103 q 423 113 379 103 q 519 149 467 122 l 547 32 q 440 -3 494 8 q 333 -15 386 -15 m 265 913 l 394 1128 l 583 1128 l 364 913 l 265 913 z "},"ή":{"ha":779,"x_min":89,"x_max":693,"o":"m 89 0 l 89 683 l 231 594 q 322 669 268 640 q 449 699 376 699 q 583 666 529 699 q 665 574 638 633 q 693 433 693 514 l 693 0 l 554 0 l 554 392 q 531 501 554 461 q 473 559 508 542 q 400 576 438 576 q 324 560 364 576 q 256 503 283 543 q 228 392 228 463 l 228 0 l 89 0 m 346 913 l 475 1128 l 664 1128 l 444 913 l 346 913 z "},"ϗ":{"ha":667,"x_min":89,"x_max":658,"o":"m 340 -267 q 219 -251 275 -267 q 103 -210 163 -236 l 103 -71 q 176 -114 136 -94 q 258 -144 215 -133 q 342 -154 300 -154 q 428 -139 389 -154 q 492 -95 468 -124 q 515 -28 515 -67 l 228 315 l 228 0 l 89 0 l 89 683 l 228 683 l 228 408 l 475 683 l 647 683 l 350 369 l 658 0 q 615 -138 658 -78 q 501 -233 572 -199 q 340 -267 429 -267 z "},"⁄":{"ha":376,"x_min":-186,"x_max":569,"o":"m -186 -75 l 442 1075 l 569 1075 l -62 -75 l -186 -75 z "},"½":{"ha":999,"x_min":26,"x_max":942,"o":"m 39 -75 l 667 1075 l 794 1075 l 163 -75 l 39 -75 m 107 397 l 107 857 q 67 819 89 836 q 26 790 46 801 l 26 893 q 85 942 58 918 q 132 990 113 965 l 215 990 l 215 397 l 107 397 m 519 -1 l 689 199 q 770 299 739 258 q 816 370 801 340 q 831 426 831 400 q 806 489 831 464 q 744 514 782 514 q 696 499 719 514 q 650 450 672 483 l 574 506 q 653 581 614 558 q 749 603 692 603 q 849 581 806 603 q 915 519 892 558 q 939 428 939 479 q 924 353 939 388 q 876 276 908 318 q 789 172 843 233 l 715 86 l 942 86 l 907 -1 l 519 -1 z "},"¼":{"ha":924,"x_min":22,"x_max":894,"o":"m 728 1 l 728 101 q 601 101 665 101 q 460 100 536 100 l 460 158 l 749 596 l 833 596 l 833 185 l 894 185 l 874 100 q 853 101 863 100 q 833 101 844 101 l 833 1 l 728 1 m 583 185 l 728 185 q 728 270 728 224 q 728 353 728 317 q 728 399 728 390 l 728 407 q 703 369 718 392 q 672 322 689 347 q 639 270 656 296 q 608 222 622 244 q 583 185 593 200 m 56 -75 l 683 1075 l 811 1075 l 179 -75 l 56 -75 m 103 397 l 103 857 q 63 819 85 836 q 22 790 42 801 l 22 893 q 81 942 54 918 q 128 990 108 965 l 211 990 l 211 397 l 103 397 z "},"¾":{"ha":1075,"x_min":31,"x_max":1046,"o":"m 219 386 q 126 402 165 386 q 63 453 86 418 q 31 543 39 488 l 136 543 q 167 488 146 503 q 226 472 189 472 q 306 503 275 472 q 338 582 338 535 q 326 626 338 604 q 285 663 314 647 q 204 678 257 678 q 188 677 200 678 q 172 676 176 676 l 172 758 l 196 758 q 276 782 244 758 q 308 849 308 806 q 288 899 308 879 q 232 918 267 918 q 184 903 203 918 q 153 847 165 888 l 53 847 q 84 938 61 904 q 144 988 107 972 q 231 1004 182 1004 q 323 987 282 1004 q 388 937 364 969 q 411 857 411 904 q 389 780 411 813 q 317 724 367 747 q 414 667 386 700 q 442 579 442 633 q 413 478 442 521 q 333 410 383 435 q 219 386 283 386 m 213 -75 l 840 1075 l 968 1075 l 336 -75 l 213 -75 m 879 1 l 879 101 q 752 101 817 101 q 611 100 688 100 l 611 158 l 900 596 l 985 596 l 985 185 l 1046 185 l 1025 100 q 1005 101 1014 100 q 985 101 996 101 l 985 1 l 879 1 m 735 185 l 879 185 q 879 270 879 224 q 879 353 879 317 q 879 399 879 390 l 879 407 q 855 369 869 392 q 824 322 840 347 q 790 270 807 296 q 759 222 774 244 q 735 185 744 200 z "},"⅛":{"ha":1026,"x_min":22,"x_max":967,"o":"m 54 -75 l 682 1075 l 810 1075 l 178 -75 l 54 -75 m 103 397 l 103 857 q 63 819 85 836 q 22 790 42 801 l 22 893 q 81 942 54 918 q 128 990 108 965 l 211 990 l 211 397 l 103 397 m 753 -15 q 644 8 693 -15 q 567 69 596 31 q 539 156 539 108 q 569 245 539 208 q 654 306 600 282 q 585 359 610 325 q 561 440 561 393 q 587 523 561 488 q 656 578 613 558 q 753 599 700 599 q 849 578 806 599 q 919 521 893 557 q 944 438 944 485 q 919 358 944 389 q 853 304 893 328 q 936 247 906 285 q 967 157 967 210 q 906 33 967 81 q 753 -15 844 -15 m 753 57 q 846 88 811 57 q 881 163 881 118 q 844 238 881 208 q 753 268 808 268 q 661 238 696 268 q 626 163 626 207 q 666 83 626 110 q 753 57 706 57 m 753 336 q 831 363 799 336 q 863 433 863 390 q 831 501 863 474 q 753 528 800 528 q 676 501 707 528 q 644 432 644 474 q 678 363 644 389 q 753 336 713 336 z "},"⅜":{"ha":1201,"x_min":31,"x_max":1140,"o":"m 222 -75 l 850 1075 l 978 1075 l 346 -75 l 222 -75 m 926 -15 q 818 8 867 -15 q 741 69 769 31 q 713 156 713 108 q 743 245 713 208 q 828 306 774 282 q 759 359 783 325 q 735 440 735 393 q 760 523 735 488 q 830 578 786 558 q 926 599 874 599 q 1023 578 979 599 q 1092 521 1067 557 q 1118 438 1118 485 q 1092 358 1118 389 q 1026 304 1067 328 q 1110 247 1079 285 q 1140 157 1140 210 q 1079 33 1140 81 q 926 -15 1018 -15 m 926 57 q 1019 88 985 57 q 1054 163 1054 118 q 1018 238 1054 208 q 926 268 982 268 q 835 238 869 268 q 800 163 800 207 q 840 83 800 110 q 926 57 879 57 m 926 336 q 1004 363 972 336 q 1036 433 1036 390 q 1005 501 1036 474 q 926 528 974 528 q 849 501 881 528 q 818 432 818 474 q 852 363 818 389 q 926 336 886 336 m 219 386 q 126 402 165 386 q 63 453 86 418 q 31 543 39 488 l 136 543 q 167 488 146 503 q 226 472 189 472 q 306 503 275 472 q 338 582 338 535 q 326 626 338 604 q 285 663 314 647 q 204 678 257 678 q 188 677 200 678 q 172 676 176 676 l 172 758 l 196 758 q 276 782 244 758 q 308 849 308 806 q 288 899 308 879 q 232 918 267 918 q 184 903 203 918 q 153 847 165 888 l 53 847 q 84 938 61 904 q 144 988 107 972 q 231 1004 182 1004 q 323 987 282 1004 q 388 937 364 969 q 411 857 411 904 q 389 780 411 813 q 317 724 367 747 q 414 667 386 700 q 442 579 442 633 q 413 478 442 521 q 333 410 383 435 q 219 386 283 386 z "},"⅝":{"ha":1179,"x_min":40,"x_max":1118,"o":"m 210 -75 l 838 1075 l 965 1075 l 333 -75 l 210 -75 m 231 403 q 124 424 168 403 q 40 485 81 446 l 89 540 q 155 493 119 510 q 231 476 190 476 q 324 509 290 476 q 358 596 358 542 q 320 676 358 644 q 224 708 282 708 q 180 703 200 708 q 140 690 160 699 l 81 721 l 106 990 l 422 990 l 417 917 l 172 917 l 157 760 q 201 774 181 769 q 244 779 221 779 q 342 758 297 779 q 415 695 388 736 q 442 597 442 654 q 383 456 442 510 q 231 403 325 403 m 904 -15 q 796 8 844 -15 q 719 69 747 31 q 690 156 690 108 q 721 245 690 208 q 806 306 751 282 q 737 359 761 325 q 713 440 713 393 q 738 523 713 488 q 808 578 764 558 q 904 599 851 599 q 1001 578 957 599 q 1070 521 1044 557 q 1096 438 1096 485 q 1070 358 1096 389 q 1004 304 1044 328 q 1088 247 1057 285 q 1118 157 1118 210 q 1057 33 1118 81 q 904 -15 996 -15 m 904 57 q 997 88 963 57 q 1032 163 1032 118 q 996 238 1032 208 q 904 268 960 268 q 813 238 847 268 q 778 163 778 207 q 817 83 778 110 q 904 57 857 57 m 904 336 q 982 363 950 336 q 1014 433 1014 390 q 983 501 1014 474 q 904 528 951 528 q 827 501 858 528 q 796 432 796 474 q 830 363 796 389 q 904 336 864 336 z "},"⅞":{"ha":1043,"x_min":26,"x_max":983,"o":"m 50 -75 l 678 1075 l 806 1075 l 174 -75 l 50 -75 m 769 -15 q 661 8 710 -15 q 584 69 613 31 q 556 156 556 108 q 586 245 556 208 q 671 306 617 282 q 602 359 626 325 q 578 440 578 393 q 603 523 578 488 q 673 578 629 558 q 769 599 717 599 q 866 578 822 599 q 935 521 910 557 q 961 438 961 485 q 935 358 961 389 q 869 304 910 328 q 953 247 922 285 q 983 157 983 210 q 922 33 983 81 q 769 -15 861 -15 m 769 57 q 863 88 828 57 q 897 163 897 118 q 861 238 897 208 q 769 268 825 268 q 678 238 713 268 q 643 163 643 207 q 683 83 643 110 q 769 57 722 57 m 769 336 q 847 363 815 336 q 879 433 879 390 q 848 501 879 474 q 769 528 817 528 q 692 501 724 528 q 661 432 661 474 q 695 363 661 389 q 769 336 729 336 m 61 406 l 343 917 l 26 917 l 26 992 l 433 992 l 433 918 l 154 406 l 61 406 z "},"⁰":{"ha":482,"x_min":11,"x_max":475,"o":"m 242 383 q 116 422 168 383 q 38 531 64 461 q 11 692 11 600 q 38 851 11 782 q 116 959 64 919 q 243 999 168 999 q 351 972 307 999 q 423 902 396 946 q 463 803 450 858 q 475 692 475 749 q 448 533 475 603 q 369 423 421 463 q 242 383 318 383 m 244 460 q 349 525 313 460 q 385 690 385 590 q 348 858 385 794 q 242 922 311 922 q 172 899 200 922 q 129 841 144 876 q 108 767 114 806 q 101 694 101 728 q 138 524 101 588 q 244 460 174 460 z "},"¹":{"ha":333,"x_min":38,"x_max":226,"o":"m 118 397 l 118 857 q 78 819 100 836 q 38 790 57 801 l 38 893 q 97 942 69 918 q 143 990 124 965 l 226 990 l 226 397 l 118 397 z "},"²":{"ha":485,"x_min":19,"x_max":442,"o":"m 19 396 l 189 596 q 270 697 239 656 q 316 767 301 738 q 331 824 331 797 q 306 886 331 861 q 244 911 282 911 q 196 896 219 911 q 150 847 172 881 l 74 903 q 153 978 114 956 q 249 1000 192 1000 q 349 978 306 1000 q 415 916 392 956 q 439 825 439 876 q 424 750 439 785 q 376 673 408 715 q 289 569 343 631 l 215 483 l 442 483 l 407 396 l 19 396 z "},"³":{"ha":457,"x_min":13,"x_max":424,"o":"m 201 386 q 108 402 147 386 q 44 453 68 418 q 13 543 21 488 l 118 543 q 149 488 128 503 q 208 472 171 472 q 288 503 257 472 q 319 582 319 535 q 308 626 319 604 q 267 663 296 647 q 186 678 239 678 q 170 677 182 678 q 154 676 158 676 l 154 758 l 178 758 q 258 782 226 758 q 290 849 290 806 q 269 899 290 879 q 214 918 249 918 q 166 903 185 918 q 135 847 147 888 l 35 847 q 66 938 43 904 q 126 988 89 972 q 213 1004 164 1004 q 305 987 264 1004 q 369 937 346 969 q 393 857 393 904 q 371 780 393 813 q 299 724 349 747 q 396 667 368 700 q 424 579 424 633 q 394 478 424 521 q 315 410 365 435 q 201 386 265 386 z "},"⁴":{"ha":482,"x_min":10,"x_max":444,"o":"m 278 399 l 278 499 q 151 498 215 499 q 10 497 86 497 l 10 556 l 299 993 l 383 993 l 383 582 l 444 582 l 424 497 q 403 498 413 497 q 383 499 394 499 l 383 399 l 278 399 m 133 582 l 278 582 q 278 667 278 621 q 278 751 278 714 q 278 796 278 788 l 278 804 q 253 767 268 789 q 222 719 239 744 q 189 667 206 693 q 158 619 172 642 q 133 582 143 597 z "},"⁵":{"ha":482,"x_min":24,"x_max":425,"o":"m 214 393 q 108 415 151 393 q 24 475 64 436 l 72 531 q 138 483 103 500 q 214 467 174 467 q 308 499 274 467 q 342 586 342 532 q 303 667 342 635 q 207 699 265 699 q 163 694 183 699 q 124 681 143 689 l 64 711 l 89 981 l 406 981 l 400 907 l 156 907 l 140 750 q 184 765 164 760 q 228 769 204 769 q 326 748 281 769 q 398 685 371 726 q 425 588 425 644 q 367 447 425 500 q 214 393 308 393 z "},"⁶":{"ha":482,"x_min":31,"x_max":449,"o":"m 243 386 q 91 438 151 386 q 31 583 31 490 q 40 641 31 613 q 69 702 50 669 q 115 778 88 735 l 251 983 l 346 983 l 174 731 q 219 752 197 747 q 267 757 240 757 q 397 709 344 757 q 449 579 449 661 q 422 478 449 522 q 348 410 394 435 q 243 386 301 386 m 242 457 q 329 490 294 457 q 364 576 364 524 q 331 658 364 626 q 242 690 297 690 q 151 656 185 690 q 117 574 117 622 q 155 490 117 522 q 242 457 193 457 z "},"⁷":{"ha":482,"x_min":81,"x_max":488,"o":"m 115 397 l 397 908 l 81 908 l 81 983 l 488 983 l 488 910 l 208 397 l 115 397 z "},"⁸":{"ha":482,"x_min":33,"x_max":461,"o":"m 247 385 q 139 408 188 385 q 62 469 90 431 q 33 556 33 508 q 64 645 33 608 q 149 706 94 682 q 80 759 104 725 q 56 840 56 793 q 81 923 56 888 q 151 978 107 958 q 247 999 194 999 q 344 978 300 999 q 413 921 388 957 q 439 838 439 885 q 413 758 439 789 q 347 704 388 728 q 431 647 400 685 q 461 557 461 610 q 400 433 461 481 q 247 385 339 385 m 247 457 q 340 488 306 457 q 375 563 375 518 q 339 638 375 608 q 247 668 303 668 q 156 638 190 668 q 121 563 121 607 q 160 483 121 510 q 247 457 200 457 m 247 736 q 325 763 293 736 q 357 833 357 790 q 326 901 357 874 q 247 928 294 928 q 170 901 201 928 q 139 832 139 874 q 173 763 139 789 q 247 736 207 736 z "},"⁹":{"ha":482,"x_min":56,"x_max":483,"o":"m 164 388 l 336 647 q 293 624 314 631 q 244 617 272 617 q 149 640 192 617 q 81 704 106 663 q 56 801 56 746 q 83 905 56 860 q 159 975 111 950 q 265 1000 207 1000 q 422 944 361 1000 q 483 797 483 889 q 459 698 483 744 q 403 604 435 651 l 257 388 l 164 388 m 269 689 q 359 723 324 689 q 394 807 394 757 q 358 894 394 861 q 268 926 321 926 q 178 892 213 926 q 144 807 144 858 q 178 722 144 756 q 269 689 213 689 z "}," ":{"ha":389,"x_min":0,"x_max":0,"o":""}," ":{"ha":389,"x_min":0,"x_max":0,"o":""},"\r":{"ha":708,"x_min":0,"x_max":0,"o":""}," ":{"ha":833,"x_min":0,"x_max":0,"o":""}," ":{"ha":833,"x_min":0,"x_max":0,"o":""},"·":{"ha":417,"x_min":113,"x_max":303,"o":"m 208 393 q 140 421 168 393 q 113 489 113 449 q 140 557 113 531 q 208 583 168 583 q 275 556 247 583 q 303 489 303 529 q 275 421 303 449 q 208 393 247 393 z "},";":{"ha":363,"x_min":42,"x_max":272,"o":"m 42 -199 l 107 185 l 263 185 l 153 -199 l 42 -199 m 176 506 q 108 532 135 506 q 81 601 81 558 q 108 669 81 643 q 176 696 136 696 q 244 669 215 696 q 272 601 272 643 q 244 532 272 558 q 176 506 215 506 z "},"-":{"ha":471,"x_min":42,"x_max":431,"o":"m 42 315 l 42 443 l 431 443 l 431 315 l 42 315 z "},"–":{"ha":606,"x_min":-3,"x_max":608,"o":"m -3 310 l -3 435 l 608 435 l 608 310 l -3 310 z "},"—":{"ha":978,"x_min":-1,"x_max":979,"o":"m -1 315 l -1 440 l 979 440 l 979 315 l -1 315 z "},"―":{"ha":1067,"x_min":43,"x_max":1024,"o":"m 43 315 l 43 440 l 1024 440 l 1024 315 l 43 315 z "},"_":{"ha":789,"x_min":0,"x_max":789,"o":"m 0 -207 l 0 -106 l 789 -106 l 789 -207 l 0 -207 z "},"(":{"ha":568,"x_min":104,"x_max":501,"o":"m 431 -219 q 191 48 278 -106 q 104 396 104 201 q 142 633 104 525 q 253 837 181 742 q 429 1017 325 932 l 501 932 q 306 685 371 813 q 242 396 242 557 q 273 190 242 283 q 362 17 304 97 q 500 -137 419 -62 l 431 -219 z "},")":{"ha":571,"x_min":67,"x_max":467,"o":"m 140 -219 l 68 -137 q 267 112 204 -17 q 329 396 329 240 q 299 603 329 510 q 211 778 269 697 q 67 932 153 860 l 142 1017 q 383 736 299 886 q 467 396 467 586 q 381 52 467 204 q 140 -219 294 -100 z "},"{":{"ha":576,"x_min":57,"x_max":519,"o":"m 506 -212 q 361 -191 418 -207 q 271 -143 304 -175 q 224 -55 238 -111 q 211 89 211 1 q 211 183 211 138 q 200 264 211 228 q 156 322 189 300 q 57 343 122 343 l 57 457 q 133 467 103 457 q 181 497 163 476 q 206 548 199 517 q 214 622 214 579 q 217 756 214 696 q 232 861 219 815 q 275 940 244 907 q 361 991 306 972 q 506 1014 417 1010 l 519 919 q 429 894 468 908 q 369 849 390 879 q 347 758 347 818 q 349 647 347 700 q 344 549 351 594 q 306 467 336 504 q 214 401 276 429 q 300 340 271 375 q 339 261 329 304 q 349 168 349 218 q 349 63 349 118 q 359 -16 349 15 q 390 -67 369 -47 q 444 -98 411 -86 q 519 -118 476 -110 l 506 -212 z "},"}":{"ha":576,"x_min":57,"x_max":519,"o":"m 71 -212 l 57 -118 q 133 -98 101 -110 q 187 -67 165 -86 q 219 -16 208 -47 q 229 63 229 15 q 229 168 229 118 q 238 261 229 218 q 276 340 247 304 q 364 401 306 375 q 276 463 306 428 q 238 540 247 497 q 229 633 229 583 q 229 740 229 683 q 219 817 229 786 q 187 868 208 849 q 133 899 165 888 q 57 919 101 911 l 71 1014 q 206 996 150 1010 q 298 951 263 982 q 349 867 333 919 q 365 733 365 815 q 363 634 365 683 q 371 544 361 585 q 414 479 381 503 q 519 457 447 456 l 519 343 q 445 334 475 343 q 397 306 415 325 q 372 256 379 286 q 364 182 364 225 q 361 43 364 104 q 346 -64 358 -18 q 302 -141 333 -110 q 215 -190 271 -172 q 71 -212 160 -208 z "},"[":{"ha":543,"x_min":111,"x_max":469,"o":"m 111 -212 l 111 1003 l 469 1003 l 469 896 l 240 896 l 240 -107 l 469 -107 l 469 -212 l 111 -212 z "},"]":{"ha":546,"x_min":74,"x_max":435,"o":"m 74 -214 l 74 -107 l 304 -107 l 304 894 l 74 894 l 74 1003 l 435 1003 l 435 -214 l 74 -214 z "},"‚":{"ha":399,"x_min":90,"x_max":303,"o":"m 90 -203 l 161 165 l 303 165 l 194 -203 l 90 -203 z "},"„":{"ha":654,"x_min":90,"x_max":558,"o":"m 90 -203 l 163 165 l 303 165 l 194 -203 l 90 -203 m 347 -203 l 419 165 l 558 165 l 453 -203 l 347 -203 z "},"“":{"ha":625,"x_min":79,"x_max":547,"o":"m 335 638 l 443 1006 l 547 1006 l 475 638 l 335 638 m 79 638 l 185 1006 l 290 1006 l 218 638 l 79 638 z "},"”":{"ha":625,"x_min":78,"x_max":546,"o":"m 78 638 l 150 1006 l 290 1006 l 182 638 l 78 638 m 335 638 l 407 1006 l 546 1006 l 440 638 l 335 638 z "},"‘":{"ha":369,"x_min":79,"x_max":293,"o":"m 79 647 l 186 1017 l 293 1017 l 219 647 l 79 647 z "},"’":{"ha":369,"x_min":78,"x_max":290,"o":"m 78 647 l 150 1017 l 290 1017 l 182 647 l 78 647 z "},"‛":{"ha":369,"x_min":79,"x_max":293,"o":"m 188 647 l 79 1017 l 221 1017 l 293 647 l 188 647 z "},"«":{"ha":771,"x_min":63,"x_max":696,"o":"m 583 58 l 368 351 l 583 650 l 696 607 l 515 356 l 694 106 l 583 58 m 278 58 l 63 351 l 278 650 l 390 607 l 210 356 l 389 106 l 278 58 z "},"»":{"ha":771,"x_min":68,"x_max":701,"o":"m 485 58 l 375 106 l 553 356 l 372 607 l 485 650 l 701 351 l 485 58 m 181 58 l 69 106 l 249 356 l 68 607 l 181 650 l 396 351 l 181 58 z "},"‹":{"ha":464,"x_min":63,"x_max":390,"o":"m 278 49 l 63 342 l 278 640 l 390 599 l 210 346 l 389 97 l 278 49 z "},"›":{"ha":465,"x_min":75,"x_max":403,"o":"m 189 49 l 79 97 l 256 346 l 75 599 l 188 640 l 403 342 l 189 49 z "},"\"":{"ha":658,"x_min":103,"x_max":557,"o":"m 369 592 l 404 982 l 557 982 l 557 982 l 543 919 l 456 592 l 369 592 m 103 592 l 138 982 l 290 982 l 290 982 l 276 919 l 189 592 l 103 592 z "},"'":{"ha":394,"x_min":103,"x_max":292,"o":"m 103 592 l 138 982 l 292 982 l 292 982 l 278 919 l 190 592 l 103 592 z "},".":{"ha":417,"x_min":113,"x_max":303,"o":"m 208 -15 q 140 13 168 -15 q 113 81 113 40 q 140 149 113 122 q 208 175 168 175 q 275 148 247 175 q 303 81 303 121 q 275 13 303 40 q 208 -15 247 -15 z "},",":{"ha":357,"x_min":42,"x_max":261,"o":"m 42 -199 l 107 185 l 261 185 l 153 -199 l 42 -199 z "},":":{"ha":418,"x_min":113,"x_max":304,"o":"m 210 506 q 139 532 165 506 q 113 601 113 558 q 140 671 113 646 q 210 696 167 696 q 276 669 247 696 q 304 601 304 643 q 276 532 304 558 q 210 506 247 506 m 210 -15 q 139 13 165 -15 q 113 82 113 40 q 140 151 113 126 q 210 176 167 176 q 276 149 247 176 q 304 82 304 122 q 276 13 304 40 q 210 -15 247 -15 z "},";":{"ha":363,"x_min":42,"x_max":272,"o":"m 42 -199 l 107 185 l 263 185 l 153 -199 l 42 -199 m 176 506 q 108 532 135 506 q 81 601 81 558 q 108 669 81 643 q 176 696 136 696 q 244 669 215 696 q 272 601 272 643 q 244 532 272 558 q 176 506 215 506 z "},"…":{"ha":1144,"x_min":113,"x_max":1032,"o":"m 208 -15 q 140 13 168 -15 q 113 81 113 40 q 140 149 113 122 q 208 175 168 175 q 275 148 247 175 q 303 81 303 121 q 275 13 303 40 q 208 -15 247 -15 m 572 -15 q 504 13 532 -15 q 476 81 476 40 q 504 149 476 122 q 572 175 532 175 q 639 148 611 175 q 667 81 667 121 q 639 13 667 40 q 572 -15 611 -15 m 938 -15 q 869 13 897 -15 q 842 81 842 40 q 869 149 842 122 q 938 175 897 175 q 1004 148 976 175 q 1032 81 1032 121 q 1004 13 1032 40 q 938 -15 976 -15 z "},"!":{"ha":415,"x_min":115,"x_max":303,"o":"m 167 288 l 132 861 l 128 978 l 290 978 l 286 861 l 253 288 l 167 288 m 210 -15 q 143 10 171 -15 q 115 78 115 35 q 144 142 115 117 q 210 168 172 168 q 276 142 250 168 q 303 78 303 115 q 276 10 303 35 q 210 -15 250 -15 z "},"¡":{"ha":415,"x_min":113,"x_max":301,"o":"m 125 -249 l 132 -83 l 164 443 l 251 443 l 283 -83 l 289 -249 l 125 -249 m 207 563 q 140 588 168 563 q 113 653 113 613 q 140 719 113 696 q 207 743 168 743 q 273 719 244 743 q 301 653 301 696 q 274 588 301 614 q 207 563 246 563 z "},"?":{"ha":633,"x_min":71,"x_max":563,"o":"m 200 271 l 200 353 q 219 456 200 413 q 269 532 239 499 q 329 593 299 565 q 394 663 367 628 q 422 744 422 697 q 386 830 422 792 q 283 868 350 868 q 163 833 215 868 q 71 744 111 797 l 71 893 q 167 967 107 940 q 303 994 228 994 q 438 965 379 994 q 529 883 496 936 q 563 756 563 829 q 545 656 563 700 q 499 576 528 613 q 432 508 469 540 q 359 424 382 464 q 336 315 336 383 l 336 271 l 200 271 m 275 -14 q 210 10 238 -14 q 182 78 182 35 q 210 142 182 117 q 275 168 238 168 q 343 142 315 168 q 371 78 371 115 q 343 10 371 35 q 275 -14 315 -14 z "},"¿":{"ha":628,"x_min":69,"x_max":560,"o":"m 328 -268 q 193 -238 251 -268 q 102 -154 135 -208 q 69 -28 69 -100 q 86 70 69 26 q 133 151 103 114 q 199 218 163 188 q 273 303 251 263 q 294 413 294 343 l 294 457 l 431 457 l 431 375 q 412 272 431 317 q 363 194 393 228 q 301 133 333 161 q 237 65 265 100 q 208 -18 208 29 q 244 -103 208 -65 q 349 -142 281 -142 q 468 -106 415 -142 q 560 -18 521 -69 l 560 -167 q 463 -240 524 -212 q 328 -268 403 -268 m 356 558 q 288 585 315 558 q 260 650 260 611 q 288 716 260 692 q 356 740 315 740 q 422 716 393 740 q 450 650 450 692 q 422 585 450 611 q 356 558 394 558 z "},"·":{"ha":417,"x_min":113,"x_max":303,"o":"m 208 399 q 140 426 168 399 q 113 494 113 454 q 140 563 113 536 q 208 589 168 589 q 275 562 247 589 q 303 494 303 535 q 275 426 303 454 q 208 399 247 399 z "},"•":{"ha":646,"x_min":113,"x_max":532,"o":"m 322 296 q 217 324 265 296 q 141 400 169 353 q 113 504 113 447 q 140 609 113 561 q 216 686 168 657 q 322 715 264 715 q 428 688 381 715 q 503 612 475 660 q 532 506 532 564 q 504 399 532 447 q 428 324 476 351 q 322 296 381 296 z "},"*":{"ha":506,"x_min":36,"x_max":469,"o":"m 210 588 l 210 746 l 65 697 l 36 782 l 182 832 l 90 953 l 164 1004 l 254 885 l 343 1004 l 417 956 l 328 831 l 469 782 l 442 697 l 299 744 l 299 588 l 210 588 z "},"‼":{"ha":731,"x_min":115,"x_max":618,"o":"m 167 288 l 132 861 l 128 978 l 290 978 l 286 861 l 253 288 l 167 288 m 210 -15 q 143 10 171 -15 q 115 78 115 35 q 144 142 115 117 q 210 168 172 168 q 276 142 250 168 q 303 78 303 115 q 276 10 303 35 q 210 -15 250 -15 m 482 288 l 447 861 l 443 978 l 606 978 l 601 861 l 568 288 l 482 288 m 525 -15 q 458 10 486 -15 q 431 78 431 35 q 459 142 431 117 q 525 168 488 168 q 592 142 565 168 q 618 78 618 115 q 592 10 618 35 q 525 -15 565 -15 z "},"#":{"ha":868,"x_min":35,"x_max":836,"o":"m 133 0 l 174 257 l 35 257 l 35 376 l 193 376 l 231 611 l 81 611 l 81 732 l 249 732 l 286 979 l 404 979 l 367 732 l 585 732 l 621 979 l 739 979 l 703 732 l 836 732 l 836 611 l 683 611 l 646 376 l 790 376 l 790 256 l 626 256 l 589 0 l 471 0 l 508 256 l 290 256 l 251 0 l 133 0 m 308 375 l 529 375 l 567 611 l 346 611 l 308 375 z "},"/":{"ha":719,"x_min":3,"x_max":726,"o":"m 3 -119 l 601 1092 l 726 1092 l 124 -119 l 3 -119 z "},"\\":{"ha":697,"x_min":3,"x_max":696,"o":"m 578 -165 l 3 1075 l 118 1089 l 696 -153 l 578 -165 z "},"ƒ":{"ha":550,"x_min":-29,"x_max":519,"o":"m -29 -157 l 111 506 l 0 506 l 22 618 l 133 618 l 160 747 q 221 899 181 844 q 313 975 261 953 q 421 997 365 997 q 473 994 449 997 q 519 983 497 990 l 497 868 q 469 878 485 875 q 438 881 453 881 q 345 844 382 881 q 289 703 308 807 l 272 618 l 415 618 l 394 506 l 251 506 l 106 -157 l -29 -157 z "},"ʹ":{"ha":593,"x_min":142,"x_max":460,"o":"m 142 829 l 271 1128 l 460 1128 l 240 829 l 142 829 z "},"͵":{"ha":593,"x_min":107,"x_max":425,"o":"m 107 -262 l 325 38 l 425 38 l 294 -262 l 107 -262 z "},"¢":{"ha":681,"x_min":49,"x_max":621,"o":"m 285 40 l 301 174 q 169 244 226 194 q 81 363 113 293 q 49 511 49 432 q 91 692 49 614 q 210 817 133 771 q 388 869 286 864 l 400 979 l 500 979 l 488 860 q 554 838 521 853 q 621 797 588 822 l 621 663 q 556 714 597 690 q 467 743 515 738 l 411 274 q 526 303 472 274 q 619 375 579 332 l 619 239 q 526 181 579 201 q 401 158 472 160 l 386 40 l 285 40 m 319 288 l 375 750 q 232 683 283 743 q 181 517 181 622 q 217 376 181 431 q 319 288 253 321 z "},"¤":{"ha":968,"x_min":65,"x_max":904,"o":"m 140 35 l 65 111 l 199 244 q 147 340 164 289 q 131 456 131 390 q 145 567 131 519 q 196 665 160 615 l 65 794 l 140 871 l 272 740 q 373 793 319 776 q 485 810 426 810 q 599 792 546 810 q 696 742 651 775 l 826 871 l 904 794 l 775 668 q 825 568 807 618 q 843 456 843 518 q 824 340 843 393 q 772 240 806 288 l 904 111 l 828 35 l 694 167 q 594 118 646 135 q 485 101 543 101 q 376 118 426 101 q 276 168 325 135 l 140 35 m 485 215 q 607 247 554 215 q 689 334 660 279 q 718 454 718 389 q 689 578 718 524 q 607 665 660 633 q 485 697 554 697 q 364 665 417 697 q 281 579 311 633 q 251 456 251 525 q 281 335 251 389 q 363 248 310 281 q 485 215 415 215 z "},"$":{"ha":803,"x_min":40,"x_max":744,"o":"m 358 -133 l 358 -4 q 178 37 258 -4 q 40 140 99 78 l 121 229 q 225 148 165 182 q 360 108 285 114 l 360 436 q 153 546 226 481 q 79 721 79 611 q 115 851 79 794 q 215 943 151 908 q 358 985 278 978 l 358 1075 l 458 1075 l 458 985 q 607 940 550 976 q 697 861 664 904 l 615 776 q 547 837 589 813 q 456 867 506 861 l 456 550 q 674 437 604 501 q 744 271 744 372 q 708 137 744 196 q 606 42 671 78 q 458 -4 542 6 l 458 -133 l 358 -133 m 457 110 q 572 160 536 121 q 608 253 608 199 q 587 327 608 297 q 531 376 565 357 q 457 408 496 396 l 457 110 m 360 581 l 360 869 q 251 826 288 863 q 215 735 215 789 q 237 663 215 692 q 292 615 258 633 q 360 581 325 596 z "},"€":{"ha":792,"x_min":51,"x_max":768,"o":"m 461 -24 q 278 19 356 -24 q 151 135 201 63 q 76 297 100 207 q 51 482 51 388 q 76 673 51 581 q 152 840 100 765 q 285 959 204 915 q 479 1003 367 1003 q 649 966 583 1003 q 767 865 715 929 l 669 781 q 587 851 631 825 q 478 876 543 876 q 349 842 403 876 q 260 751 294 807 q 208 631 225 696 q 189 506 190 567 l 518 506 l 518 404 l 196 404 q 232 261 201 331 q 321 147 263 192 q 468 103 379 103 q 584 130 533 103 q 671 201 635 157 l 768 117 q 640 13 715 50 q 461 -24 564 -24 z "},"£":{"ha":767,"x_min":40,"x_max":739,"o":"m 135 0 l 135 414 l 40 414 l 40 524 l 135 524 l 135 656 q 172 831 135 754 q 281 951 210 907 q 456 994 353 994 q 620 958 551 994 q 739 860 689 922 l 644 769 q 566 840 608 814 q 456 865 524 865 q 354 837 393 865 q 297 760 315 808 q 279 654 279 713 l 279 524 l 618 524 l 618 414 l 279 414 l 279 119 l 728 119 l 728 0 l 135 0 z "},"¥":{"ha":842,"x_min":0,"x_max":843,"o":"m 353 0 l 353 190 l 96 190 l 96 296 l 354 296 l 340 411 l 96 411 l 96 517 l 296 517 l 0 978 l 164 978 l 425 539 l 683 978 l 843 978 l 547 517 l 746 517 l 746 411 l 503 411 l 493 296 l 746 296 l 746 190 l 490 190 l 490 0 l 353 0 z "},"+":{"ha":833,"x_min":74,"x_max":760,"o":"m 351 138 l 351 418 l 74 418 l 74 543 l 351 543 l 351 822 l 481 822 l 481 543 l 760 543 l 760 418 l 481 418 l 481 138 l 351 138 z "},"−":{"ha":860,"x_min":74,"x_max":786,"o":"m 74 436 l 74 543 l 786 543 l 786 436 l 74 436 z "},"×":{"ha":900,"x_min":121,"x_max":779,"o":"m 203 157 l 121 239 l 369 488 l 122 733 l 203 817 l 450 567 l 697 817 l 779 733 l 533 488 l 779 240 l 697 157 l 450 406 l 203 157 z "},"÷":{"ha":858,"x_min":74,"x_max":785,"o":"m 74 440 l 74 540 l 785 540 l 785 440 l 74 440 m 428 188 q 367 213 390 188 q 344 271 344 238 q 367 330 344 307 q 428 353 390 353 q 490 330 467 353 q 514 271 514 307 q 489 211 514 235 q 428 188 464 188 m 428 629 q 367 653 390 629 q 344 711 344 676 q 367 769 344 744 q 428 794 390 794 q 490 769 467 794 q 514 711 514 744 q 489 651 514 674 q 428 629 464 629 z "},"=":{"ha":808,"x_min":74,"x_max":736,"o":"m 74 600 l 74 726 l 736 726 l 736 600 l 74 600 m 74 258 l 74 383 l 736 383 l 736 258 l 74 258 z "},"≠":{"ha":838,"x_min":74,"x_max":778,"o":"m 282 108 l 188 160 l 267 307 l 74 307 l 74 413 l 324 413 l 404 571 l 76 571 l 76 678 l 463 678 l 568 878 l 661 825 l 582 678 l 778 678 l 778 571 l 525 571 l 444 413 l 775 413 l 775 307 l 385 307 l 282 108 z "},">":{"ha":840,"x_min":88,"x_max":754,"o":"m 88 108 l 88 242 l 610 478 l 88 714 l 88 849 l 754 540 l 754 415 l 88 108 z "},"<":{"ha":842,"x_min":88,"x_max":756,"o":"m 756 107 l 88 417 l 88 539 l 756 849 l 756 715 l 232 479 l 756 239 l 756 107 z "},"≥":{"ha":860,"x_min":74,"x_max":786,"o":"m 113 143 l 113 276 l 635 513 l 113 749 l 113 883 l 779 575 l 779 450 l 113 143 m 74 1 l 74 108 l 786 108 l 786 1 l 74 1 z "},"≤":{"ha":860,"x_min":74,"x_max":786,"o":"m 767 142 l 99 451 l 99 574 l 767 883 l 767 750 l 243 514 l 767 274 l 767 142 m 74 1 l 74 108 l 786 108 l 786 1 l 74 1 z "},"±":{"ha":832,"x_min":74,"x_max":758,"o":"m 361 250 l 361 467 l 74 467 l 74 578 l 361 578 l 361 801 l 471 801 l 471 578 l 758 578 l 758 467 l 471 467 l 471 250 l 361 250 m 74 39 l 74 150 l 758 150 l 758 39 l 74 39 z "},"≈":{"ha":881,"x_min":71,"x_max":808,"o":"m 71 489 q 100 592 79 543 q 161 673 121 642 q 264 704 201 704 q 356 689 310 704 q 449 654 403 674 q 538 619 494 635 q 621 604 582 604 q 691 635 668 604 q 721 714 714 667 l 808 714 q 783 612 806 661 q 719 531 761 563 q 614 499 678 499 q 524 514 571 499 q 433 549 478 529 q 346 583 388 568 q 268 599 304 599 q 191 566 217 599 q 158 489 165 533 l 71 489 m 71 244 q 100 348 79 299 q 161 428 121 397 q 264 458 201 458 q 356 443 310 458 q 449 408 403 428 q 538 374 494 389 q 621 358 582 358 q 691 390 668 358 q 721 468 714 422 l 808 468 q 783 366 806 415 q 719 285 761 317 q 614 254 678 254 q 524 269 571 254 q 433 304 478 285 q 346 339 388 324 q 268 354 304 354 q 191 322 217 354 q 158 244 165 289 l 71 244 z "},"~":{"ha":721,"x_min":71,"x_max":649,"o":"m 149 317 l 71 353 q 140 473 100 433 q 242 513 179 513 q 328 494 290 513 q 401 458 367 476 q 469 440 435 440 q 527 461 501 440 q 571 519 553 482 l 649 485 q 582 367 622 408 q 485 325 542 325 q 403 343 443 325 q 324 379 363 361 q 247 397 285 397 q 190 376 213 397 q 149 317 168 356 z "},"¬":{"ha":843,"x_min":65,"x_max":779,"o":"m 665 178 l 665 458 l 65 458 l 65 572 l 779 572 l 779 178 l 665 178 z "},"^":{"ha":682,"x_min":43,"x_max":639,"o":"m 43 599 l 283 979 l 396 979 l 639 599 l 519 599 l 339 879 l 158 599 l 43 599 z "},"∞":{"ha":994,"x_min":39,"x_max":956,"o":"m 240 282 q 135 310 181 282 q 65 385 90 338 q 39 490 39 432 q 64 597 39 549 q 134 675 89 646 q 238 704 179 704 q 340 680 292 704 q 428 622 388 656 q 497 556 468 588 q 569 626 529 592 q 658 683 610 661 q 763 706 707 706 q 865 676 821 706 q 932 598 908 647 q 956 490 956 549 q 931 385 956 433 q 860 310 906 338 q 754 282 815 282 q 657 303 703 282 q 571 356 611 324 q 496 421 531 389 q 422 356 461 388 q 338 303 382 324 q 240 282 293 282 m 242 388 q 313 403 279 388 q 375 444 346 419 q 426 490 404 468 q 371 539 400 514 q 309 581 342 564 q 238 599 276 599 q 168 567 192 599 q 144 492 144 536 q 169 416 144 444 q 242 388 193 388 m 757 388 q 826 416 801 388 q 850 492 850 444 q 826 569 850 539 q 753 600 803 600 q 683 581 717 600 q 622 537 650 563 q 568 488 593 511 q 654 419 607 450 q 757 388 701 388 z "},"∫":{"ha":474,"x_min":17,"x_max":457,"o":"m 128 -319 q 82 -311 108 -319 q 36 -285 56 -303 q 17 -242 17 -268 q 31 -203 17 -219 q 68 -187 44 -187 q 97 -199 86 -187 q 115 -223 107 -211 q 138 -235 124 -235 q 158 -217 151 -235 q 168 -163 165 -199 q 171 -74 171 -128 l 171 763 q 176 856 171 804 q 197 953 181 907 q 247 1030 214 1000 q 338 1060 281 1060 q 392 1052 364 1060 q 438 1027 419 1044 q 457 979 457 1010 q 441 937 457 953 q 399 921 425 921 q 365 933 376 921 q 345 956 353 944 q 322 968 338 968 q 303 950 310 968 q 293 906 296 932 q 290 856 290 879 q 289 822 289 833 l 289 29 q 288 -49 289 -4 q 278 -142 286 -94 q 253 -229 271 -189 q 206 -294 236 -269 q 128 -319 176 -319 z "},"Ω":{"ha":1111,"x_min":44,"x_max":1067,"o":"m 44 0 l 44 126 l 288 126 q 170 233 219 169 q 94 372 121 296 q 68 529 68 449 q 106 719 68 633 q 211 868 144 806 q 367 964 278 931 q 558 997 457 997 q 807 938 697 997 q 980 773 917 879 q 1043 525 1043 667 q 1017 369 1043 444 q 942 232 990 294 q 824 126 893 169 l 1067 126 l 1067 0 l 646 0 l 646 129 q 777 229 721 174 q 865 356 833 285 q 896 517 896 426 q 854 699 896 619 q 737 823 813 778 q 557 868 661 868 q 377 824 454 868 q 258 700 300 779 q 215 517 215 621 q 286 287 215 383 q 472 129 357 190 l 472 0 l 44 0 z "},"∆":{"ha":1003,"x_min":35,"x_max":969,"o":"m 35 0 l 429 986 l 569 986 l 969 0 l 35 0 m 225 122 l 774 122 l 497 833 l 225 122 z "},"∏":{"ha":999,"x_min":103,"x_max":896,"o":"m 103 -365 l 103 1015 l 896 1015 l 896 -365 l 779 -365 l 779 907 l 219 907 l 219 -365 l 103 -365 z "},"∑":{"ha":822,"x_min":25,"x_max":797,"o":"m 25 -362 l 25 -271 l 465 335 l 43 928 l 43 1018 l 782 1018 l 782 910 l 196 910 l 606 335 l 172 -254 l 797 -254 l 797 -362 l 25 -362 z "},"√":{"ha":661,"x_min":-6,"x_max":667,"o":"m 318 -10 l 100 444 l 38 415 l -6 508 l 154 581 l 353 160 l 551 1138 l 667 1138 l 429 -10 l 318 -10 z "},"∂":{"ha":708,"x_min":50,"x_max":647,"o":"m 331 -15 q 179 29 242 -15 q 83 145 117 74 q 50 299 50 217 q 82 447 50 379 q 176 557 114 515 q 324 599 238 599 q 440 574 389 599 q 535 506 490 550 q 530 631 538 564 q 498 759 522 699 q 428 858 474 819 q 308 896 382 896 q 157 832 221 896 l 92 907 q 192 977 142 956 q 306 999 243 999 q 472 952 406 999 q 576 831 538 906 q 631 670 615 757 q 647 501 647 583 q 640 368 647 439 q 614 229 633 297 q 560 106 594 161 q 469 18 525 51 q 331 -15 413 -15 m 332 83 q 423 113 386 83 q 483 190 460 143 q 516 290 506 238 q 528 385 526 342 q 443 463 493 431 q 332 496 393 496 q 240 467 278 496 q 182 394 201 439 q 163 296 163 349 q 181 197 163 246 q 238 116 200 149 q 332 83 276 83 z "},"µ":{"ha":800,"x_min":96,"x_max":699,"o":"m 96 -254 l 96 685 l 235 685 l 235 293 q 257 186 235 228 q 314 126 279 144 q 386 107 349 107 q 508 153 457 107 q 560 293 560 200 l 560 685 l 699 685 l 699 0 l 558 89 q 485 15 531 44 q 385 -14 440 -14 q 298 10 338 -14 q 235 82 258 33 l 235 -254 l 96 -254 z "},"%":{"ha":1179,"x_min":60,"x_max":1119,"o":"m 299 -22 l 192 -4 l 874 999 l 982 983 l 299 -22 m 293 494 q 171 528 224 494 q 89 621 118 563 q 60 750 60 679 q 90 876 60 819 q 173 967 119 933 q 294 1001 226 1001 q 417 968 365 1001 q 498 878 469 935 q 526 751 526 821 q 499 626 526 685 q 419 531 471 567 q 293 494 367 494 m 294 590 q 388 634 356 590 q 421 744 421 678 q 408 822 421 785 q 367 883 394 858 q 293 907 339 907 q 200 863 235 907 q 165 750 165 818 q 201 634 165 678 q 294 590 236 590 m 886 -15 q 764 19 817 -15 q 683 110 711 53 q 654 236 654 167 q 684 364 654 307 q 767 454 714 421 q 888 488 819 488 q 1009 454 957 488 q 1090 365 1061 421 q 1119 238 1119 308 q 1091 113 1119 169 q 1010 20 1063 56 q 886 -15 958 -15 m 888 81 q 980 125 946 81 q 1014 236 1014 169 q 1001 313 1014 276 q 959 371 988 349 q 886 393 931 393 q 794 350 828 393 q 760 236 760 307 q 797 122 760 163 q 888 81 833 81 z "},"‰":{"ha":1644,"x_min":60,"x_max":1585,"o":"m 163 0 l 850 974 l 978 974 l 293 0 l 163 0 m 289 492 q 168 526 219 492 q 88 616 117 560 q 60 739 60 672 q 90 863 60 807 q 172 952 119 918 q 290 986 224 986 q 408 953 357 986 q 488 865 460 921 q 517 740 517 810 q 489 619 517 676 q 410 527 461 563 q 289 492 358 492 m 290 585 q 378 628 346 585 q 411 739 411 672 q 381 846 411 799 q 285 893 351 893 q 196 851 228 893 q 164 740 164 808 q 200 628 164 672 q 290 585 236 585 m 835 -15 q 717 18 768 -15 q 636 107 665 51 q 607 231 607 163 q 637 357 607 301 q 718 445 667 413 q 836 478 769 478 q 953 445 903 478 q 1033 358 1004 413 q 1063 233 1063 303 q 1035 111 1063 168 q 957 19 1008 54 q 835 -15 906 -15 m 836 79 q 926 119 894 79 q 957 226 957 160 q 945 301 957 265 q 906 360 933 338 q 835 383 879 383 q 745 342 779 383 q 711 233 711 300 q 747 121 711 163 q 836 79 782 79 m 1358 -15 q 1240 18 1292 -15 q 1159 107 1189 51 q 1129 231 1129 163 q 1159 357 1129 301 q 1241 445 1189 413 q 1360 478 1293 478 q 1477 445 1426 478 q 1556 358 1528 413 q 1585 233 1585 303 q 1558 113 1585 169 q 1480 20 1531 56 q 1358 -15 1429 -15 m 1360 79 q 1449 119 1418 79 q 1481 226 1481 160 q 1469 301 1481 265 q 1430 360 1457 338 q 1358 383 1403 383 q 1267 342 1301 383 q 1233 233 1233 300 q 1269 121 1233 163 q 1360 79 1306 79 z "},"◌":{"ha":1218,"x_min":68,"x_max":1150,"o":"m 172 197 q 131 214 149 197 q 114 254 114 231 q 132 294 114 278 q 172 311 150 311 q 211 294 194 311 q 228 254 228 278 q 211 214 228 231 q 172 197 194 197 m 365 17 q 324 33 342 17 q 307 74 307 50 q 325 114 307 97 q 365 131 343 131 q 406 114 389 131 q 422 74 422 97 q 406 33 422 50 q 365 17 389 17 m 619 -47 q 578 -31 596 -47 q 561 10 561 -14 q 578 51 561 35 q 619 67 596 67 q 660 51 643 67 q 676 10 676 35 q 660 -31 676 -14 q 619 -47 643 -47 m 125 451 q 85 468 101 451 q 68 508 68 485 q 85 549 68 532 q 125 565 101 565 q 165 549 149 565 q 182 508 182 532 q 165 468 182 485 q 125 451 149 451 m 190 686 q 149 703 167 686 q 132 744 132 721 q 150 785 132 768 q 190 801 168 801 q 231 785 214 801 q 247 744 247 768 q 231 703 247 721 q 190 686 214 686 m 844 36 q 803 53 821 36 q 786 93 786 69 q 804 133 786 117 q 844 150 822 150 q 885 133 868 150 q 901 93 901 117 q 885 53 901 69 q 844 36 868 36 m 360 872 q 319 889 336 872 q 301 929 301 906 q 319 970 301 954 q 360 986 336 986 q 399 970 382 986 q 415 929 415 954 q 399 889 415 906 q 360 872 382 872 m 1028 207 q 988 224 1004 207 q 971 264 971 240 q 987 305 971 289 q 1028 321 1003 321 q 1068 305 1051 321 q 1085 264 1085 289 q 1068 224 1085 240 q 1028 207 1051 207 m 619 921 q 578 938 596 921 q 561 979 561 956 q 579 1019 561 1003 q 619 1036 597 1036 q 660 1019 643 1036 q 676 979 676 1003 q 660 938 676 956 q 619 921 643 921 m 1093 451 q 1053 468 1069 451 q 1036 508 1036 485 q 1053 549 1036 532 q 1093 565 1069 565 q 1133 549 1117 565 q 1150 508 1150 532 q 1133 468 1150 485 q 1093 451 1117 451 m 1011 679 q 971 696 988 679 q 954 736 954 713 q 971 776 954 760 q 1011 793 988 793 q 1051 776 1035 793 q 1068 736 1068 760 q 1051 696 1068 713 q 1011 679 1035 679 m 853 854 q 812 871 829 854 q 794 911 794 888 q 813 951 794 935 q 853 968 831 968 q 893 951 876 968 q 910 911 910 935 q 893 871 910 888 q 853 854 876 854 z "},"◊":{"ha":651,"x_min":39,"x_max":613,"o":"m 274 -49 l 39 493 l 274 1035 l 376 1035 l 613 493 l 376 -49 l 274 -49 m 325 92 l 496 494 l 325 894 l 157 493 l 325 92 z "},"@":{"ha":1268,"x_min":68,"x_max":1200,"o":"m 654 -146 q 419 -103 526 -146 q 233 18 313 -60 q 111 199 154 96 q 68 421 68 301 q 112 646 68 542 q 235 829 156 750 q 419 953 314 908 q 646 997 524 997 q 862 958 761 997 q 1038 849 963 919 q 1157 688 1114 779 q 1200 489 1200 596 q 1165 299 1200 378 q 1072 180 1131 221 q 939 139 1013 139 q 833 169 872 139 q 774 256 794 199 q 688 174 738 207 q 567 142 638 142 q 442 175 497 142 q 354 267 386 208 q 322 403 322 326 q 363 565 322 492 q 472 682 404 638 q 622 726 540 726 q 736 696 693 726 q 807 619 779 665 l 821 708 l 938 696 l 885 329 q 892 269 883 296 q 920 226 900 242 q 969 211 940 211 q 1050 244 1014 211 q 1108 336 1086 276 q 1131 476 1131 396 q 1094 657 1131 574 q 993 803 1058 740 q 839 900 928 865 q 644 935 750 935 q 444 896 536 935 q 284 788 353 857 q 178 625 215 718 q 140 424 140 532 q 177 223 140 315 q 283 62 214 131 q 449 -45 351 -7 q 665 -83 546 -83 q 842 -58 763 -83 q 1001 18 922 -33 l 1035 -29 q 856 -116 950 -86 q 654 -146 763 -146 m 589 247 q 685 278 642 247 q 753 359 728 310 q 778 464 778 408 q 740 575 778 532 q 636 618 703 618 q 538 588 581 618 q 472 511 496 558 q 449 410 449 464 q 486 292 449 338 q 589 247 524 247 z "},"&":{"ha":965,"x_min":74,"x_max":956,"o":"m 389 -15 q 228 19 300 -15 q 115 117 157 53 q 74 267 74 181 q 133 445 74 372 q 303 560 193 518 q 238 663 263 613 q 213 772 213 714 q 244 890 213 839 q 334 969 276 940 q 465 999 392 999 q 592 969 538 999 q 678 890 647 939 q 710 782 710 842 q 651 631 710 690 q 496 532 592 572 l 693 315 q 752 414 725 365 q 804 518 779 463 l 919 481 q 850 347 888 413 q 772 224 813 282 l 956 22 l 808 -7 l 686 119 q 551 20 622 56 q 389 -15 481 -15 m 400 96 q 515 129 464 96 q 608 211 565 163 l 375 472 q 260 390 300 438 q 219 274 219 342 q 242 184 219 225 q 306 119 265 143 q 400 96 346 96 m 426 610 q 538 678 494 636 q 582 775 582 721 q 548 858 582 828 q 464 889 514 889 q 377 856 411 889 q 343 771 343 824 q 365 694 343 732 q 426 610 388 656 z "},"¶":{"ha":881,"x_min":49,"x_max":701,"o":"m 292 -147 l 292 489 q 174 525 229 500 q 83 599 118 550 q 49 732 49 649 q 124 917 49 853 q 329 981 199 981 l 701 981 l 701 864 l 651 864 l 651 -147 l 533 -147 l 533 864 l 410 864 l 410 -147 l 292 -147 z "},"§":{"ha":781,"x_min":46,"x_max":715,"o":"m 381 -103 q 251 -82 308 -103 q 147 -25 193 -61 l 147 104 q 256 30 196 54 q 382 6 315 6 q 478 30 444 6 q 513 103 513 54 q 460 181 513 147 q 308 246 408 215 q 156 306 214 274 q 72 379 99 339 q 46 467 46 419 q 88 578 46 535 q 210 642 131 622 q 142 710 171 669 q 114 804 114 751 q 148 907 114 863 q 242 976 182 951 q 379 1001 301 1001 q 503 982 447 1001 q 603 931 560 963 l 603 803 q 499 869 550 846 q 386 892 449 892 q 287 869 324 892 q 250 803 250 847 q 291 735 250 769 q 447 661 332 700 q 610 594 551 628 q 692 524 668 561 q 715 440 715 486 q 673 328 715 369 q 554 265 631 286 q 624 192 600 231 q 647 107 647 153 q 614 -2 647 46 q 521 -76 581 -50 q 381 -103 461 -103 m 468 321 q 560 346 526 321 q 593 410 593 371 q 570 466 593 440 q 511 512 547 492 q 434 547 475 532 q 357 571 393 561 q 297 585 321 581 q 203 553 239 578 q 168 485 168 529 q 192 428 168 454 q 257 381 215 401 q 353 344 299 360 q 468 321 407 329 z "},"©":{"ha":1167,"x_min":49,"x_max":1119,"o":"m 585 -44 q 375 -2 472 -44 q 204 115 278 40 q 90 288 131 189 q 49 500 49 386 q 90 707 49 610 q 206 878 132 804 q 376 995 279 953 q 583 1038 474 1038 q 791 996 694 1038 q 962 879 888 954 q 1078 706 1036 804 q 1119 496 1119 608 q 1078 285 1119 383 q 964 113 1038 188 q 793 -3 890 39 q 585 -44 696 -44 m 585 44 q 758 79 676 44 q 902 176 840 114 q 999 321 964 239 q 1035 496 1035 403 q 1000 672 1035 590 q 903 815 965 753 q 760 913 842 878 q 585 947 679 947 q 410 913 492 947 q 265 816 328 878 q 168 673 203 754 q 133 499 133 592 q 168 323 133 406 q 265 178 203 240 q 410 80 328 115 q 585 44 492 44 m 585 190 q 431 232 499 190 q 326 345 364 274 q 288 506 288 417 q 325 663 288 593 q 431 774 363 733 q 588 815 499 815 q 691 797 646 815 q 764 760 736 779 l 764 636 q 688 688 732 668 q 596 707 643 707 q 503 681 544 707 q 438 609 461 654 q 414 506 414 564 q 437 401 414 449 q 501 327 460 354 q 599 300 543 300 q 676 315 635 300 q 763 369 718 329 l 763 254 q 683 208 726 225 q 585 190 640 190 z "},"®":{"ha":1058,"x_min":29,"x_max":1031,"o":"m 532 -3 q 337 36 428 -3 q 176 144 246 75 q 68 303 107 213 q 29 496 29 393 q 69 688 29 599 q 178 846 108 778 q 339 952 247 914 q 535 990 431 990 q 727 952 638 990 q 885 845 817 914 q 992 688 953 776 q 1031 496 1031 599 q 991 304 1031 394 q 882 144 951 214 q 723 36 813 75 q 532 -3 633 -3 m 532 76 q 695 110 619 76 q 827 201 771 143 q 915 336 883 260 q 947 497 947 413 q 915 658 947 583 q 826 790 883 732 q 694 879 769 847 q 535 911 619 911 q 369 879 446 911 q 234 790 292 847 q 144 658 176 733 q 113 494 113 582 q 144 333 113 408 q 234 199 176 257 q 368 109 292 142 q 532 76 444 76 m 344 206 l 344 789 l 549 789 q 679 744 626 789 q 732 624 732 699 q 690 513 732 557 q 589 456 647 469 l 785 206 l 660 206 l 478 442 l 451 442 l 451 206 l 344 206 m 451 536 l 531 536 q 603 558 574 536 q 632 615 632 579 q 608 672 632 647 q 532 697 583 697 l 451 697 l 451 536 z "},"™":{"ha":1218,"x_min":7,"x_max":1192,"o":"m 571 406 l 571 981 l 718 981 l 882 586 l 1049 981 l 1192 981 l 1192 406 l 1083 406 l 1083 813 l 915 406 l 847 406 l 679 814 l 679 406 l 571 406 m 189 406 l 189 882 l 7 882 l 7 981 l 478 981 l 478 882 l 297 882 l 297 406 l 189 406 z "},"°":{"ha":526,"x_min":50,"x_max":476,"o":"m 264 590 q 158 618 207 590 q 79 694 108 646 q 50 799 50 742 q 79 905 50 857 q 158 981 108 953 q 264 1010 207 1010 q 372 982 324 1010 q 448 907 419 954 q 476 800 476 860 q 448 694 476 742 q 372 618 419 646 q 264 590 324 590 m 264 674 q 353 708 317 674 q 389 800 389 743 q 353 890 389 853 q 264 926 317 926 q 175 888 211 926 q 139 800 139 850 q 174 710 139 747 q 264 674 210 674 z "},"′":{"ha":335,"x_min":72,"x_max":261,"o":"m 72 592 l 107 982 l 261 982 l 261 982 l 247 919 l 160 592 l 72 592 z "},"″":{"ha":600,"x_min":72,"x_max":526,"o":"m 339 592 l 374 982 l 526 982 l 526 982 l 513 919 l 425 592 l 339 592 m 72 592 l 107 982 l 260 982 l 260 982 l 246 919 l 158 592 l 72 592 z "},"|":{"ha":818,"x_min":351,"x_max":469,"o":"m 351 -224 l 351 1072 l 469 1072 l 469 -224 l 351 -224 z "},"¦":{"ha":826,"x_min":351,"x_max":478,"o":"m 351 454 l 351 943 l 478 943 l 478 454 l 351 454 m 351 -242 l 351 240 l 478 240 l 478 -242 l 351 -242 z "},"†":{"ha":647,"x_min":85,"x_max":561,"o":"m 269 106 l 281 694 l 85 685 l 85 782 l 278 774 l 268 1001 l 376 1001 l 365 774 l 561 782 l 561 685 l 363 694 l 375 106 l 269 106 z "},"ℓ":{"ha":722,"x_min":106,"x_max":599,"o":"m 406 -19 q 312 1 353 -19 q 248 68 271 22 q 225 188 225 114 l 225 286 l 156 218 l 106 285 l 225 401 l 225 744 q 242 860 225 803 q 300 956 260 918 q 408 993 340 993 q 491 969 456 993 q 547 903 526 946 q 567 804 567 861 q 537 660 567 732 q 456 517 507 588 q 342 376 406 446 l 342 181 q 360 106 342 135 q 419 76 378 76 q 467 85 444 76 q 512 107 490 93 q 551 135 533 121 l 599 63 q 502 1 551 21 q 406 -19 453 -19 m 342 496 q 412 601 385 550 q 452 699 439 653 q 465 788 465 746 q 460 838 465 811 q 444 885 456 865 q 408 906 432 906 q 361 872 381 906 q 342 760 342 838 l 342 496 z "},"‡":{"ha":642,"x_min":85,"x_max":556,"o":"m 269 -7 l 275 206 l 85 199 l 85 296 l 276 288 q 274 378 275 331 q 274 474 274 425 q 274 571 274 522 q 274 667 274 619 q 276 757 275 714 l 85 747 l 85 846 l 275 838 l 269 1061 l 374 1061 l 364 838 l 556 846 l 556 747 l 364 757 q 367 667 365 714 q 369 571 368 619 q 369 474 369 522 q 367 378 368 425 q 364 288 367 331 l 556 296 l 556 199 l 364 206 l 374 -7 l 269 -7 z "},"℮":{"ha":932,"x_min":104,"x_max":828,"o":"m 467 -24 q 276 28 357 -24 q 149 168 194 81 q 104 364 104 256 q 149 559 104 472 q 276 697 194 646 q 467 747 357 747 q 656 697 575 747 q 783 557 738 646 q 828 350 828 468 l 283 350 l 283 125 q 365 72 319 90 q 467 53 410 53 q 606 91 546 53 q 719 222 667 129 l 793 178 q 650 24 726 72 q 467 -24 574 -24 m 283 426 l 649 426 l 649 603 q 564 658 608 642 q 465 675 519 675 q 366 657 413 675 q 283 603 319 639 l 283 426 z "},"΄":{"ha":593,"x_min":142,"x_max":460,"o":"m 142 913 l 271 1128 l 460 1128 l 240 913 l 142 913 z "},"΅":{"ha":672,"x_min":42,"x_max":631,"o":"m 215 904 l 335 1119 l 517 1119 l 311 904 l 215 904 m 128 900 q 67 925 92 900 q 42 986 42 950 q 67 1047 42 1022 q 128 1072 92 1072 q 189 1047 163 1072 q 215 986 215 1022 q 189 925 215 950 q 128 900 163 900 m 544 901 q 485 927 508 901 q 461 988 461 953 q 485 1048 461 1022 q 544 1074 508 1074 q 607 1048 583 1074 q 631 988 631 1022 q 607 926 631 951 q 544 901 583 901 z "},"̈":{"ha":0,"x_min":42,"x_max":469,"o":"m 124 869 q 65 893 88 869 q 42 951 42 917 q 65 1010 42 986 q 124 1033 89 1033 q 182 1009 157 1033 q 207 951 207 985 q 182 893 207 917 q 124 869 157 869 m 388 869 q 331 893 354 869 q 308 951 308 917 q 331 1009 308 985 q 388 1033 354 1033 q 447 1009 424 1033 q 469 951 469 985 q 447 893 469 917 q 388 869 424 869 z "},"̇":{"ha":0,"x_min":53,"x_max":242,"o":"m 147 851 q 81 878 108 851 q 53 943 53 904 q 80 1009 53 983 q 147 1035 107 1035 q 215 1010 188 1035 q 242 943 242 985 q 215 878 242 904 q 147 851 188 851 z "},"̀":{"ha":0,"x_min":24,"x_max":308,"o":"m 204 856 l 24 1035 l 174 1071 l 308 856 l 204 856 z "},"́":{"ha":0,"x_min":28,"x_max":310,"o":"m 28 856 l 157 1071 l 310 1035 l 128 856 l 28 856 z "},"̋":{"ha":0,"x_min":24,"x_max":540,"o":"m 254 840 l 401 1058 l 540 1031 l 358 840 l 254 840 m 24 840 l 171 1058 l 310 1033 l 129 840 l 24 840 z "},"̂":{"ha":0,"x_min":35,"x_max":453,"o":"m 35 865 l 190 1072 l 299 1072 l 453 865 l 347 865 l 243 975 l 142 865 l 35 865 z "},"̌":{"ha":0,"x_min":26,"x_max":461,"o":"m 189 838 l 26 1047 l 142 1047 l 244 933 l 347 1047 l 461 1047 l 299 838 l 189 838 z "},"̆":{"ha":0,"x_min":29,"x_max":454,"o":"m 240 829 q 138 855 182 829 q 65 926 93 881 q 29 1033 38 972 l 117 1033 q 163 959 129 985 q 244 933 196 933 q 324 959 292 933 q 368 1033 356 985 l 454 1033 q 420 926 449 972 q 345 855 392 881 q 240 829 299 829 z "},"̊":{"ha":0,"x_min":42,"x_max":333,"o":"m 186 846 q 115 865 149 846 q 62 915 82 883 q 42 988 42 947 q 62 1062 42 1029 q 115 1113 82 1094 q 186 1132 149 1132 q 260 1113 226 1132 q 313 1060 293 1093 q 333 986 333 1028 q 313 914 333 946 q 260 864 293 882 q 186 846 226 846 m 188 918 q 240 938 221 918 q 260 988 260 958 q 240 1040 260 1019 q 188 1060 219 1060 q 136 1039 157 1060 q 115 989 115 1018 q 136 937 115 956 q 188 918 157 918 z "},"̃":{"ha":0,"x_min":35,"x_max":504,"o":"m 121 840 l 35 856 q 93 969 56 926 q 188 1011 131 1011 q 250 999 221 1011 q 306 973 279 986 q 357 960 333 960 q 394 975 381 960 q 419 1022 408 990 l 504 1006 q 451 894 483 935 q 367 853 418 853 q 308 866 336 853 q 252 892 279 879 q 197 904 225 904 q 153 890 174 904 q 121 840 132 875 z "},"̄":{"ha":0,"x_min":63,"x_max":497,"o":"m 63 842 l 63 935 l 497 935 l 497 842 l 63 842 z "},"̏":{"ha":0,"x_min":24,"x_max":517,"o":"m 413 856 l 232 1035 l 382 1071 l 517 856 l 413 856 m 204 856 l 24 1035 l 174 1071 l 308 856 l 204 856 z "},"̑":{"ha":0,"x_min":29,"x_max":454,"o":"m 243 1033 q 346 1008 301 1033 q 419 936 390 982 q 454 829 447 890 l 367 829 q 321 903 354 878 q 239 929 288 929 q 160 903 192 929 q 115 829 128 878 l 29 829 q 63 936 35 890 q 138 1008 92 982 q 243 1033 185 1033 z "},"̒":{"ha":0,"x_min":76,"x_max":296,"o":"m 76 757 l 186 1140 l 296 1140 l 231 757 l 76 757 z "},"̦":{"ha":0,"x_min":144,"x_max":313,"o":"m 144 -322 l 188 -74 l 313 -74 l 242 -322 l 144 -322 z "},"̧":{"ha":0,"x_min":51,"x_max":340,"o":"m 172 -312 q 109 -305 139 -312 q 51 -283 79 -297 l 71 -224 q 110 -235 92 -232 q 143 -239 128 -239 q 180 -233 160 -239 q 215 -215 200 -228 q 231 -179 231 -201 q 215 -148 231 -158 q 175 -137 200 -137 q 152 -140 163 -137 q 128 -149 142 -143 l 101 -128 l 188 0 l 279 0 l 221 -97 l 226 -97 q 278 -106 251 -97 q 322 -134 304 -114 q 340 -192 340 -154 q 313 -262 340 -236 q 247 -301 286 -289 q 172 -312 208 -312 z "},"̨":{"ha":0,"x_min":129,"x_max":390,"o":"m 288 -283 q 174 -249 219 -283 q 129 -150 129 -214 q 152 -69 129 -107 q 200 0 175 -32 l 299 0 q 252 -73 268 -44 q 236 -132 236 -101 q 256 -182 236 -162 q 310 -201 276 -201 q 338 -199 324 -201 q 374 -189 353 -196 l 390 -260 q 337 -278 363 -272 q 288 -283 311 -283 z "},"¨":{"ha":517,"x_min":33,"x_max":483,"o":"m 122 871 q 58 895 83 871 q 33 958 33 919 q 58 1022 33 997 q 122 1046 83 1046 q 185 1021 158 1046 q 213 958 213 996 q 185 895 213 919 q 122 871 158 871 m 394 871 q 333 895 358 871 q 308 958 308 919 q 333 1020 308 994 q 394 1046 357 1046 q 459 1021 435 1046 q 483 958 483 996 q 459 895 483 919 q 394 871 435 871 z "},"˙":{"ha":293,"x_min":53,"x_max":242,"o":"m 147 851 q 81 878 108 851 q 53 943 53 904 q 80 1009 53 983 q 147 1035 107 1035 q 215 1010 188 1035 q 242 943 242 985 q 215 878 242 904 q 147 851 188 851 z "},"`":{"ha":336,"x_min":24,"x_max":308,"o":"m 204 842 l 24 1021 l 174 1057 l 308 842 l 204 842 z "},"´":{"ha":332,"x_min":28,"x_max":310,"o":"m 28 842 l 157 1057 l 310 1021 l 128 842 l 28 842 z "},"˝":{"ha":554,"x_min":24,"x_max":540,"o":"m 254 840 l 401 1058 l 540 1031 l 358 840 l 254 840 m 24 840 l 171 1058 l 310 1033 l 129 840 l 24 840 z "},"ˆ":{"ha":489,"x_min":35,"x_max":453,"o":"m 35 865 l 190 1072 l 299 1072 l 453 865 l 347 865 l 243 975 l 142 865 l 35 865 z "},"ˉ":{"ha":557,"x_min":63,"x_max":497,"o":"m 63 842 l 63 935 l 497 935 l 497 842 l 63 842 z "},"ˇ":{"ha":488,"x_min":26,"x_max":461,"o":"m 189 842 l 26 1051 l 142 1051 l 244 938 l 347 1051 l 461 1051 l 299 842 l 189 842 z "},"˘":{"ha":483,"x_min":29,"x_max":454,"o":"m 240 829 q 138 855 182 829 q 65 926 93 881 q 29 1033 38 972 l 117 1033 q 163 959 129 985 q 244 933 196 933 q 324 959 292 933 q 368 1033 356 985 l 454 1033 q 420 926 449 972 q 345 855 392 881 q 240 829 299 829 z "},"˚":{"ha":375,"x_min":42,"x_max":333,"o":"m 186 846 q 115 865 149 846 q 62 915 82 883 q 42 988 42 947 q 62 1062 42 1029 q 115 1113 82 1094 q 186 1132 149 1132 q 260 1113 226 1132 q 313 1060 293 1093 q 333 986 333 1028 q 313 914 333 946 q 260 864 293 882 q 186 846 226 846 m 188 918 q 240 938 221 918 q 260 988 260 958 q 240 1040 260 1019 q 188 1060 219 1060 q 136 1039 157 1060 q 115 989 115 1018 q 136 937 115 956 q 188 918 157 918 z "},"˜":{"ha":539,"x_min":35,"x_max":504,"o":"m 121 840 l 35 856 q 93 969 56 926 q 188 1011 131 1011 q 250 999 221 1011 q 306 973 279 986 q 357 960 333 960 q 394 975 381 960 q 419 1022 408 990 l 504 1006 q 451 894 483 935 q 367 853 418 853 q 308 866 336 853 q 252 892 279 879 q 197 904 225 904 q 153 890 174 904 q 121 840 132 875 z "},"¯":{"ha":557,"x_min":63,"x_max":497,"o":"m 63 842 l 63 935 l 497 935 l 497 842 l 63 842 z "},"¸":{"ha":403,"x_min":51,"x_max":340,"o":"m 172 -312 q 109 -305 139 -312 q 51 -283 79 -297 l 71 -224 q 110 -235 92 -232 q 143 -239 128 -239 q 180 -233 160 -239 q 215 -215 200 -228 q 231 -179 231 -201 q 215 -148 231 -158 q 175 -137 200 -137 q 152 -140 163 -137 q 128 -149 142 -143 l 101 -128 l 188 0 l 279 0 l 221 -97 l 226 -97 q 278 -106 251 -97 q 322 -134 304 -114 q 340 -192 340 -154 q 313 -262 340 -236 q 247 -301 286 -289 q 172 -312 208 -312 z "}}}
